<svg width="45" height="41" viewBox="0 0 45 41" fill="none" xmlns="http://www.w3.org/2000/svg">
<path opacity="0.7" d="M0.0818182 31.816C0.218168 31.5973 0.436336 31.5837 0.736364 31.775C7.55452 35.7383 14.9727 37.72 22.9909 37.72C28.3363 37.72 33.6136 36.7223 38.8227 34.727C38.9591 34.6723 39.1568 34.5903 39.4159 34.481C39.675 34.3717 39.8591 34.2897 39.9682 34.235C40.3773 34.071 40.6977 34.153 40.9295 34.481C41.1613 34.809 41.0863 35.1097 40.7045 35.383C40.2136 35.7383 39.5863 36.1483 38.8227 36.613C36.4772 38.007 33.8591 39.0867 30.9682 39.852C28.0773 40.6173 25.2545 41 22.5 41C18.2455 41 14.2227 40.2552 10.4318 38.7655C6.6409 37.2758 3.24544 35.178 0.245455 32.472C0.0818182 32.3353 0 32.1987 0 32.062C0 31.98 0.0272455 31.898 0.0818182 31.816ZM12.3955 20.131C12.3955 18.245 12.8591 16.6323 13.7864 15.293C14.7136 13.9537 15.9818 12.9423 17.5909 12.259C19.0636 11.6303 20.8773 11.1793 23.0318 10.906C23.7682 10.824 24.9682 10.7147 26.6318 10.578V9.881C26.6318 8.13165 26.4409 6.95635 26.0591 6.355C25.4864 5.535 24.5864 5.125 23.3591 5.125H23.0318C22.1318 5.207 21.3545 5.494 20.7 5.986C20.0455 6.478 19.6227 7.16135 19.4318 8.036C19.3227 8.58265 19.05 8.897 18.6136 8.979L13.9091 8.405C13.4454 8.29565 13.2136 8.04965 13.2136 7.667C13.2136 7.585 13.2273 7.48935 13.2545 7.38C13.7182 4.94735 14.8568 3.14335 16.6705 1.968C18.4841 0.792653 20.6045 0.136653 23.0318 0H24.0545C27.1636 0 29.5909 0.806347 31.3364 2.419C31.6101 2.69358 31.8631 2.98823 32.0932 3.3005C32.325 3.61485 32.5091 3.895 32.6455 4.141C32.7818 4.387 32.9045 4.74235 33.0136 5.207C33.1227 5.67165 33.2045 5.99285 33.2591 6.1705C33.3136 6.34815 33.3545 6.73085 33.3818 7.3185C33.4091 7.90615 33.4227 8.25465 33.4227 8.364V18.286C33.4227 18.9967 33.525 19.6458 33.7295 20.2335C33.9341 20.8212 34.1318 21.2448 34.3227 21.5045C34.5136 21.7642 34.8273 22.181 35.2636 22.755C35.4273 23.001 35.5091 23.2197 35.5091 23.411C35.5091 23.6297 35.4 23.821 35.1818 23.985C32.9182 25.953 31.6909 27.019 31.5 27.183C31.1727 27.429 30.7773 27.4563 30.3136 27.265C29.9318 26.937 29.5977 26.6227 29.3114 26.322C29.025 26.0213 28.8205 25.8027 28.6977 25.666C28.575 25.5293 28.3772 25.2628 28.1045 24.8665C27.8318 24.4702 27.6409 24.2037 27.5318 24.067C26.0045 25.7343 24.5045 26.773 23.0318 27.183C22.1045 27.4563 20.9591 27.593 19.5955 27.593C17.4954 27.593 15.7705 26.9438 14.4205 25.6455C13.0705 24.3472 12.3955 22.509 12.3955 20.131ZM19.4318 19.311C19.4318 20.377 19.6977 21.2312 20.2295 21.8735C20.7614 22.5158 21.4773 22.837 22.3773 22.837C22.4591 22.837 22.575 22.8233 22.725 22.796C22.875 22.7687 22.9772 22.755 23.0318 22.755C24.1773 22.4543 25.0636 21.7163 25.6909 20.541C25.9909 20.0217 26.2159 19.4545 26.3659 18.8395C26.5159 18.2245 26.5977 17.7257 26.6114 17.343C26.625 16.9603 26.6318 16.3317 26.6318 15.457V14.432C25.05 14.432 23.85 14.5413 23.0318 14.76C20.6318 15.4433 19.4318 16.9603 19.4318 19.311ZM36.6136 32.513C36.6682 32.4037 36.75 32.2943 36.8591 32.185C37.5409 31.7203 38.1954 31.406 38.8227 31.242C39.8591 30.9687 40.8682 30.8183 41.85 30.791C42.1227 30.7637 42.3818 30.7773 42.6273 30.832C43.8545 30.9413 44.5909 31.1463 44.8364 31.447C44.9454 31.611 45 31.857 45 32.185V32.472C45 33.4287 44.7409 34.5562 44.2227 35.8545C43.7045 37.1528 42.9818 38.1983 42.0545 38.991C41.9182 39.1003 41.7954 39.155 41.6864 39.155C41.6318 39.155 41.5773 39.1413 41.5227 39.114C41.3591 39.032 41.3182 38.8817 41.4 38.663C42.4091 36.285 42.9136 34.6313 42.9136 33.702C42.9136 33.4013 42.8591 33.1827 42.75 33.046C42.4773 32.718 41.7136 32.554 40.4591 32.554C39.9954 32.554 39.45 32.5813 38.8227 32.636C38.1409 32.718 37.5136 32.8 36.9409 32.882C36.7773 32.882 36.6682 32.8547 36.6136 32.8C36.5591 32.7453 36.5454 32.6907 36.5727 32.636C36.5727 32.6087 36.5863 32.5677 36.6136 32.513Z" fill="#828282"/>
</svg>
