<svg width="120" height="35" fill="none" xmlns="http://www.w3.org/2000/svg"><g opacity=".7" fill-rule="evenodd" clip-rule="evenodd" fill="#828282"><path d="M40.91 15.802V1.282h5.295c1.123 0 1.845.241 2.487.482 1.444.722 2.085 2.086 2.085 3.289 0 1.364-.562 2.326-1.685 3.048 1.685.4 2.648 1.524 2.648 3.288 0 2.006-1.204 3.45-3.21 4.092-.721.24-1.523.32-2.727.32h-4.892v.001zM47.409 3.77c-.401-.16-.802-.241-1.364-.241h-2.727v3.77h2.567c.721 0 1.203-.08 1.604-.321a1.72 1.72 0 00.882-1.524c0-.721-.4-1.364-.962-1.684zm.722 6.016c-.32-.16-.802-.241-1.604-.241h-3.209v4.01h2.968c.963 0 1.445-.16 1.845-.32.722-.321 1.043-.963 1.043-1.765 0-.802-.32-1.363-1.043-1.684zm18.048 6.016V1.282h2.488v14.52h-2.488zm18.049 0V1.282h2.487v14.52h-2.487zm10.429-14.6c1.603 0 3.208.402 4.09.803l-.08 2.407c-1.284-.642-2.486-1.043-4.01-1.043-1.364 0-2.567.4-2.567 1.524 0 2.968 7.46 1.764 7.46 6.657 0 2.728-2.246 4.412-5.615 4.412-2.246 0-3.77-.641-4.893-1.283l1.043-2.006c.883.562 2.327 1.123 3.93 1.123 1.524 0 2.888-.561 2.888-1.845 0-3.129-7.38-1.764-7.38-6.658 0-2.646 2.085-4.09 5.134-4.09zm16.604 14.6V9.546h-6.98v6.256h-2.486V1.282h2.486V7.22h6.98V1.283h2.486v14.52h-2.486zM46.365 18.29c1.524 0 2.728.32 4.01.882l-.72 2.086c-.723-.322-1.686-.722-3.049-.722-2.727 0-4.412 2.326-4.412 5.134 0 2.888 1.605 5.214 4.412 5.214 1.363 0 2.326-.401 3.048-.722l.722 2.085c-1.284.561-2.487.883-4.01.883-4.332 0-6.82-3.048-6.82-7.38 0-4.091 2.488-7.46 6.82-7.46zm54.227 0c1.603 0 2.808.32 4.01.882l-.722 2.086c-.722-.322-1.685-.722-3.047-.722-2.728 0-4.412 2.326-4.412 5.134 0 2.888 1.604 5.214 4.412 5.214 1.363 0 2.325-.401 3.047-.722l.722 2.085c-1.203.561-2.407.883-4.01.883-4.332 0-6.819-3.048-6.819-7.38 0-4.091 2.487-7.46 6.819-7.46zm-36.099 7.38c0 4.331-2.726 7.46-6.817 7.46-4.092 0-6.819-3.048-6.819-7.38s2.728-7.46 6.819-7.46c4.171 0 6.817 3.048 6.817 7.38zm-2.566 0c0-3.13-1.844-5.135-4.251-5.135s-4.251 2.006-4.251 5.214c0 3.13 1.845 5.134 4.25 5.134 2.408 0 4.252-2.005 4.252-5.214zm4.251 1.764V18.45h2.488v9.064c0 2.487 1.284 3.37 3.369 3.37s3.368-.883 3.368-3.37V18.45h2.486v8.984c0 3.931-2.246 5.696-5.854 5.696-3.61 0-5.857-1.765-5.857-5.696zm16.364-5.053h-.08c.08.48.08 1.283.08 1.925v8.583h-2.486V18.449h2.728l6.657 9.867h.08c-.08-.481-.08-1.284-.08-1.925v-7.942h2.487v14.439h-2.166l-7.22-10.508zm23.986 10.508V18.449h2.486v14.439h-2.486zm4.732 0V18.449h2.486v12.193h5.696v2.246h-8.182zM82.302 1.364H70.59v2.245h4.653v12.193h2.487V3.61h4.572V1.364zM61.768 15.802c-2.087-4.412-2.648-5.615-3.53-5.615H55.91v5.615h-2.486V1.364h4.893c3.77 0 5.134 1.925 5.134 4.09 0 2.006-1.043 3.289-2.647 3.77.642.401 1.364 1.765 3.77 6.578h-2.807zM58.478 3.53H55.91v4.412h2.486c1.765 0 2.567-.882 2.567-2.246 0-1.203-.721-2.166-2.486-2.166zM16.604 8.262c0 4.573-3.77 8.262-8.342 8.262C3.77 16.524 0 12.834 0 8.262 0 3.69 3.77 0 8.262 0c4.572 0 8.342 3.69 8.342 8.262zm17.648 0a8.249 8.249 0 01-8.262 8.262 8.25 8.25 0 01-8.262-8.262A8.25 8.25 0 0125.99 0a8.25 8.25 0 018.262 8.262zM16.604 25.99c0 4.572-3.77 8.262-8.342 8.262C3.77 34.252 0 30.562 0 25.99c0-4.573 3.77-8.262 8.262-8.262 4.572 0 8.342 3.689 8.342 8.262zm17.648 0a8.248 8.248 0 01-8.262 8.262 8.252 8.252 0 01-8.262-8.262 8.249 8.249 0 018.262-8.262 8.25 8.25 0 018.262 8.262z"/></g></svg>