<svg width="222" height="30" fill="none" xmlns="http://www.w3.org/2000/svg"><path opacity=".7" fill-rule="evenodd" clip-rule="evenodd" d="M19.229 5.806l-3.2 5.035 8.179.005-9.245 11.312-.495.592-.356.428c-.714.791-1.733 1.185-3.143 1.219h-6.71L0 29.495h8.727c3.615 0 6.292-.656 9.233-2.27 1.404-.789 2.301-1.545 3.866-3.423L36.855 5.806H19.229zm32.536 13.898L59.952 9.9c.22-.263.44-.527.553-.79 1.04-2.138-.42-3.192-4.458-3.192h-9.782c-4.04 0-7.259 1.054-9.736 3.193-.299.236-.573.5-.82.789l-8.187 9.805c-.167.264-.385.526-.498.79-1.095 2.137.365 3.192 4.403 3.192h9.783c4.041 0 7.26-1.054 9.79-3.193.323-.262.544-.525.765-.789zm-6.724-1.053c-.646.326-1.344.525-1.714.525h-6.434a1.04 1.04 0 01-.764-.297c-.204-.261-.171-.559.133-.92l5.274-6.317c.303-.362.762-.658 1.407-.922.485-.197.94-.297 1.258-.297h6.433c.264 0 .555.099.71.297.258.263.222.56-.08.922l-5.247 6.285c-.219.265-.598.527-.976.724zm52.152 1.436c3.492-.297 6.824-1.612 9.3-3.752.384-.327.656-.658.929-.986l3.959-4.738c.244-.296.495-.593.661-.922 1.507-2.566-.003-3.882-4.571-3.882H85.795l-14.202 17.01-.442.526-.19.165c-.601.592-1.592.89-3.508.89h-5.58c-1.915 0-2.41-.298-2.023-.956l.137-.165.468-.558 14.12-16.912h-8.237l-14.863 17.8c-1.565 1.875-1.903 2.535-1.924 3.324.005 1.775 1.684 2.566 5.566 2.566h10.58c3.879 0 6.824-.792 9.88-2.6 1.295-.79 2.06-1.448 3.623-3.326l10.58-12.665h10.614c.159 0 .374 0 .504.033 1.326.132 1.554.56.865 1.383l-1.81 2.17c-.795.955-1.766 1.349-3.307 1.349h-3.349c-2.818 0-5.53 1.02-7.444 2.996-.739.756-.994 1.381-.899 1.842l1.302 8.818h9.728l-1.528-9.378 1.252.031c.472 0 .98-.031 1.485-.063zm41.441-10.748c1.311-2.271.148-3.422-3.896-3.422h-10.1c-4.037 0-7.127 1.151-9.607 3.422-.273.264-.572.56-.793.822l-11.293 13.525h7.283l10.03-12.01.218-.263c.737-.692 1.622-.988 3.166-.988h4.518c1.543 0 1.933.296 1.515.988-.025.098-.112.196-.165.263l-10.031 12.01h7.285l11.292-13.525c.216-.262.413-.557.578-.822zm2.932 8.59l.248-.298 19.695-3.85 2.969-3.553c.221-.264.44-.527.577-.756 1.277-2.04.457-3.16-2.617-3.488-.396-.033-.792-.067-1.221-.067h-9.887c-3.988 0-7.075 1.087-9.685 3.257a7.23 7.23 0 00-.899.888l-7.528 9.015c-1.734 2.073-1.763 3.258.072 4.114.71.361 1.557.494 3.894.494h16.002l3.764-4.51h-14.99c-.904.001-.997-.524-.394-1.247zm5.005-6.122c.134-.164.326-.329.542-.461.513-.295 1.024-.46 1.88-.592.423-.066.718-.098.878-.098h5.101c.109 0 .216 0 .348.032.766.098.948.395.804.69l-.053.067-.086.099-10.922 2.072 1.508-1.809zm52.777-.56c.106-.13.435-.328 1.131-.59l.243-.1c.228-.057.459-.101.693-.132h13.238l3.71-4.508h-14.675c-3.72 0-6.99 1.054-9.359 2.995-.43.328-.785.69-1.062 1.02l-2.776 3.322c-1.155 1.38-.941 2.403.922 3.29.63.33 1.555.494 2.723.494h6.274c.474.067.63.197.649.492a.804.804 0 01-.17.398l-.301.362a.802.802 0 01-.219.197c-.515.427-1.079.592-2.011.69h-29.93c-.906 0-.994-.525-.389-1.248l.243-.297 19.7-3.85 2.964-3.553c.211-.238.405-.491.58-.756 1.279-2.04.456-3.159-2.617-3.488-.399-.033-.797-.067-1.221-.067h-9.889c-3.986 0-7.073 1.087-9.688 3.257-.324.27-.624.567-.897.888l-7.53 9.015c-1.729 2.073-1.758 3.258.076 4.114.71.362 1.556.494 3.896.494h32.955c2.712 0 4.452-.43 7.198-1.811 1.245-.658 2.269-1.382 2.902-2.138l2.827-3.258c.633-.755.846-1.71.418-2.6-.503-.92-1.583-1.347-3.446-1.347h-6.484c-.797-.064-1.031-.164-1.108-.328-.072-.23-.014-.428.068-.527l.362-.43zm-26.305.56c.156-.181.339-.337.545-.461.512-.295 1.021-.46 1.877-.592.426-.066.72-.098.878-.098h5.106c.107 0 .211 0 .343.032.769.098.946.395.807.69l-.056.067-.083.099-10.928 2.072 1.511-1.809zm-70.851 13.295h1.176v.678c.285-.233.543-.402.776-.508a3.31 3.31 0 011.353-.263c.571 0 1.031.089 1.381.276.196.106.374.259.536.463.269-.252.586-.437.951-.559.364-.122.774-.18 1.228-.18.973 0 1.634.228 1.985.686.191.25.283.58.283.995v3.147h-1.245v-3.281c0-.318-.123-.536-.365-.655a2.064 2.064 0 00-.887-.173c-.48 0-.894.105-1.24.314-.347.21-.52.558-.52 1.045v2.751h-1.2v-3.111c0-.325-.059-.561-.174-.709-.184-.223-.526-.334-1.029-.334-.457 0-.873.122-1.247.366-.375.247-.561.674-.561 1.285v2.505h-1.2v-4.738h-.001zm12.634 0v3.176c0 .24.058.439.173.597.211.285.605.43 1.184.43.827 0 1.393-.252 1.692-.753.165-.268.246-.636.246-1.104v-2.346h1.198v4.735h-1.128l.014-.66c-.163.18-.357.33-.574.441-.452.238-1.002.36-1.648.36-1.007 0-1.695-.226-2.058-.68-.199-.242-.297-.566-.297-.969v-3.226h1.198V25.1zm7.181 3.25c.02.23.128.444.301.598.307.252.839.377 1.595.377.452 0 .849-.065 1.192-.192.34-.128.512-.327.512-.595 0-.204-.136-.357-.41-.464-.174-.066-.521-.139-1.036-.223l-.96-.158c-.615-.103-1.064-.216-1.357-.341-.521-.213-.778-.508-.778-.887 0-.451.246-.814.739-1.092.492-.276 1.157-.414 1.991-.414 1.09 0 1.878.21 2.359.631.302.266.448.55.438.855h-1.152a.794.794 0 00-.292-.5c-.28-.21-.766-.313-1.458-.313-.459 0-.812.058-1.048.171-.236.117-.355.27-.355.456 0 .208.156.377.467.5.18.076.445.14.797.193l.802.132c.871.137 1.456.27 1.753.398.481.204.722.523.722.96 0 .42-.245.785-.734 1.094-.489.306-1.233.46-2.235.46-1.077 0-1.84-.16-2.287-.476-.45-.317-.689-.707-.721-1.17h1.155zm6.172-4.085h1.2v-.929h-1.2v.929zm0 5.57h1.2v-4.735h-1.2v4.735zm7.809-4.486c.51.26.816.71.917 1.353h-1.175a1.343 1.343 0 00-.494-.763c-.252-.204-.663-.304-1.225-.304-.772 0-1.323.251-1.656.755-.213.329-.32.736-.32 1.218 0 .48.151.89.454 1.22.307.33.784.498 1.44.498.501 0 .899-.1 1.191-.3.294-.201.496-.473.61-.813h1.175c-.134.619-.47 1.07-1.009 1.358-.537.283-1.226.427-2.062.427-.943 0-1.695-.226-2.255-.681-.559-.453-.839-1.022-.839-1.709 0-.834.309-1.486.92-1.95.617-.464 1.398-.698 2.348-.698.811 0 1.472.13 1.98.389zm2.383 3.534h1.413v.952h-1.413v-.952zm79.481-26.648c0-1.062.811-1.862 1.852-1.862 1.026 0 1.838.8 1.838 1.862 0 1.08-.812 1.876-1.838 1.876-1.042 0-1.852-.796-1.852-1.876zm1.851 2.25c1.24 0 2.297-.951 2.297-2.25C222 .95 220.943 0 219.703 0c-1.252 0-2.311.95-2.311 2.237 0 1.299 1.06 2.25 2.311 2.25zm-.482-2.072h.457l.693 1.12h.445l-.747-1.138c.385-.048.679-.25.679-.712 0-.51-.306-.736-.924-.736h-.999v2.587h.396V1.282h.542c.276 0 .57.06.57.38 0 .396-.302.42-.637.42h-.475v.333z" fill="#828282"/></svg>