<svg width="79" height="40" fill="none" xmlns="http://www.w3.org/2000/svg"><path opacity=".7" d="M64.548.126c-2.9.317-5.647 1.461-7.98 3.328-1.557 1.251-3.008 3.04-3.858 4.752-.262.528-.512 1.04-.563 1.144-.192.374-.59 1.741-.869 2.992-.154.691-.192 1.232-.202 2.74 0 1.849.108 2.82.436 3.847.057.183.146.49.184.673.116.537.685 1.97.967 2.404.047.076.126.23.173.337.048.106.203.355.339.559.135.201.252.383.252.415 0 .097 1.005 1.357 1.45 1.816 2.766 2.867 6.075 4.482 9.886 4.869 2.042.2 4.197-.048 6.22-.701 2.882-.943 5.783-3.174 7.631-5.877l.386-.557-.262-.21a8.499 8.499 0 00-.86-.588c-.338-.21-1.15-.732-1.817-1.163-.667-.433-1.479-.952-1.817-1.163-.338-.2-.746-.462-.91-.559l-.291-.182-.23.28c-.127.153-.222.317-.231.373 0 .183-1.103 1.317-1.732 1.798-.705.528-1.672 1.018-2.63 1.336-.83.28-3.112.308-4.004.047-1.712-.5-3.191-1.521-4.215-2.895-.86-1.153-1.24-2.058-1.498-3.617-.136-.817-.146-1.097-.048-1.713.057-.405.117-.817.136-.924.02-.182-.038-.191-1.239-.191h-1.257l-.076.672c-.098.896 0 2.76.183 3.366.483 1.644.891 2.52 1.634 3.558.878 1.241 2.108 2.395 3.103 2.932.203.116.563.308.784.434.572.308 1.962.77 2.835.924 1.333.251 3.084.135 4.399-.27 1.615-.5 3.346-1.453 4.332-2.386.253-.242.3-.252.563-.145.155.066.455.242.648.374.193.145.436.29.53.327.31.116.165.424-.492 1.05-1.15 1.087-2.844 2.096-4.421 2.624-1.306.453-1.859.538-3.761.597-2.032.057-2.591-.019-4.266-.569-1.944-.644-3.433-1.587-5.028-3.193-2.418-2.432-3.657-5.635-3.492-9.05.075-1.827.211-2.56.685-3.955.93-2.721 3.628-5.653 6.46-7.002 1.741-.826 3.22-1.203 5.116-1.279 1.963-.088 3.897.336 5.83 1.27 1.211.588 3.047 1.876 3.047 2.134 0 .088-1.374 1.181-1.488 1.181-.028 0-.32-.182-.657-.414-.93-.607-.939-.616-1.713-.98-1.413-.683-3.3-1.145-4.37-1.088l-.522.028-.076 1.087c-.048.598-.057 1.154-.029 1.232.038.098.212.135.6.135 1.132 0 2.971.579 3.995 1.26.765.5 1.45 1.126 1.906 1.723.202.27.446.48.54.48.231 0 5.59-4 5.59-4.173 0-.21-1.045-1.47-1.74-2.115C74.054 1.811 71.106.434 67.787.08c-1.14-.116-1.858-.107-3.239.047zM20.523.271l-1.615.047L18.5.7c-.727.701-1.943 1.876-3.666 3.548-1.53 1.471-5.716 5.522-7.805 7.54-.446.424-.803.808-.803.864 0 .076.85 1.078 1.16 1.367.028.029.638.673 1.352 1.443.705.77 1.818 1.952 2.465 2.646.655.685 1.438 1.534 1.748 1.88.32.345.686.741.822.873.55.57 1.276 1.345 2.224 2.395.55.607 1.45 1.578 1.991 2.165 1.21 1.299 1.489 1.635 1.489 1.77 0 .126-2.592.154-2.756.028-.057-.038-.53-.547-1.065-1.125a117.958 117.958 0 00-2.041-2.203c-.048-.057-.55-.607-1.103-1.213a73.795 73.795 0 00-1.249-1.358c-.262-.251-1.093-1.153-3.008-3.259-.61-.663-1.122-1.223-1.15-1.25-.038-.03-.427-.463-.88-.963-1.333-1.49-1.421-1.568-1.538-1.499-.076.048-.108.846-.108 2.684 0 5.318-.116 9.985-.262 10.117-.145.145-1.548.097-1.722-.066-.057-.057-.076-1.606-.057-4.337.019-2.338.066-7.782.098-12.09l.057-7.839 2.177-.047 2.178-.047.028-1.097C7.095.905 7.066.494 6.988.406 6.839.223.54.214.3.396.174.503.155 2.1.117 15.036L.09 29.558l.436.057c.793.116 6.074.107 6.286-.01.192-.097.192-.191.192-4.57 0-2.664.038-4.48.089-4.518.057-.029.695.606 1.431 1.404.737.808 1.53 1.663 1.77 1.905.23.242.86.915 1.394 1.499.521.578 1.403 1.53 1.943 2.115.54.578 1.132 1.232 1.315 1.443.174.21.455.5.61.644l.29.27h4.526c4.121 0 4.526-.01 4.526-.154 0-.163-.089-.27-1.45-1.77-.409-.452-.977-1.077-1.259-1.395-.745-.826-1.169-1.288-1.46-1.577-.136-.135-.89-.962-1.684-1.839-.793-.873-1.46-1.606-1.489-1.634a54.576 54.576 0 01-.869-.962 95.095 95.095 0 00-1.403-1.54 58.645 58.645 0 01-1.014-1.106c-.231-.27-.714-.789-1.065-1.153-1.366-1.434-3.492-3.8-3.492-3.894 0-.098.455-.56 2.281-2.307A3015.723 3015.723 0 0022.062.78c.338-.318.395-.472.202-.519-.066-.019-.85-.019-1.741.01zm11.19.144c-.83.145-1.16.261-2.041.692-1.596.779-2.97 2.26-3.587 3.875-.55 1.414-.676 3.174-.32 4.5.658 2.452 2.497 4.435 4.836 5.214 1.033.336 1.858.393 7.107.48 5.455.089 5.698.108 6.539.538 1.586.799 2.66 2.078 3.201 3.772.3.933.3 2.684 0 3.636-.705 2.212-2.544 3.884-4.652 4.233-.89.145-7.148.173-11.519.047l-2.177-.056v-2.021l5.173-.047 5.173-.047v-2.405l-6.238.02c-3.432.009-6.336.046-6.45.075l-.221.047v3.3c0 2.432.028 3.328.117 3.413.088.085 2.013.116 8.055.116 8.318 0 8.732-.019 9.914-.433 2.37-.846 4.352-2.886 5.088-5.243.281-.895.54-2.636.493-3.28-.272-3.32-2.06-6.06-4.807-7.368-1.539-.732-2.07-.788-8.125-.895-5.454-.088-5.533-.098-6.595-.626-1.384-.691-2.418-2.222-2.544-3.77-.174-2.088.727-3.82 2.465-4.762 1.21-.654 1.333-.663 8.22-.635l6.14.028.028.905c.02.579-.01.943-.088 1.028-.089.107-.6.135-2.709.135-2.465 0-2.6.01-2.698.182-.136.27-.127 1.962.019 2.106.088.088 1.112.116 4.013.116 3.751 0 3.897-.01 3.995-.182.145-.28.136-6.568-.02-6.722-.167-.167-14.827-.139-15.785.034zM2.39 31.557C1.324 32 .677 32.654.212 33.751c-.174.434-.212.71-.212 1.625-.01 1.587.263 2.366 1.15 3.29.794.799 2.08 1.223 3.338 1.088.562-.066 1.45-.384 1.567-.57.117-.163.089-2.25-.019-2.319-.057-.037-.319.076-.59.242-.658.425-1.518.5-2.146.202-.958-.462-1.353-1.531-.986-2.625.183-.528.625-.961 1.226-1.181.55-.202.84-.164 1.694.26.493.242.638.28.704.173.089-.144.01-1.904-.098-2.105-.259-.494-2.493-.667-3.45-.274zm7.225.022c-1.489.337-2.535 1.298-3.009 2.76-.426 1.335-.088 2.866.9 3.963.775.873 2.023 1.404 3.357 1.404.967 0 1.694-.191 2.399-.653 1.817-1.163 2.389-3.445 1.352-5.453-.107-.21-.436-.625-.736-.915-1.128-1.087-2.63-1.483-4.263-1.106zm1.848 1.98c.784.261 1.344 1.097 1.344 2.012 0 .691-.212 1.172-.737 1.624-.445.393-.705.49-1.305.49-1.343 0-2.291-1.24-2.032-2.646.215-1.144 1.549-1.863 2.73-1.48zm20.975-1.933c-1.375.192-2.534 1.107-3.23 2.55-.145.307-.183.606-.183 1.489 0 1.059.01 1.134.32 1.76.618 1.298 1.769 2.115 3.317 2.376a4.666 4.666 0 002.661-.355c.639-.28 1.663-1.26 1.906-1.817 1.033-2.376.066-4.896-2.225-5.789-.562-.223-1.801-.33-2.566-.214zm1.877 2.213c.455.27.714.588.879 1.05.3.836.126 1.675-.474 2.297-.54.569-1.315.742-2.206.5-.686-.192-1.334-1.182-1.334-2.04 0-.905.667-1.798 1.498-2.011.44-.113 1.309-.01 1.637.204zm-18.579-2.096c-.038.066-.088 1.797-.107 3.837-.029 3.155-.01 3.721.107 3.828.098.075.446.107 1.046.088l.91-.028.029-1.28c.019-.923.057-1.27.145-1.26.067 0 .446.5.84 1.116.396.616.803 1.204.901 1.298.136.145.33.173 1.23.173 1.277 0 1.343-.057.802-.76-.54-.702-1.605-2.125-1.722-2.289-.098-.144-.047-.2.582-.635.136-.097.366-.355.511-.568.231-.355.263-.481.263-1.232-.01-.896-.136-1.213-.695-1.77-.56-.556-.901-.635-2.92-.635-1.369 0-1.862.029-1.922.117zm3.27 1.892c.367.364.377.77.02 1.163-.221.229-.357.289-.727.307-.253.01-.493-.009-.53-.047-.099-.097-.165-1.163-.09-1.461.057-.22.108-.242.55-.242.418.003.535.05.778.28zm3.607-1.914c-.146.144-.048 7.618.098 7.712.183.126 1.75.088 1.877-.038.076-.075.117-.5.117-1.288 0-.98.028-1.182.155-1.232.088-.028.56-.057 1.065-.057.957 0 1.22-.075 1.836-.537.164-.126.407-.406.53-.635.184-.355.222-.56.222-1.377 0-1.087-.145-1.49-.736-2.03-.591-.547-.93-.616-3.104-.616-1.22.003-2 .041-2.06.098zm3.435 1.838c.117.107.253.308.31.443.202.538-.484 1.135-1.249 1.069l-.357-.028-.028-.846-.029-.836h.572c.43-.003.607.044.781.198zm13.112-1.838l-.774.047-.057 1.345c-.038.742-.067 2.451-.076 3.809-.01 2.011.019 2.492.126 2.577.089.075.455.107 1.034.088l.91-.028.047-1.242c.029-.741.089-1.26.146-1.279.056-.019.426.472.821 1.078.395.616.775 1.191.84 1.28.09.135.32.172 1.24.21.783.028 1.16.01 1.22-.057.066-.075-.272-.597-1.047-1.624l-1.13-1.522.29-.191a6.34 6.34 0 00.676-.597c.348-.337.417-.462.474-.943.193-1.53-.385-2.55-1.662-2.895-.6-.16-1.248-.17-3.078-.056zm2.38 1.876a.99.99 0 01.375.443c.117.27.108.346-.056.654-.155.289-.272.364-.686.48-.765.202-.803.164-.803-.845 0-.597.038-.873.127-.914.164-.066.733.028 1.042.182zm17.188-1.886c-.348.098-.367.261-.367 4.048 0 2.76.029 3.74.117 3.828.136.135 1.799.154 2.014.019.126-.075.145-.626.164-3.828.019-2.866 0-3.771-.098-3.884-.089-.117-.329-.164-.91-.192-.45-.02-.854-.01-.92.01zm5.521.145c-.831.28-1.422.635-1.858 1.106-.831.915-1.132 1.685-1.132 2.885 0 1.876 1.084 3.319 2.98 3.963.727.252 2.206.252 2.873.01 1.179-.425 2.032-1.163 2.525-2.194.31-.663.329-.742.329-1.75 0-1.28-.183-1.848-.86-2.684-1.106-1.355-3.135-1.911-4.857-1.336zm2.168 1.974c.455.21.84.578 1.074 1.04.203.415.203 1.47 0 1.885-.53 1.04-1.662 1.48-2.66 1.028-.92-.415-1.296-.98-1.287-1.97 0-.752.165-1.144.63-1.56.675-.609 1.497-.76 2.243-.423zm-18.494-1.974c-.098.116-.395.905-.59 1.55-.048.153-.244.722-.437 1.25a38.7 38.7 0 00-.436 1.25c-.038.155-.23.724-.436 1.252a24.181 24.181 0 00-.427 1.25 2.77 2.77 0 01-.183.5c-.164.299-.145.673.038.742.088.028.512.056.957.056.901 0 .996-.066 1.198-.836.057-.21.164-.443.243-.5.089-.075.582-.106 1.508-.087l1.375.028.192.578c.108.318.244.635.3.701.067.088.377.116 1.123.098.995-.029 1.023-.038 1.055-.261.019-.126-.038-.406-.126-.626-.098-.22-.222-.559-.3-.76-.076-.192-.193-.519-.272-.723-.076-.192-.272-.751-.446-1.223a25.934 25.934 0 00-.436-1.203 52.681 52.681 0 01-.727-2.166 4.982 4.982 0 00-.23-.653l-.156-.355h-1.343c-.998.003-1.355.034-1.444.138zm1.877 3.482c.193.597.329 1.135.291 1.191-.028.047-.386.098-.784.098-.581 0-.736-.029-.783-.154-.029-.088.075-.579.243-1.088.164-.509.329-1.018.357-1.144.104-.393.31-.066.676 1.097zm2.803-3.52c-.037.057-.066.374-.056.7 0 1.136-.067 1.029.647 1.029 1.113 0 1.034-.242.996 3.086-.038 2.483-.019 2.894.107 2.973.076.056.563.088 1.065.075l.92-.028.029-2.982c.018-2.232.047-2.992.145-3.049.057-.038.366-.075.667-.075.685 0 .85-.183.85-.943 0-.943.164-.886-2.756-.886-1.656.003-2.572.044-2.614.1zm18.194.126c-.164.125-.183.393-.23 3.865-.048 3.549-.039 3.74.126 3.866.243.164 1.694.173 1.915 0 .145-.097.164-.374.183-2.184.02-1.5.057-2.068.145-2.068.117 0 .386.327 2.225 2.721.62.808 1.198 1.51 1.296 1.569.202.107 1.732.116 1.887.01.075-.048.126-1.28.173-3.885.067-3.74.067-3.819-.126-3.916-.221-.126-1.741-.145-1.915-.029-.088.057-.126.617-.145 2.04-.02 1.345-.067 1.97-.136 1.99-.117.037-.348-.23-2.08-2.424-.59-.741-1.16-1.423-1.267-1.52-.253-.208-1.77-.236-2.051-.035z" fill="#828282"/></svg>