<svg width="79" height="40" viewBox="0 0 79 40" fill="none" xmlns="http://www.w3.org/2000/svg">
<path opacity="0.7" d="M64.5482 0.126039C61.6471 0.443463 58.9009 1.58744 56.5686 3.45427C55.0106 4.70511 53.56 6.49336 52.7099 8.20619C52.4476 8.73418 52.198 9.24646 52.1474 9.35017C51.9546 9.72417 51.5564 11.0913 51.2783 12.3421C51.1235 13.0335 51.0856 13.5741 51.0761 15.0826C51.0761 16.9306 51.1835 17.9017 51.5122 18.9294C51.5691 19.1117 51.6576 19.4197 51.6955 19.602C51.8124 20.1394 52.3813 21.5725 52.6625 22.0062C52.7099 22.0817 52.7889 22.2357 52.8363 22.3425C52.8837 22.4494 53.0386 22.6977 53.1745 22.9019C53.3104 23.1031 53.4273 23.2854 53.4273 23.3168C53.4273 23.4142 54.4323 24.6745 54.8779 25.1333C57.6431 27.9996 60.9518 29.615 64.7631 30.0015C66.8046 30.2027 68.9599 29.9544 70.9825 29.3007C73.8646 28.3579 76.7657 26.1265 78.6144 23.4237L79 22.8674L78.7377 22.6568C78.6018 22.5405 78.2163 22.2734 77.8781 22.0691C77.54 21.8585 76.7278 21.3368 76.061 20.9063C75.3942 20.4726 74.582 19.954 74.2438 19.7434C73.9057 19.5423 73.498 19.2814 73.3337 19.184L73.0429 19.0017L72.8122 19.2814C72.6858 19.4354 72.591 19.5989 72.5815 19.6554C72.5815 19.8377 71.4786 20.9723 70.8497 21.4531C70.145 21.9811 69.178 22.4714 68.2204 22.7888C67.3893 23.0685 65.1076 23.0968 64.2164 22.8359C62.5035 22.3362 61.0245 21.3148 60.0006 19.9414C59.141 18.788 58.7618 17.8829 58.5027 16.3241C58.3668 15.5069 58.3573 15.2272 58.4553 14.6112C58.5121 14.2058 58.5722 13.7941 58.5911 13.6872C58.6101 13.505 58.5532 13.4955 57.3523 13.4955H56.0946L56.0187 14.1681C55.9207 15.0638 56.0187 16.9275 56.202 17.534C56.6855 19.1777 57.0932 20.0546 57.8358 21.0917C58.7144 22.3331 59.9437 23.4865 60.9392 24.0239C61.1415 24.1402 61.5017 24.3319 61.7229 24.4576C62.295 24.7656 63.6855 25.2276 64.5577 25.3816C65.8913 25.633 67.6421 25.5168 68.9567 25.1113C70.5716 24.6116 72.3034 23.6594 73.2894 22.7259C73.5423 22.484 73.5897 22.4745 73.852 22.5814C74.0068 22.6474 74.307 22.8234 74.4998 22.9554C74.6926 23.0999 74.9359 23.2445 75.0307 23.2822C75.3404 23.3985 75.1951 23.7065 74.5377 24.3319C73.3874 25.4193 71.6935 26.4282 70.1166 26.9562C68.8114 27.4087 68.2583 27.4936 66.3559 27.5533C64.3238 27.6099 63.7645 27.5344 62.0895 26.9844C60.146 26.3402 58.6575 25.3973 57.0616 23.7914C54.644 21.3588 53.4052 18.1563 53.5695 14.7401C53.6454 12.9141 53.7813 12.1818 54.2553 10.7864C55.1844 8.06477 57.8833 5.13253 60.7148 3.78426C62.4561 2.95771 63.9351 2.58057 65.8313 2.50514C67.7938 2.41714 69.7278 2.84142 71.6619 3.77484C72.8723 4.36254 74.7084 5.65109 74.7084 5.9088C74.7084 5.9968 73.3337 7.0905 73.2199 7.0905C73.1915 7.0905 72.9007 6.90821 72.5626 6.67564C71.6335 6.06908 71.624 6.05966 70.8497 5.69509C69.4371 5.0131 67.5504 4.55111 66.4791 4.60768L65.9577 4.63596L65.8818 5.72338C65.8344 6.32051 65.8249 6.87678 65.8534 6.95535C65.8913 7.05278 66.0651 7.0905 66.4538 7.0905C67.5852 7.0905 69.4245 7.66877 70.4484 8.35076C71.2132 8.85047 71.8989 9.47588 72.354 10.073C72.5563 10.3433 72.7996 10.5539 72.8944 10.5539C73.1251 10.5539 78.4849 6.55308 78.4849 6.38022C78.4849 6.16965 77.4388 4.90939 76.7436 4.26511C74.0542 1.81058 71.1057 0.434034 67.7875 0.0788972C66.6466 -0.0373866 65.9292 -0.0279582 64.5482 0.126039V0.126039ZM20.5229 0.270608L18.908 0.31775L18.5003 0.701173C17.7734 1.40202 16.5568 2.57743 14.8344 4.2494C13.3049 5.72023 9.11754 9.77131 7.02862 11.789C6.58302 12.2133 6.22592 12.5967 6.22592 12.6533C6.22592 12.7287 7.07602 13.7312 7.38573 14.0204C7.41417 14.0487 8.0241 14.6929 8.73831 15.4629C9.44304 16.2329 10.5555 17.4146 11.2033 18.1092C11.8575 18.7943 12.6412 19.6429 12.9509 19.9886C13.2701 20.3343 13.6367 20.7303 13.7726 20.8623C14.3225 21.4311 15.0493 22.2074 15.9974 23.2571C16.5473 23.8636 17.4479 24.8348 17.9883 25.4225C19.1987 26.7205 19.4768 27.0567 19.4768 27.1919C19.4768 27.3176 16.8854 27.3459 16.7211 27.2202C16.6642 27.1824 16.1902 26.6733 15.6561 26.095C14.8534 25.2088 14.3793 24.6996 13.6146 23.8919C13.5672 23.8354 13.0647 23.2854 12.5116 22.6788C11.9618 22.0722 11.3992 21.4563 11.2633 21.3211C11.001 21.0697 10.1699 20.1677 8.25479 18.062C7.64487 17.3989 7.13291 16.8395 7.10446 16.8112C7.06654 16.7829 6.67783 16.3492 6.22592 15.8495C4.89229 14.3598 4.80381 14.2812 4.68688 14.3504C4.61103 14.3975 4.57943 15.1958 4.57943 17.0343C4.57943 22.352 4.4625 27.019 4.31713 27.151C4.17176 27.2956 2.76861 27.2484 2.5948 27.085C2.53791 27.0284 2.51895 25.479 2.53791 22.7479C2.55687 20.4097 2.60428 14.9664 2.63588 10.6576L2.69277 2.81942L4.87017 2.77228L7.04758 2.72514L7.07602 1.6283C7.09498 0.905455 7.06654 0.493747 6.98754 0.405749C6.839 0.223466 0.54064 0.214038 0.300461 0.396321C0.174051 0.503176 0.15509 2.09972 0.117167 15.0355L0.0887249 29.5584L0.524838 29.615C1.31806 29.7313 6.59883 29.7218 6.81056 29.6055C7.00334 29.5081 7.00334 29.4138 7.00334 25.0359C7.00334 22.3708 7.04126 20.5543 7.09182 20.5166C7.14871 20.4883 7.78708 21.1231 8.52341 21.9214C9.25975 22.7291 10.053 23.5839 10.2932 23.8259C10.5238 24.0679 11.1527 24.7405 11.6868 25.325C12.2083 25.9033 13.09 26.8556 13.6304 27.4402C14.1708 28.0184 14.7617 28.6721 14.945 28.8827C15.1188 29.0933 15.4001 29.3824 15.555 29.527L15.8457 29.7973H20.3712C24.4921 29.7973 24.8966 29.7878 24.8966 29.6433C24.8966 29.4798 24.8081 29.373 23.4461 27.8739C23.0384 27.4213 22.4696 26.7959 22.1883 26.4785C21.4425 25.6519 21.019 25.1899 20.7283 24.9008C20.5924 24.7656 19.8371 23.9391 19.0439 23.0622C18.2506 22.1885 17.5838 21.4563 17.5554 21.428C17.5269 21.3997 17.1288 20.966 16.6863 20.4663C16.2407 19.9666 15.6118 19.2751 15.2832 18.9263C14.9545 18.5774 14.4994 18.0809 14.2687 17.82C14.038 17.5497 13.5545 17.0312 13.2037 16.6666C11.8385 15.2335 9.71166 12.867 9.71166 12.7727C9.71166 12.6753 10.1667 12.2133 11.9934 10.4659C13.3965 9.13018 17.8335 4.8591 20.0994 2.67485C21.0095 1.80115 21.8881 0.952597 22.0619 0.779743C22.4 0.462319 22.4569 0.308322 22.2641 0.26118C22.1978 0.242323 21.414 0.242323 20.5229 0.270608V0.270608ZM31.7133 0.415177C30.8821 0.559746 30.5535 0.67603 29.6718 1.10659C28.0758 1.88601 26.7011 3.36627 26.0849 4.98167C25.535 6.39594 25.4086 8.15591 25.7657 9.48217C26.423 11.9336 28.2623 13.9167 30.6009 14.6961C31.6343 15.0324 32.4591 15.0889 37.7083 15.1769C43.1628 15.2649 43.4062 15.2838 44.2468 15.7144C45.8332 16.5126 46.9077 17.7917 47.4481 19.4857C47.7484 20.4191 47.7484 22.1697 47.4481 23.1219C46.7434 25.3345 44.9041 27.0065 42.7962 27.3553C41.9051 27.4999 35.6478 27.5282 31.2772 27.4024L29.0998 27.3459V25.325L34.2731 25.2779L39.4464 25.2308V22.8265L33.2081 22.8454C29.7761 22.8548 26.8718 22.8925 26.758 22.9208L26.5368 22.9679V26.2679C26.5368 28.7004 26.5652 29.5961 26.6537 29.681C26.7422 29.7658 28.6668 29.7973 34.7092 29.7973C43.027 29.7973 43.4409 29.7784 44.6229 29.3636C46.9931 28.5181 48.9745 26.4785 49.7109 24.1214C49.9921 23.2257 50.2513 21.4845 50.2039 20.8403C49.9321 17.5215 48.1434 14.7809 45.3971 13.4735C43.8581 12.7413 43.3272 12.6847 37.2721 12.5778C31.8176 12.4898 31.7386 12.4804 30.6767 11.9524C29.2925 11.261 28.2591 9.73045 28.1327 8.18105C27.9589 6.09423 28.8596 4.36254 30.5977 3.4197C31.8081 2.766 31.9313 2.75657 38.8175 2.78485L44.9579 2.81314L44.9863 3.71827C45.0053 4.29654 44.9768 4.66111 44.8978 4.74596C44.8093 4.85282 44.2974 4.8811 42.1895 4.8811C39.7245 4.8811 39.5886 4.89053 39.4906 5.06339C39.3547 5.33367 39.3642 7.0245 39.5096 7.16907C39.5981 7.25706 40.622 7.28535 43.5231 7.28535C47.2743 7.28535 47.4197 7.27592 47.5177 7.10307C47.663 6.82336 47.6535 0.534604 47.4987 0.380606C47.3312 0.214038 32.6708 0.242323 31.7133 0.415177V0.415177ZM2.38938 31.5572C1.32438 32.0004 0.67653 32.6541 0.211974 33.7509C0.038161 34.1846 0.000238101 34.4612 0.000238101 35.3757C-0.00924263 36.9629 0.262538 37.7423 1.15057 38.6663C1.94379 39.4645 3.23001 39.8888 4.48778 39.7537C5.05031 39.6877 5.93834 39.3702 6.05526 39.1848C6.17219 39.0214 6.14375 36.9346 6.0363 36.8654C5.97942 36.8277 5.71712 36.9409 5.44534 37.1074C4.78801 37.5317 3.92842 37.6071 3.29953 37.3086C2.34198 36.8466 1.94695 35.778 2.31354 34.6843C2.49683 34.1563 2.93926 33.7226 3.53971 33.5026C4.08959 33.3015 4.38034 33.3392 5.2336 33.7635C5.7266 34.0055 5.87197 34.0432 5.93833 33.9363C6.02682 33.7918 5.94782 32.0318 5.84037 31.8307C5.58123 31.3372 3.34694 31.1644 2.38938 31.5572V31.5572ZM9.6137 31.5792C8.12522 31.9155 7.07918 32.8772 6.60515 34.3386C6.17851 35.6743 6.51666 37.2049 7.50582 38.3017C8.28008 39.1754 9.52837 39.7065 10.862 39.7065C11.829 39.7065 12.5559 39.5148 13.2606 39.0528C15.0778 37.89 15.6498 35.6083 14.6132 33.6001C14.5058 33.3895 14.1771 32.9746 13.8769 32.6855C12.7487 31.5981 11.2475 31.2021 9.6137 31.5792V31.5792ZM11.4624 33.5592C12.2462 33.8201 12.8055 34.656 12.8055 35.5706C12.8055 36.262 12.5938 36.7429 12.0692 37.1954C11.6236 37.5883 11.3645 37.6857 10.764 37.6857C9.42092 37.6857 8.47285 36.4443 8.73199 35.0395C8.94689 33.8955 10.2805 33.1758 11.4624 33.5592ZM32.437 31.6264C31.0623 31.8181 29.9025 32.7326 29.2072 34.1752C29.0618 34.4832 29.0239 34.7818 29.0239 35.6649C29.0239 36.724 29.0334 36.7994 29.3431 37.4248C29.9625 38.7228 31.1128 39.54 32.6614 39.8008C33.5525 39.9454 34.45 39.8291 35.3223 39.4457C35.9606 39.166 36.9846 38.1854 37.2279 37.6291C38.2613 35.2532 37.2943 32.7326 35.0031 31.8401C34.4406 31.6169 33.2018 31.5101 32.437 31.6264V31.6264ZM34.3142 33.8389C34.7692 34.1092 35.0284 34.4266 35.1927 34.8886C35.4929 35.7246 35.3191 36.5637 34.7187 37.186C34.1783 37.7548 33.404 37.9277 32.5128 37.6857C31.827 37.494 31.1792 36.504 31.1792 35.646C31.1792 34.7409 31.846 33.8483 32.6772 33.6346C33.1164 33.5215 33.9855 33.6252 34.3142 33.8389ZM15.7351 31.7427C15.6972 31.8087 15.6466 33.5403 15.6276 35.58C15.5992 38.7354 15.6182 39.3011 15.7351 39.408C15.8331 39.4834 16.1807 39.5148 16.7811 39.496L17.6913 39.4677L17.7197 38.1885C17.7387 37.2646 17.7766 36.9189 17.8651 36.9283C17.9315 36.9283 18.3107 37.428 18.7057 38.044C19.1007 38.66 19.5084 39.2477 19.6064 39.342C19.7423 39.4865 19.9351 39.5148 20.8357 39.5148C22.1125 39.5148 22.1788 39.4582 21.6384 38.7543C21.098 38.0534 20.033 36.6297 19.9161 36.4663C19.8181 36.3217 19.8687 36.2652 20.4976 35.8314C20.6335 35.734 20.8642 35.4763 21.0095 35.2626C21.2402 34.9075 21.2718 34.7818 21.2718 34.0306C21.2624 33.1349 21.1359 32.8175 20.5766 32.2612C20.0172 31.7049 19.6759 31.6264 17.6565 31.6264C16.2881 31.6264 15.7951 31.6547 15.7351 31.7427V31.7427ZM19.0059 33.6346C19.3725 33.9992 19.382 34.4046 19.0249 34.7975C18.8037 35.0269 18.6678 35.0866 18.298 35.1055C18.0452 35.1149 17.805 35.096 17.7671 35.0583C17.6692 34.9609 17.6028 33.8955 17.6786 33.5969C17.7355 33.3769 17.7861 33.3549 18.2285 33.3549C18.6457 33.3581 18.7626 33.4052 19.0059 33.6346V33.6346ZM22.6118 31.7207C22.4664 31.8652 22.5644 39.3388 22.7097 39.4331C22.893 39.5588 24.4605 39.5211 24.5869 39.3954C24.6628 39.32 24.7039 38.8957 24.7039 38.1068C24.7039 37.1263 24.7323 36.9251 24.8587 36.8749C24.9472 36.8466 25.4181 36.8183 25.9237 36.8183C26.8813 36.8183 27.1436 36.7429 27.7598 36.2809C27.9241 36.1552 28.1675 35.8754 28.2907 35.646C28.474 35.2909 28.512 35.0866 28.512 34.2695C28.512 33.1821 28.3666 32.7798 27.7756 32.2392C27.1846 31.6924 26.8465 31.6232 24.6723 31.6232C23.4524 31.6264 22.6718 31.6641 22.6118 31.7207V31.7207ZM26.047 33.5592C26.1639 33.6661 26.2998 33.8672 26.3567 34.0023C26.5589 34.5398 25.8731 35.1369 25.1084 35.0709L24.7513 35.0426L24.7228 34.1972L24.6944 33.3612H25.2664C25.6962 33.3581 25.8731 33.4052 26.047 33.5592V33.5592ZM39.1588 31.7207L38.3846 31.7678L38.3277 33.1129C38.2897 33.8546 38.2613 35.5643 38.2518 36.922C38.2423 38.9334 38.2708 39.4142 38.3782 39.4991C38.4667 39.5745 38.8333 39.606 39.4116 39.5871L40.3218 39.5588L40.3692 38.3174C40.3976 37.5757 40.4577 37.0571 40.5146 37.0383C40.5714 37.0194 40.9412 37.5097 41.3362 38.1163C41.7312 38.7323 42.1105 39.3074 42.1768 39.3954C42.2653 39.5305 42.496 39.5682 43.4157 39.606C44.1994 39.6342 44.5755 39.6154 44.6355 39.5494C44.7019 39.474 44.3637 38.9523 43.5895 37.9246L42.4581 36.4034L42.7488 36.2117C42.9037 36.0954 43.2134 35.8377 43.4251 35.6146C43.7728 35.2783 43.8423 35.1526 43.8992 34.6717C44.092 33.1412 43.5136 32.1229 42.2369 31.7772C41.6364 31.6169 40.9886 31.6075 39.1588 31.7207V31.7207ZM41.5385 33.5969C41.6744 33.6723 41.8482 33.8672 41.9145 34.04C42.0315 34.3103 42.022 34.3858 41.8577 34.6938C41.7028 34.9829 41.5859 35.0583 41.1719 35.1746C40.4071 35.3757 40.3692 35.338 40.3692 34.3292C40.3692 33.7321 40.4071 33.4555 40.4956 33.4146C40.6599 33.3486 41.2288 33.4429 41.5385 33.5969V33.5969ZM58.727 31.7112C58.3794 31.8087 58.3604 31.9721 58.3604 35.7592C58.3604 38.5185 58.3889 39.4991 58.4774 39.5871C58.6133 39.7222 60.2756 39.7411 60.4905 39.606C60.6169 39.5305 60.6358 38.9805 60.6548 35.778C60.6737 32.9118 60.6548 32.0067 60.5568 31.8935C60.4683 31.7772 60.2282 31.7301 59.6467 31.7018C59.1979 31.6829 58.7934 31.6924 58.727 31.7112V31.7112ZM64.248 31.8558C63.4168 32.1355 62.8259 32.4906 62.3898 32.9621C61.5586 33.8766 61.2584 34.6466 61.2584 35.8472C61.2584 37.7234 62.3424 39.166 64.2385 39.8102C64.9654 40.0617 66.4444 40.0617 67.1112 39.8197C68.2899 39.3954 69.1432 38.6568 69.6362 37.626C69.9459 36.9629 69.9649 36.8843 69.9649 35.8754C69.9649 34.5963 69.7816 34.0275 69.1053 33.1915C67.9992 31.8369 65.9703 31.2807 64.248 31.8558V31.8558ZM66.4159 33.8295C66.871 34.04 67.2565 34.4078 67.4904 34.8697C67.6926 35.2846 67.6926 36.3406 67.4904 36.7554C66.9595 37.7957 65.8281 38.2357 64.8295 37.7831C63.9098 37.3683 63.5338 36.8026 63.5432 35.8126C63.5432 35.0615 63.7076 34.6686 64.1721 34.2538C64.8484 33.6441 65.6701 33.4932 66.4159 33.8295ZM47.9222 31.8558C47.8242 31.9721 47.5271 32.7609 47.3312 33.4052C47.2838 33.5592 47.0879 34.128 46.8951 34.656C46.7023 35.184 46.5095 35.7434 46.459 35.9069C46.421 36.0609 46.2283 36.6297 46.0229 37.1577C45.8301 37.6857 45.6373 38.2545 45.5962 38.4085C45.5583 38.572 45.4698 38.792 45.4129 38.9083C45.2486 39.2068 45.2676 39.5808 45.4509 39.65C45.5393 39.6782 45.9628 39.7065 46.4084 39.7065C47.3091 39.7065 47.4039 39.6405 47.6061 38.8705C47.663 38.66 47.7705 38.4274 47.8495 38.3708C47.938 38.2954 48.431 38.264 49.3569 38.2828L50.7316 38.3111L50.9244 38.8894C51.0318 39.2068 51.1677 39.5242 51.2246 39.5902C51.291 39.6782 51.6007 39.7065 52.3465 39.6877C53.342 39.6594 53.3704 39.65 53.402 39.4268C53.421 39.3011 53.3641 39.0214 53.2756 38.8014C53.1777 38.5814 53.0544 38.242 52.9754 38.0408C52.8996 37.8491 52.7826 37.5223 52.7036 37.318C52.6278 37.1263 52.4318 36.5669 52.258 36.0954C52.0937 35.6146 51.9009 35.0772 51.8219 34.8917C51.6481 34.4203 51.193 33.0752 51.0951 32.7264C51.0571 32.5629 50.9497 32.2738 50.8644 32.0727L50.7095 31.7175H49.3664C48.3678 31.7207 48.0107 31.7521 47.9222 31.8558V31.8558ZM49.7994 35.338C49.9921 35.9352 50.128 36.4726 50.0901 36.5292C50.0617 36.5763 49.7045 36.6266 49.3064 36.6266C48.7249 36.6266 48.57 36.5983 48.5226 36.4726C48.4942 36.3846 48.5985 35.8943 48.7659 35.3852C48.9303 34.876 49.0946 34.3669 49.1231 34.2412C49.2273 33.8483 49.4328 34.1752 49.7994 35.338V35.338ZM52.6025 31.8181C52.5646 31.8747 52.5361 32.1921 52.5456 32.5189C52.5456 33.6535 52.4792 33.5466 53.1934 33.5466C54.3059 33.5466 54.2268 33.3046 54.1889 36.6329C54.151 39.1157 54.17 39.5274 54.2964 39.606C54.3722 39.6625 54.8589 39.694 55.3614 39.6814L56.281 39.6531L56.3095 36.6706C56.3284 34.4392 56.3569 33.6786 56.4548 33.6221C56.5117 33.5843 56.8214 33.5466 57.1216 33.5466C57.8074 33.5466 57.9717 33.3643 57.9717 32.6038C57.9717 31.6609 58.1361 31.7175 55.216 31.7175C53.56 31.7207 52.6436 31.7615 52.6025 31.8181V31.8181ZM70.796 31.9438C70.6317 32.0695 70.6127 32.3366 70.5653 35.8094C70.5179 39.3577 70.5274 39.5494 70.6917 39.6751C70.9351 39.8385 72.3856 39.848 72.6068 39.6751C72.7522 39.5777 72.7712 39.3011 72.7901 37.4908C72.8091 35.9917 72.847 35.4229 72.9355 35.4229C73.0524 35.4229 73.321 35.7497 75.1603 38.1445C75.7797 38.9523 76.358 39.6531 76.456 39.7128C76.6583 39.8197 78.1878 39.8291 78.3427 39.7222C78.4185 39.6751 78.4691 38.4431 78.5165 35.8377C78.5828 32.0978 78.5828 32.0192 78.3901 31.9218C78.1689 31.7961 76.6488 31.7772 76.475 31.8935C76.3865 31.9501 76.3486 32.5095 76.3296 33.9332C76.3106 35.2783 76.2632 35.9037 76.1937 35.9226C76.0768 35.9603 75.8461 35.6932 74.1143 33.4995C73.5233 32.7578 72.9545 32.0758 72.847 31.9784C72.5942 31.7709 71.0773 31.7427 70.796 31.9438V31.9438Z" fill="#828282"/>
</svg>
