<svg width="115" height="50" viewBox="0 0 115 50" fill="none" xmlns="http://www.w3.org/2000/svg">
<circle cx="13.5" cy="36.5" r="13.5" fill="#D2372E"/>
<circle cx="33.5" cy="26.5" r="23.5" fill="#FFC75F"/>
<circle cx="18" cy="9" r="9" fill="#6193CB"/>
<path d="M34.982 36.312C33.9767 36.312 32.9367 36.1473 31.862 35.818C30.9607 36.0433 30.172 36.156 29.496 36.156C28.8373 36.156 28.3867 36.1387 28.144 36.104C28.2653 35.0813 28.7853 32.49 29.704 28.33C30.64 24.1527 31.108 21.7867 31.108 21.232C31.108 20.66 30.9867 20.166 30.744 19.75C30.5187 19.334 30.2933 19.0307 30.068 18.84L29.704 18.554L29.782 18.164C30.2327 18.0427 31.1513 17.9127 32.538 17.774C33.942 17.618 35.164 17.54 36.204 17.54C38.6133 17.54 40.4333 18.0773 41.664 19.152C42.912 20.2093 43.536 21.934 43.536 24.326C43.536 26.2847 43.2067 28.1653 42.548 29.968C41.9067 31.7533 40.9187 33.2613 39.584 34.492C38.2493 35.7053 36.7153 36.312 34.982 36.312ZM36.828 19.178C36.3773 19.178 35.866 19.23 35.294 19.334C35.1207 21.1713 34.6267 23.858 33.812 27.394C33.0147 30.9127 32.5467 33.1573 32.408 34.128C32.824 34.336 33.396 34.44 34.124 34.44C34.852 34.44 35.5367 34.154 36.178 33.582C36.8367 32.9927 37.3653 32.2647 37.764 31.398C38.1627 30.5313 38.5093 29.5607 38.804 28.486C39.3067 26.562 39.558 24.8113 39.558 23.234C39.558 21.6567 39.35 20.5907 38.934 20.036C38.518 19.464 37.816 19.178 36.828 19.178ZM45.1123 31.502C45.1123 29.3353 45.7623 27.628 47.0623 26.38C48.3796 25.1147 49.8703 24.482 51.5343 24.482C52.5569 24.482 53.3976 24.7333 54.0563 25.236C54.7149 25.7387 55.0443 26.4147 55.0443 27.264C55.0443 28.096 54.8276 28.798 54.3943 29.37C53.9783 29.942 53.4669 30.384 52.8603 30.696C51.6296 31.3027 50.5029 31.684 49.4803 31.84L48.8563 31.918C48.9776 33.5473 49.6449 34.362 50.8583 34.362C51.2743 34.362 51.7163 34.258 52.1843 34.05C52.6523 33.842 53.0163 33.634 53.2763 33.426L53.6663 33.114L54.2903 33.946C54.1516 34.1367 53.8743 34.388 53.4583 34.7C53.0423 35.012 52.6523 35.272 52.2883 35.48C51.2829 36.0347 50.1823 36.312 48.9863 36.312C47.7903 36.312 46.8456 35.8873 46.1523 35.038C45.4589 34.1887 45.1123 33.01 45.1123 31.502ZM48.8303 30.644C49.7143 30.488 50.4163 30.1153 50.9363 29.526C51.4563 28.9367 51.7163 28.174 51.7163 27.238C51.7163 26.302 51.4389 25.834 50.8843 25.834C50.2256 25.834 49.7143 26.3973 49.3503 27.524C49.0036 28.6333 48.8303 29.6733 48.8303 30.644ZM64.6689 32.594C64.6689 33.686 64.1836 34.5787 63.2129 35.272C62.2596 35.9653 61.1676 36.312 59.9369 36.312C58.7063 36.312 57.7269 36.052 56.9989 35.532C56.2883 35.012 55.9329 34.5527 55.9329 34.154C55.9329 33.9113 56.2363 33.5213 56.8429 32.984C57.4496 32.4293 57.9609 32.0913 58.3769 31.97C59.2436 32.6113 59.9543 33.6253 60.5089 35.012C61.1503 34.96 61.4709 34.6567 61.4709 34.102C61.4709 33.3047 60.7689 32.178 59.3649 30.722C57.9609 29.2487 57.2589 28.0787 57.2589 27.212C57.2589 26.3453 57.6489 25.678 58.4289 25.21C59.2089 24.7247 60.1449 24.482 61.2369 24.482C62.3463 24.482 63.1783 24.6813 63.7329 25.08C64.2876 25.4613 64.5649 25.99 64.5649 26.666C64.5649 27.3247 64.0363 28.2433 62.9789 29.422C63.1003 29.5433 63.2563 29.708 63.4469 29.916C63.6376 30.1067 63.8889 30.4793 64.2009 31.034C64.5129 31.5887 64.6689 32.1087 64.6689 32.594ZM62.1729 28.512C62.9009 27.888 63.2649 27.2727 63.2649 26.666C63.2649 26.0593 62.8489 25.756 62.0169 25.756C61.6183 25.756 61.2889 25.8427 61.0289 26.016C60.7689 26.172 60.6389 26.354 60.6389 26.562C60.6389 26.9433 61.0203 27.4807 61.7829 28.174L62.1729 28.512ZM69.9331 38.808C69.3611 39.1547 69.0751 39.4927 69.0751 39.822C69.0751 40.1513 69.2571 40.316 69.6211 40.316C70.0024 40.316 70.4271 40.134 70.8951 39.77C71.3631 39.4233 71.7531 38.8513 72.0651 38.054C71.2331 38.21 70.5224 38.4613 69.9331 38.808ZM77.6551 24.664C77.7244 24.7333 77.7591 24.8893 77.7591 25.132C77.7591 25.3573 77.7418 25.6087 77.7071 25.886C77.6724 26.146 77.6118 26.744 77.5251 27.68C77.4384 28.616 77.3518 29.4307 77.2651 30.124C76.3811 37.924 74.0064 41.824 70.1411 41.824C69.5171 41.824 68.9451 41.6593 68.4251 41.33C67.9224 41.0007 67.6711 40.576 67.6711 40.056C67.6711 39.3627 68.0958 38.73 68.9451 38.158C69.7944 37.586 70.9384 37.144 72.3771 36.832C72.3771 36.8147 72.4291 36.572 72.5331 36.104C72.6371 35.636 72.7064 35.2547 72.7411 34.96C71.7011 35.7227 70.7218 36.104 69.8031 36.104C68.9018 36.104 68.1564 35.7487 67.5671 35.038C66.9951 34.3273 66.7091 33.192 66.7091 31.632C66.7091 29.5867 67.1684 27.888 68.0871 26.536C69.0058 25.1667 70.2191 24.482 71.7271 24.482C72.5764 24.482 73.4171 24.69 74.2491 25.106C75.1331 24.794 76.0864 24.638 77.1091 24.638L77.6551 24.664ZM72.8971 26.016C72.1518 26.016 71.5624 26.6227 71.1291 27.836C70.6958 29.032 70.4791 30.3667 70.4791 31.84C70.4791 33.296 70.8084 34.024 71.4671 34.024C71.9004 34.024 72.4118 33.8593 73.0011 33.53C73.4864 30.618 73.8331 28.2173 74.0411 26.328C73.5558 26.12 73.1744 26.016 72.8971 26.016ZM80.1743 36.078H79.6803C79.6803 35.2633 79.9229 33.7033 80.4083 31.398C80.9109 29.0927 81.1623 27.784 81.1623 27.472C81.1623 26.9 80.9196 26.2933 80.4343 25.652L80.2003 25.34L80.2263 25.002C81.1623 24.742 82.6616 24.612 84.7243 24.612C84.9496 24.9067 85.0709 25.444 85.0883 26.224C86.5963 25.0627 87.8703 24.482 88.9103 24.482C89.5343 24.482 90.0283 24.6987 90.3923 25.132C90.7736 25.5653 90.9643 26.1113 90.9643 26.77C90.9643 27.4113 90.7649 28.5293 90.3663 30.124C89.9676 31.7187 89.7683 32.7933 89.7683 33.348C89.7683 33.8853 89.8376 34.154 89.9763 34.154C90.0803 34.154 90.4443 33.9893 91.0683 33.66L91.3803 33.504L91.8483 34.414C91.6923 34.5527 91.4843 34.726 91.2243 34.934C90.9643 35.142 90.4789 35.428 89.7683 35.792C89.0749 36.1387 88.4509 36.312 87.8963 36.312C86.6309 36.312 85.9983 35.5927 85.9983 34.154C85.9983 33.5473 86.1889 32.4293 86.5703 30.8C86.9689 29.1707 87.1683 28.122 87.1683 27.654C87.1683 27.186 87.0209 26.952 86.7263 26.952C86.2236 26.952 85.6083 27.1687 84.8803 27.602C84.8283 27.8967 84.6549 28.6767 84.3603 29.942C83.7536 32.6633 83.4503 34.5873 83.4503 35.714C82.8436 35.9567 81.7516 36.078 80.1743 36.078ZM93.3514 31.502C93.3514 29.3353 94.0014 27.628 95.3014 26.38C96.6187 25.1147 98.1094 24.482 99.7734 24.482C100.796 24.482 101.637 24.7333 102.295 25.236C102.954 25.7387 103.283 26.4147 103.283 27.264C103.283 28.096 103.067 28.798 102.633 29.37C102.217 29.942 101.706 30.384 101.099 30.696C99.8687 31.3027 98.7421 31.684 97.7194 31.84L97.0954 31.918C97.2167 33.5473 97.8841 34.362 99.0974 34.362C99.5134 34.362 99.9554 34.258 100.423 34.05C100.891 33.842 101.255 33.634 101.515 33.426L101.905 33.114L102.529 33.946C102.391 34.1367 102.113 34.388 101.697 34.7C101.281 35.012 100.891 35.272 100.527 35.48C99.5221 36.0347 98.4214 36.312 97.2254 36.312C96.0294 36.312 95.0847 35.8873 94.3914 35.038C93.6981 34.1887 93.3514 33.01 93.3514 31.502ZM97.0694 30.644C97.9534 30.488 98.6554 30.1153 99.1754 29.526C99.6954 28.9367 99.9554 28.174 99.9554 27.238C99.9554 26.302 99.6781 25.834 99.1234 25.834C98.4647 25.834 97.9534 26.3973 97.5894 27.524C97.2427 28.6333 97.0694 29.6733 97.0694 30.644ZM104.516 31.502C104.516 29.3353 105.166 27.628 106.466 26.38C107.783 25.1147 109.274 24.482 110.938 24.482C111.961 24.482 112.801 24.7333 113.46 25.236C114.119 25.7387 114.448 26.4147 114.448 27.264C114.448 28.096 114.231 28.798 113.798 29.37C113.382 29.942 112.871 30.384 112.264 30.696C111.033 31.3027 109.907 31.684 108.884 31.84L108.26 31.918C108.381 33.5473 109.049 34.362 110.262 34.362C110.678 34.362 111.12 34.258 111.588 34.05C112.056 33.842 112.42 33.634 112.68 33.426L113.07 33.114L113.694 33.946C113.555 34.1367 113.278 34.388 112.862 34.7C112.446 35.012 112.056 35.272 111.692 35.48C110.687 36.0347 109.586 36.312 108.39 36.312C107.194 36.312 106.249 35.8873 105.556 35.038C104.863 34.1887 104.516 33.01 104.516 31.502ZM108.234 30.644C109.118 30.488 109.82 30.1153 110.34 29.526C110.86 28.9367 111.12 28.174 111.12 27.238C111.12 26.302 110.843 25.834 110.288 25.834C109.629 25.834 109.118 26.3973 108.754 27.524C108.407 28.6333 108.234 29.6733 108.234 30.644Z" fill="black"/>
</svg>
