<svg width="123" height="50" fill="none" xmlns="http://www.w3.org/2000/svg"><circle cx="13.5" cy="36.5" r="13.5" fill="#D2372E"/><circle cx="33.5" cy="26.5" r="23.5" fill="#FFC75F"/><circle cx="18" cy="9" r="9" fill="#6193CB"/><path d="M34.982 36.312c-1.005 0-2.045-.165-3.12-.494-.901.225-1.69.338-2.366.338-.659 0-1.11-.017-1.352-.052.121-1.023.641-3.614 1.56-7.774.936-4.177 1.404-6.543 1.404-7.098 0-.572-.121-1.066-.364-1.482-.225-.416-.45-.72-.676-.91l-.364-.286.078-.39c.45-.121 1.37-.251 2.756-.39 1.404-.156 2.626-.234 3.666-.234 2.41 0 4.23.537 5.46 1.612 1.248 1.057 1.872 2.782 1.872 5.174 0 1.959-.33 3.84-.988 5.642-.641 1.785-1.63 3.293-2.964 4.524-1.335 1.213-2.869 1.82-4.602 1.82zm1.846-17.134c-.45 0-.962.052-1.534.156-.173 1.837-.667 4.524-1.482 8.06-.797 3.519-1.265 5.763-1.404 6.734.416.208.988.312 1.716.312s1.413-.286 2.054-.858a6.571 6.571 0 001.586-2.184c.399-.867.745-1.837 1.04-2.912.503-1.924.754-3.675.754-5.252s-.208-2.643-.624-3.198c-.416-.572-1.118-.858-2.106-.858zm8.284 12.324c0-2.167.65-3.874 1.95-5.122 1.318-1.265 2.808-1.898 4.472-1.898 1.023 0 1.864.251 2.522.754.659.503.988 1.179.988 2.028 0 .832-.216 1.534-.65 2.106a4.325 4.325 0 01-1.534 1.326c-1.23.607-2.357.988-3.38 1.144l-.624.078c.122 1.63.789 2.444 2.002 2.444.416 0 .858-.104 1.326-.312.468-.208.832-.416 1.092-.624l.39-.312.624.832c-.138.19-.416.442-.832.754s-.806.572-1.17.78a6.722 6.722 0 01-3.302.832c-1.196 0-2.14-.425-2.834-1.274-.693-.85-1.04-2.028-1.04-3.536zm3.718-.858c.884-.156 1.586-.529 2.106-1.118.52-.59.78-1.352.78-2.288 0-.936-.277-1.404-.832-1.404-.658 0-1.17.563-1.534 1.69-.346 1.11-.52 2.15-.52 3.12zm15.839 1.95c0 1.092-.485 1.985-1.456 2.678-.953.693-2.045 1.04-3.276 1.04-1.23 0-2.21-.26-2.938-.78-.71-.52-1.066-.98-1.066-1.378 0-.243.303-.633.91-1.17.607-.555 1.118-.893 1.534-1.014.867.641 1.577 1.655 2.132 3.042.641-.052.962-.355.962-.91 0-.797-.702-1.924-2.106-3.38-1.404-1.473-2.106-2.643-2.106-3.51s.39-1.534 1.17-2.002c.78-.485 1.716-.728 2.808-.728 1.11 0 1.941.2 2.496.598.555.381.832.91.832 1.586 0 .659-.529 1.577-1.586 2.756.121.121.277.286.468.494.19.19.442.563.754 1.118.312.555.468 1.075.468 1.56zm-2.496-4.082c.728-.624 1.092-1.24 1.092-1.846 0-.607-.416-.91-1.248-.91-.399 0-.728.087-.988.26-.26.156-.39.338-.39.546 0 .381.381.919 1.144 1.612l.39.338zm9.866-2.418c0 .728-.234 1.985-.702 3.77-.468 1.768-.702 2.93-.702 3.484 0 .537.078.806.234.806.104 0 .503-.165 1.196-.494l.312-.156.442.91a16.27 16.27 0 01-.624.52c-.26.208-.745.494-1.456.858-.71.347-1.37.52-1.976.52-.607 0-1.083-.182-1.43-.546-.347-.381-.52-.884-.52-1.508 0-.641.217-1.768.65-3.38.433-1.63.65-2.687.65-3.172 0-.728-.225-1.413-.676-2.054l-.234-.312.026-.338c.919-.26 2.41-.39 4.472-.39.225.26.338.754.338 1.482zm-2.964-4.316c-.347-.347-.52-.806-.52-1.378 0-.572.234-1.075.702-1.508.485-.433 1.04-.65 1.664-.65.624 0 1.11.173 1.456.52.347.347.52.806.52 1.378 0 .555-.251 1.049-.754 1.482-.485.433-1.031.65-1.638.65s-1.083-.165-1.43-.494zm8.722 17.03c-.572.347-.858.685-.858 1.014 0 .33.182.494.546.494.381 0 .806-.182 1.274-.546.468-.347.858-.919 1.17-1.716-.832.156-1.543.407-2.132.754zm7.722-14.144c.07.07.104.225.104.468 0 .225-.017.477-.052.754-.035.26-.095.858-.182 1.794s-.173 1.75-.26 2.444c-.884 7.8-3.259 11.7-7.124 11.7a3.144 3.144 0 01-1.716-.494c-.503-.33-.754-.754-.754-1.274 0-.693.425-1.326 1.274-1.898.85-.572 1.993-1.014 3.432-1.326 0-.017.052-.26.156-.728.104-.468.173-.85.208-1.144-1.04.763-2.02 1.144-2.938 1.144-.901 0-1.647-.355-2.236-1.066-.572-.71-.858-1.846-.858-3.406 0-2.045.46-3.744 1.378-5.096.919-1.37 2.132-2.054 3.64-2.054.85 0 1.69.208 2.522.624a8.533 8.533 0 012.86-.468l.546.026zm-4.758 1.352c-.745 0-1.335.607-1.768 1.82-.433 1.196-.65 2.53-.65 4.004 0 1.456.33 2.184.988 2.184.433 0 .945-.165 1.534-.494.485-2.912.832-5.313 1.04-7.202-.485-.208-.867-.312-1.144-.312zm7.277 10.062h-.494c0-.815.243-2.375.728-4.68.503-2.305.754-3.614.754-3.926 0-.572-.242-1.179-.728-1.82l-.234-.312.026-.338c.936-.26 2.436-.39 4.498-.39.226.295.347.832.364 1.612 1.508-1.161 2.782-1.742 3.822-1.742.624 0 1.118.217 1.482.65.382.433.572.98.572 1.638 0 .641-.2 1.76-.598 3.354-.398 1.595-.598 2.67-.598 3.224 0 .537.07.806.208.806.104 0 .468-.165 1.092-.494l.312-.156.468.91a16.27 16.27 0 01-.624.52c-.26.208-.745.494-1.456.858-.693.347-1.317.52-1.872.52-1.265 0-1.898-.72-1.898-2.158 0-.607.19-1.725.572-3.354.399-1.63.598-2.678.598-3.146 0-.468-.147-.702-.442-.702-.502 0-1.118.217-1.846.65-.052.295-.225 1.075-.52 2.34-.606 2.721-.91 4.645-.91 5.772-.606.243-1.698.364-3.276.364zm13.177-4.576c0-2.167.65-3.874 1.95-5.122 1.318-1.265 2.808-1.898 4.472-1.898 1.023 0 1.864.251 2.522.754.659.503.988 1.179.988 2.028 0 .832-.216 1.534-.65 2.106a4.321 4.321 0 01-1.534 1.326c-1.23.607-2.357.988-3.38 1.144l-.624.078c.122 1.63.789 2.444 2.002 2.444.416 0 .858-.104 1.326-.312.468-.208.832-.416 1.092-.624l.39-.312.624.832c-.138.19-.416.442-.832.754s-.806.572-1.17.78a6.72 6.72 0 01-3.302.832c-1.196 0-2.14-.425-2.834-1.274-.693-.85-1.04-2.028-1.04-3.536zm3.718-.858c.884-.156 1.586-.529 2.106-1.118.52-.59.78-1.352.78-2.288 0-.936-.277-1.404-.832-1.404-.658 0-1.17.563-1.534 1.69-.346 1.11-.52 2.15-.52 3.12zm7.447.858c0-2.167.65-3.874 1.95-5.122 1.317-1.265 2.808-1.898 4.472-1.898 1.023 0 1.863.251 2.522.754.659.503.988 1.179.988 2.028 0 .832-.217 1.534-.65 2.106a4.321 4.321 0 01-1.534 1.326c-1.231.607-2.357.988-3.38 1.144l-.624.078c.121 1.63.789 2.444 2.002 2.444.416 0 .858-.104 1.326-.312.468-.208.832-.416 1.092-.624l.39-.312.624.832c-.139.19-.416.442-.832.754s-.806.572-1.17.78a6.72 6.72 0 01-3.302.832c-1.196 0-2.141-.425-2.834-1.274-.693-.85-1.04-2.028-1.04-3.536zm3.718-.858c.884-.156 1.586-.529 2.106-1.118.52-.59.78-1.352.78-2.288 0-.936-.277-1.404-.832-1.404-.659 0-1.17.563-1.534 1.69-.347 1.11-.52 2.15-.52 3.12z" fill="#fff"/></svg>