<svg width="194" height="25" fill="none" xmlns="http://www.w3.org/2000/svg"><g opacity=".7" fill="#828282"><path d="M165.836 9.917V25h4.868V14.945h17.802V25h4.868V9.917h-27.538zm4.311-4.89h18.776C191.566 4.546 193.444 2.205 194 0h-28.929c.556 2.204 2.503 4.477 5.076 5.028zM151.024 25c2.434-1.033 3.755-2.824 4.311-4.89H133.43V.07h-4.938V25h22.532zM91.984 4.959h17.385c2.642-.758 4.798-2.755 5.354-4.89H87.185v14.738h22.531v5.165H92.053c-2.782.758-5.146 2.617-6.328 5.028h28.859V9.917H92.053l-.07-4.958zm-42.838.069h18.776C70.565 4.545 72.512 2.204 73 0H44c.556 2.204 2.504 4.477 5.146 5.028zm0 9.848h18.776c2.643-.482 4.59-2.824 5.077-5.028H44c.556 2.204 2.504 4.477 5.146 5.028zm0 10.124h18.776c2.643-.482 4.59-2.824 5.077-5.027H44c.556 2.203 2.504 4.545 5.146 5.027zM0 .07c.56 2.21 2.52 4.42 5.112 4.972h7.982l.42.138V25h4.972V5.18l.42-.138h7.982C29.55 4.352 31.44 2.279 32 .069V0L0 .07z"/></g></svg>