<svg aria-hidden="true" style="position: absolute; width: 0; height: 0; overflow: hidden;" version="1.1" xmlns="http://www.w3.org/2000/svg" xmlns:xlink="http://www.w3.org/1999/xlink">
<defs>
<symbol id="icon-amazon_logo" viewBox="0 0 35 32">
<path fill="#828282" style="fill: var(--color1, #828282)" opacity="0.7" d="M0.064 24.832c0.106-0.171 0.277-0.181 0.511-0.032 5.322 3.093 11.111 4.64 17.369 4.64 4.172 0 8.291-0.779 12.357-2.336 0.106-0.043 0.261-0.107 0.463-0.192s0.346-0.149 0.431-0.192c0.319-0.128 0.569-0.064 0.75 0.192s0.122 0.491-0.176 0.704c-0.383 0.277-0.873 0.597-1.469 0.96-1.831 1.088-3.874 1.931-6.13 2.528s-4.459 0.896-6.609 0.896c-3.321 0-6.46-0.581-9.419-1.744s-5.609-2.8-7.95-4.912c-0.128-0.107-0.192-0.213-0.192-0.32 0-0.064 0.021-0.128 0.064-0.192zM9.675 15.712c0-1.472 0.362-2.731 1.086-3.776s1.713-1.835 2.969-2.368c1.149-0.491 2.565-0.843 4.247-1.056 0.575-0.064 1.511-0.149 2.81-0.256v-0.544c0-1.365-0.149-2.283-0.447-2.752-0.447-0.64-1.149-0.96-2.107-0.96h-0.255c-0.702 0.064-1.309 0.288-1.82 0.672s-0.841 0.917-0.99 1.6c-0.085 0.427-0.298 0.672-0.639 0.736l-3.672-0.448c-0.362-0.085-0.543-0.277-0.543-0.576 0-0.064 0.011-0.139 0.032-0.224 0.362-1.899 1.251-3.307 2.666-4.224s3.070-1.429 4.965-1.536h0.798c2.427 0 4.321 0.629 5.683 1.888 0.214 0.214 0.411 0.444 0.591 0.688 0.181 0.245 0.325 0.464 0.431 0.656s0.202 0.469 0.287 0.832 0.149 0.613 0.192 0.752c0.043 0.139 0.074 0.437 0.096 0.896s0.032 0.731 0.032 0.816v7.744c0 0.555 0.080 1.061 0.239 1.52s0.314 0.789 0.463 0.992 0.394 0.528 0.734 0.976c0.128 0.192 0.192 0.363 0.192 0.512 0 0.171-0.085 0.32-0.255 0.448-1.767 1.536-2.725 2.368-2.874 2.496-0.255 0.192-0.564 0.213-0.926 0.064-0.298-0.256-0.559-0.501-0.782-0.736s-0.383-0.405-0.479-0.512c-0.096-0.107-0.25-0.315-0.463-0.624s-0.362-0.517-0.447-0.624c-1.192 1.301-2.363 2.112-3.512 2.432-0.724 0.213-1.618 0.32-2.682 0.32-1.639 0-2.985-0.507-4.039-1.52s-1.581-2.448-1.581-4.304zM15.166 15.072c0 0.832 0.208 1.499 0.623 2s0.974 0.752 1.676 0.752c0.064 0 0.154-0.011 0.271-0.032s0.197-0.032 0.239-0.032c0.894-0.235 1.586-0.811 2.075-1.728 0.234-0.405 0.41-0.848 0.527-1.328s0.181-0.869 0.192-1.168c0.011-0.299 0.016-0.789 0.016-1.472v-0.8c-1.235 0-2.171 0.085-2.81 0.256-1.873 0.533-2.81 1.717-2.81 3.552zM28.576 25.376c0.043-0.085 0.106-0.171 0.192-0.256 0.532-0.363 1.043-0.608 1.533-0.736 0.809-0.213 1.596-0.331 2.363-0.352 0.213-0.021 0.415-0.011 0.607 0.032 0.958 0.085 1.533 0.245 1.724 0.48 0.085 0.128 0.128 0.32 0.128 0.576v0.224c0 0.747-0.202 1.627-0.607 2.64s-0.968 1.829-1.692 2.448c-0.106 0.085-0.202 0.128-0.287 0.128-0.043 0-0.085-0.011-0.128-0.032-0.128-0.064-0.16-0.181-0.096-0.352 0.788-1.856 1.181-3.147 1.181-3.872 0-0.235-0.043-0.405-0.128-0.512-0.213-0.256-0.809-0.384-1.788-0.384-0.362 0-0.788 0.021-1.277 0.064-0.532 0.064-1.022 0.128-1.469 0.192-0.128 0-0.213-0.021-0.255-0.064s-0.053-0.085-0.032-0.128c0-0.021 0.011-0.053 0.032-0.096z"></path>
</symbol>
<symbol id="icon-BRITOSH_LOGO" viewBox="0 0 110 32">
<path fill="#828282" style="fill: var(--color1, #828282)" opacity="0.7" d="M37.403 14.448v-13.275h4.841c1.027 0 1.687 0.22 2.274 0.441 1.32 0.66 1.906 1.907 1.906 3.007 0 1.247-0.514 2.127-1.541 2.787 1.541 0.366 2.421 1.393 2.421 3.006 0 1.834-1.101 3.154-2.935 3.741-0.659 0.219-1.392 0.293-2.493 0.293l-4.473 0.001zM43.345 3.447c-0.367-0.146-0.733-0.22-1.247-0.22h-2.493v3.447h2.347c0.659 0 1.1-0.073 1.466-0.293 0.485-0.274 0.807-0.786 0.807-1.373 0-0.007-0-0.014-0-0.021v0.001c0-0.659-0.366-1.247-0.88-1.54zM44.005 8.947c-0.293-0.146-0.733-0.22-1.466-0.22h-2.934v3.666h2.714c0.88 0 1.321-0.146 1.687-0.293 0.66-0.293 0.954-0.88 0.954-1.614s-0.293-1.246-0.954-1.54zM60.507 14.448v-13.275h2.275v13.275h-2.275zM77.008 14.448v-13.275h2.274v13.275h-2.274zM86.544 1.099c1.466 0 2.933 0.368 3.739 0.734l-0.073 2.201c-1.174-0.587-2.273-0.954-3.666-0.954-1.247 0-2.347 0.366-2.347 1.393 0 2.714 6.821 1.613 6.821 6.086 0 2.494-2.053 4.034-5.134 4.034-2.053 0-3.447-0.586-4.474-1.173l0.954-1.834c0.807 0.514 2.128 1.027 3.593 1.027 1.393 0 2.64-0.513 2.64-1.687 0-2.861-6.747-1.613-6.747-6.087 0-2.419 1.906-3.739 4.694-3.739zM101.724 14.448v-5.72h-6.382v5.72h-2.273v-13.275h2.273v5.429h6.382v-5.428h2.273v13.275h-2.273zM42.391 16.722c1.393 0 2.494 0.293 3.666 0.806l-0.658 1.907c-0.661-0.294-1.541-0.66-2.788-0.66-2.493 0-4.034 2.127-4.034 4.694 0 2.64 1.467 4.767 4.034 4.767 1.246 0 2.127-0.367 2.787-0.66l0.66 1.906c-1.174 0.513-2.274 0.807-3.666 0.807-3.961 0-6.235-2.787-6.235-6.747 0-3.74 2.275-6.821 6.235-6.821zM91.97 16.722c1.466 0 2.567 0.293 3.666 0.806l-0.66 1.907c-0.66-0.294-1.541-0.66-2.786-0.66-2.494 0-4.034 2.127-4.034 4.694 0 2.64 1.466 4.767 4.034 4.767 1.246 0 2.126-0.367 2.786-0.66l0.66 1.906c-1.1 0.513-2.201 0.807-3.666 0.807-3.961 0-6.234-2.787-6.234-6.747 0-3.74 2.274-6.821 6.234-6.821zM58.965 23.47c0 3.96-2.492 6.821-6.233 6.821s-6.234-2.787-6.234-6.747 2.494-6.821 6.234-6.821c3.813 0 6.233 2.787 6.233 6.747zM56.619 23.47c0-2.862-1.686-4.695-3.887-4.695s-3.887 1.834-3.887 4.767c0 2.862 1.687 4.694 3.886 4.694 2.202 0 3.888-1.833 3.888-4.767zM60.506 25.082v-8.214h2.275v8.287c0 2.274 1.174 3.081 3.080 3.081s3.079-0.807 3.079-3.081v-8.287h2.273v8.214c0 3.594-2.053 5.208-5.352 5.208-3.301 0-5.355-1.614-5.355-5.208zM75.467 20.463h-0.073c0.073 0.439 0.073 1.173 0.073 1.76v7.847h-2.273v-13.202h2.494l6.086 9.021h0.073c-0.073-0.44-0.073-1.174-0.073-1.76v-7.261h2.274v13.201h-1.98l-6.601-9.607zM97.397 30.070v-13.202h2.273v13.201h-2.273zM101.723 30.070v-13.202h2.273v11.148h5.208v2.053h-7.481zM75.248 1.247h-10.708v2.053h4.254v11.148h2.274v-11.147h4.18v-2.054zM56.474 14.448c-1.908-4.034-2.421-5.134-3.227-5.134h-2.128v5.134h-2.273v-13.2h4.474c3.447 0 4.694 1.76 4.694 3.739 0 1.834-0.954 3.007-2.42 3.447 0.587 0.367 1.247 1.614 3.447 6.014h-2.566zM53.466 3.227h-2.348v4.034h2.273c1.614 0 2.347-0.806 2.347-2.053 0-1.1-0.659-1.98-2.273-1.98zM15.181 7.554c0 4.181-3.447 7.554-7.627 7.554-4.107 0-7.554-3.374-7.554-7.554s3.447-7.554 7.554-7.554c4.18 0 7.627 3.374 7.627 7.554zM31.316 7.554c0 0.004 0 0.008 0 0.012 0 4.165-3.377 7.542-7.542 7.542-0.004 0-0.008 0-0.013 0h0.001c-0.003 0-0.007 0-0.011 0-4.166 0-7.543-3.377-7.543-7.543 0-0.004 0-0.008 0-0.012v0.001c0-0.003 0-0.007 0-0.011 0-4.166 3.377-7.543 7.543-7.543 0.004 0 0.008 0 0.012 0h-0.001c0.003 0 0.007 0 0.011 0 4.166 0 7.543 3.377 7.543 7.543 0 0.004 0 0.008 0 0.012v-0.001zM15.181 23.762c0 4.18-3.447 7.554-7.627 7.554-4.107 0-7.554-3.374-7.554-7.554s3.447-7.554 7.554-7.554c4.18 0 7.627 3.373 7.627 7.554zM31.316 23.762c0 0.004 0 0.008 0 0.013 0 4.165-3.376 7.541-7.541 7.541-0.005 0-0.009 0-0.014 0h0.001c-0.003 0-0.006 0-0.009 0-4.167 0-7.545-3.378-7.545-7.545 0-0.003 0-0.006 0-0.010v0c0-0.004 0-0.008 0-0.012 0-4.165 3.377-7.542 7.542-7.542 0.004 0 0.008 0 0.013 0h-0.001c0.003 0 0.007 0 0.011 0 4.166 0 7.543 3.377 7.543 7.543 0 0.004 0 0.008 0 0.012v-0.001z"></path>
</symbol>
<symbol id="icon-call_icon" viewBox="0 0 32 32">
<path fill="#828282" style="fill: var(--color1, #828282)" d="M29.428 4.874l-4.098-4.094c-0.479-0.482-1.143-0.781-1.877-0.781s-1.398 0.299-1.877 0.781l-0 0-4.414 4.406c-0.482 0.481-0.78 1.145-0.78 1.879s0.298 1.399 0.78 1.879l0 0 3.446 3.451c-0.828 1.902-1.949 3.526-3.323 4.896l-0 0c-1.369 1.376-2.991 2.499-4.791 3.291l-0.1 0.039-3.446-3.449c-0.479-0.482-1.143-0.781-1.877-0.781s-1.397 0.299-1.877 0.781l-0 0-4.414 4.404c-0.483 0.481-0.781 1.146-0.781 1.881s0.299 1.4 0.781 1.881l4.094 4.091c0.832 0.827 1.979 1.338 3.246 1.338 0.258 0 0.51-0.021 0.756-0.062l-0.027 0.004c5.095-0.837 10.146-3.55 14.228-7.626 4.076-4.086 6.784-9.137 7.631-14.235 0.038-0.221 0.059-0.476 0.059-0.736 0-1.265-0.512-2.409-1.34-3.239l0 0zM27.98 8.394c-0.751 4.534-3.188 9.058-6.86 12.729-3.673 3.673-8.192 6.112-12.726 6.863-0.087 0.015-0.187 0.023-0.288 0.023-0.501 0-0.954-0.204-1.282-0.533l-4.020-4.017 4.261-4.266 4.642 4.65 0.832-0.308c5.112-1.917 9.074-5.88 10.946-10.866l0.042-0.128 0.308-0.83-4.647-4.642 4.263-4.266 4.017 4.020c0.33 0.327 0.535 0.78 0.535 1.281 0 0.101-0.008 0.201-0.024 0.297l0.001-0.011z"></path>
</symbol>
<symbol id="icon-facebook_logo" viewBox="0 0 32 32">
<path fill="#fff" style="fill: var(--color2, #fff)" d="M21.328 5.312h2.923v-5.088c-1.232-0.143-2.66-0.224-4.107-0.224-0.052 0-0.104 0-0.157 0l0.008-0c-4.213 0-7.099 2.65-7.099 7.52v4.48h-4.646v5.688h4.646v14.312h5.698v-14.31h4.461l0.707-5.688h-5.168v-3.922c0-1.643 0.443-2.768 2.734-2.768z"></path>
</symbol>
<symbol id="icon-instagram_logo" viewBox="0 0 32 32">
<path fill="#fff" style="fill: var(--color2, #fff)" d="M31.968 9.408c-0.074-1.701-0.349-2.869-0.742-3.882-0.424-1.111-1.054-2.059-1.85-2.837l-0.001-0.001c-0.78-0.792-1.724-1.419-2.778-1.827l-0.054-0.018c-1.019-0.394-2.181-0.667-3.882-0.742-1.712-0.082-2.256-0.101-6.602-0.101-4.344 0-4.888 0.019-6.595 0.094-1.699 0.074-2.869 0.349-3.88 0.742-1.112 0.424-2.060 1.054-2.839 1.85l-0.001 0.001c-0.791 0.78-1.418 1.724-1.825 2.778l-0.018 0.054c-0.395 1.019-0.669 2.181-0.744 3.882-0.082 1.712-0.101 2.256-0.101 6.602 0 4.344 0.019 4.888 0.094 6.595 0.075 1.701 0.35 2.869 0.744 3.882 0.426 1.11 1.055 2.057 1.849 2.837l0.001 0.001c0.8 0.813 1.77 1.443 2.832 1.843 1.019 0.395 2.182 0.67 3.882 0.744 1.707 0.075 2.251 0.094 6.595 0.094 4.346 0 4.89-0.019 6.595-0.094 1.701-0.074 2.869-0.349 3.882-0.742 2.157-0.85 3.833-2.526 4.664-4.628l0.019-0.055c0.394-1.019 0.669-2.182 0.744-3.882 0.075-1.707 0.093-2.251 0.093-6.595s-0.006-4.888-0.080-6.595zM29.088 22.474c-0.070 1.563-0.333 2.406-0.55 2.97-0.552 1.399-1.64 2.486-3.004 3.024l-0.036 0.012c-0.56 0.219-1.411 0.482-2.968 0.55-1.688 0.075-2.194 0.094-6.464 0.094-4.269 0-4.782-0.019-6.464-0.094-1.563-0.069-2.406-0.331-2.97-0.55-0.721-0.269-1.334-0.676-1.836-1.192l-0.001-0.001c-0.517-0.503-0.924-1.117-1.184-1.803l-0.011-0.034c-0.218-0.563-0.48-1.413-0.549-2.97-0.075-1.688-0.094-2.195-0.094-6.464 0-4.27 0.019-4.784 0.094-6.464 0.069-1.563 0.331-2.406 0.549-2.97 0.269-0.722 0.678-1.337 1.198-1.837l0.002-0.002c0.504-0.517 1.119-0.923 1.806-1.182l0.034-0.011c0.56-0.219 1.411-0.48 2.968-0.55 1.688-0.074 2.195-0.093 6.464-0.093 4.275 0 4.782 0.019 6.464 0.093 1.563 0.069 2.406 0.331 2.97 0.55 0.693 0.256 1.325 0.662 1.837 1.194 0.531 0.52 0.938 1.144 1.195 1.84 0.218 0.56 0.48 1.411 0.549 2.968 0.075 1.688 0.094 2.194 0.094 6.464 0 4.269-0.019 4.768-0.094 6.458z"></path>
<path fill="#fff" style="fill: var(--color2, #fff)" d="M16.059 7.782c-4.539 0.002-8.218 3.682-8.219 8.221v0c0 0 0 0.001 0 0.002 0 4.541 3.681 8.222 8.222 8.222s8.222-3.681 8.222-8.222c0-4.541-3.681-8.222-8.222-8.222-0.001 0-0.001 0-0.002 0h0zM16.059 21.334c-2.945-0-5.332-2.388-5.332-5.333s2.388-5.333 5.333-5.333c0 0 0.001 0 0.001 0h-0c2.946 0 5.334 2.388 5.334 5.334s-2.388 5.334-5.334 5.334v0zM26.525 7.458c0 1.060-0.86 1.92-1.92 1.92s-1.92-0.86-1.92-1.92v0c0-1.060 0.86-1.92 1.92-1.92s1.92 0.86 1.92 1.92v0z"></path>
</symbol>
<symbol id="icon-logo" viewBox="0 0 79 32">
<path fill="#d2372e" style="fill: var(--color3, #d2372e)" d="M17.28 23.36c0 4.772-3.868 8.64-8.64 8.64s-8.64-3.868-8.64-8.64c0-4.772 3.868-8.64 8.64-8.64s8.64 3.868 8.64 8.64z"></path>
<path fill="#ffc75f" style="fill: var(--color4, #ffc75f)" d="M36.48 16.96c0 8.306-6.734 15.040-15.040 15.040s-15.040-6.734-15.040-15.040c0-8.306 6.734-15.040 15.040-15.040s15.040 6.734 15.040 15.040z"></path>
<path fill="#6193cb" style="fill: var(--color5, #6193cb)" d="M17.28 5.76c0 3.181-2.579 5.76-5.76 5.76s-5.76-2.579-5.76-5.76c0-3.181 2.579-5.76 5.76-5.76s5.76 2.579 5.76 5.76z"></path>
<path fill="#000" style="fill: var(--color6, #000)" d="M22.388 23.24c-0.643 0-1.309-0.106-1.997-0.316-0.577 0.144-1.082 0.216-1.514 0.216-0.422 0-0.71-0.011-0.865-0.033 0.077-0.655 0.41-2.313 0.998-4.975 0.599-2.673 0.899-4.188 0.899-4.543 0-0.366-0.077-0.682-0.233-0.948-0.144-0.266-0.288-0.461-0.433-0.582l-0.233-0.183 0.050-0.25c0.288-0.077 0.877-0.161 1.764-0.25 0.899-0.1 1.681-0.15 2.346-0.15 1.542 0 2.707 0.344 3.494 1.032 0.799 0.676 1.198 1.78 1.198 3.311 0 1.254-0.211 2.458-0.632 3.611-0.41 1.142-1.043 2.108-1.897 2.895-0.854 0.776-1.836 1.165-2.945 1.165zM23.57 12.274c-0.288 0-0.616 0.033-0.982 0.1-0.111 1.176-0.427 2.895-0.948 5.158-0.51 2.252-0.81 3.688-0.899 4.31 0.266 0.133 0.632 0.2 1.098 0.2s0.904-0.183 1.315-0.549c0.423-0.384 0.766-0.849 1.004-1.371l0.011-0.026c0.255-0.555 0.477-1.176 0.666-1.864 0.322-1.231 0.483-2.352 0.483-3.361s-0.133-1.692-0.399-2.047c-0.266-0.366-0.716-0.549-1.348-0.549zM28.872 20.161c0-1.387 0.416-2.479 1.248-3.278 0.844-0.81 1.797-1.215 2.862-1.215 0.655 0 1.193 0.161 1.614 0.483s0.632 0.755 0.632 1.298c0 0.532-0.138 0.982-0.416 1.348-0.256 0.355-0.585 0.641-0.967 0.841l-0.015 0.007c-0.787 0.388-1.508 0.632-2.163 0.732l-0.399 0.050c0.078 1.043 0.505 1.564 1.281 1.564 0.266 0 0.549-0.067 0.849-0.2s0.532-0.266 0.699-0.399l0.25-0.2 0.399 0.532c-0.088 0.122-0.266 0.283-0.532 0.483s-0.516 0.366-0.749 0.499c-0.598 0.335-1.313 0.533-2.073 0.533-0.014 0-0.028-0-0.042-0l0.002 0c-0.765 0-1.37-0.272-1.814-0.815s-0.666-1.298-0.666-2.263zM31.251 19.612c0.566-0.1 1.015-0.339 1.348-0.716s0.499-0.865 0.499-1.464-0.177-0.899-0.532-0.899c-0.421 0-0.749 0.36-0.982 1.082-0.221 0.71-0.333 1.376-0.333 1.997zM41.388 20.86c0 0.699-0.31 1.27-0.932 1.714-0.61 0.444-1.309 0.666-2.097 0.666s-1.414-0.166-1.88-0.499c-0.454-0.333-0.682-0.627-0.682-0.882 0-0.156 0.194-0.405 0.582-0.749 0.388-0.355 0.716-0.572 0.982-0.649 0.555 0.41 1.009 1.059 1.364 1.947 0.41-0.033 0.616-0.227 0.616-0.582 0-0.51-0.449-1.231-1.348-2.163-0.899-0.943-1.348-1.692-1.348-2.246s0.25-0.982 0.749-1.281c0.499-0.31 1.098-0.466 1.797-0.466 0.71 0 1.242 0.128 1.597 0.383 0.355 0.244 0.532 0.582 0.532 1.015 0 0.422-0.339 1.009-1.015 1.764 0.077 0.077 0.177 0.183 0.3 0.316 0.122 0.122 0.283 0.36 0.483 0.716s0.3 0.688 0.3 0.998zM39.791 18.248c0.466-0.399 0.699-0.794 0.699-1.181s-0.266-0.582-0.799-0.582c-0.255 0-0.466 0.056-0.632 0.166-0.166 0.1-0.25 0.216-0.25 0.349 0 0.244 0.244 0.588 0.732 1.032l0.25 0.216zM46.105 16.7c0 0.466-0.15 1.27-0.449 2.413-0.3 1.132-0.449 1.875-0.449 2.23 0 0.344 0.050 0.516 0.15 0.516 0.067 0 0.322-0.106 0.765-0.316l0.2-0.1 0.283 0.582c-0.116 0.102-0.246 0.211-0.378 0.317l-0.021 0.016c-0.166 0.133-0.477 0.316-0.932 0.549-0.454 0.222-0.877 0.333-1.265 0.333s-0.693-0.116-0.915-0.349c-0.222-0.244-0.333-0.566-0.333-0.965 0-0.41 0.139-1.132 0.416-2.163 0.277-1.043 0.416-1.72 0.416-2.030 0-0.466-0.144-0.904-0.433-1.315l-0.15-0.2 0.017-0.216c0.588-0.166 1.542-0.25 2.862-0.25 0.144 0.166 0.216 0.483 0.216 0.948zM44.208 13.938c-0.222-0.222-0.333-0.516-0.333-0.882s0.15-0.688 0.449-0.965c0.31-0.277 0.666-0.416 1.065-0.416s0.71 0.111 0.932 0.333c0.222 0.222 0.333 0.516 0.333 0.882 0 0.355-0.161 0.671-0.483 0.948-0.31 0.277-0.66 0.416-1.048 0.416s-0.693-0.106-0.915-0.316zM49.79 24.837c-0.366 0.222-0.549 0.438-0.549 0.649s0.116 0.316 0.349 0.316c0.244 0 0.516-0.116 0.815-0.349 0.3-0.222 0.549-0.588 0.749-1.098-0.532 0.1-0.988 0.26-1.364 0.483zM54.732 15.785c0.045 0.045 0.067 0.144 0.067 0.3 0 0.144-0.011 0.305-0.033 0.483-0.022 0.166-0.061 0.549-0.116 1.148s-0.111 1.12-0.166 1.564c-0.566 4.992-2.086 7.488-4.559 7.488-0.005 0-0.010 0-0.015 0-0.402 0-0.776-0.118-1.091-0.321l0.008 0.005c-0.322-0.211-0.483-0.483-0.483-0.815 0-0.444 0.272-0.849 0.815-1.215s1.276-0.649 2.196-0.849c0-0.011 0.033-0.166 0.1-0.466s0.111-0.544 0.133-0.732c-0.666 0.488-1.293 0.732-1.88 0.732-0.577 0-1.054-0.227-1.431-0.682-0.366-0.454-0.549-1.181-0.549-2.18 0-1.309 0.294-2.396 0.882-3.261 0.588-0.877 1.364-1.315 2.33-1.315 0.544 0 1.082 0.133 1.614 0.399 0.532-0.19 1.145-0.3 1.784-0.3 0.016 0 0.032 0 0.049 0l-0.002-0 0.349 0.017zM51.687 16.65c-0.477 0-0.854 0.388-1.132 1.165-0.277 0.765-0.416 1.619-0.416 2.563 0 0.932 0.211 1.398 0.632 1.398 0.277 0 0.605-0.106 0.982-0.316 0.31-1.864 0.532-3.4 0.666-4.609-0.31-0.133-0.555-0.2-0.732-0.2zM56.344 23.090h-0.316c0-0.522 0.156-1.52 0.466-2.995 0.322-1.475 0.483-2.313 0.483-2.513 0-0.366-0.155-0.755-0.466-1.165l-0.15-0.2 0.017-0.216c0.599-0.166 1.559-0.25 2.879-0.25 0.145 0.189 0.222 0.532 0.233 1.032 0.965-0.743 1.78-1.115 2.446-1.115 0.399 0 0.716 0.139 0.948 0.416 0.244 0.277 0.366 0.627 0.366 1.048 0 0.41-0.128 1.126-0.383 2.147s-0.383 1.709-0.383 2.063c0 0.344 0.045 0.516 0.133 0.516 0.067 0 0.3-0.106 0.699-0.316l0.2-0.1 0.3 0.582c-0.116 0.102-0.246 0.211-0.378 0.317l-0.021 0.016c-0.166 0.133-0.477 0.316-0.932 0.549-0.444 0.222-0.843 0.333-1.198 0.333-0.81 0-1.215-0.461-1.215-1.381 0-0.388 0.122-1.104 0.366-2.147 0.255-1.043 0.383-1.714 0.383-2.013s-0.094-0.449-0.283-0.449c-0.321 0-0.716 0.139-1.181 0.416-0.033 0.189-0.144 0.688-0.333 1.498-0.388 1.741-0.582 2.973-0.582 3.694-0.388 0.156-1.087 0.233-2.097 0.233zM64.778 20.161c0-1.387 0.416-2.479 1.248-3.278 0.844-0.81 1.797-1.215 2.862-1.215 0.655 0 1.193 0.161 1.614 0.483s0.632 0.755 0.632 1.298c0 0.532-0.138 0.982-0.416 1.348-0.256 0.355-0.585 0.641-0.967 0.841l-0.015 0.007c-0.787 0.388-1.508 0.632-2.163 0.732l-0.399 0.050c0.078 1.043 0.505 1.564 1.281 1.564 0.266 0 0.549-0.067 0.849-0.2s0.532-0.266 0.699-0.399l0.25-0.2 0.399 0.532c-0.088 0.122-0.266 0.283-0.532 0.483s-0.516 0.366-0.749 0.499c-0.598 0.335-1.313 0.533-2.073 0.533-0.014 0-0.028-0-0.042-0l0.002 0c-0.765 0-1.37-0.272-1.814-0.815s-0.666-1.298-0.666-2.263zM67.157 19.612c0.566-0.1 1.015-0.339 1.348-0.716s0.499-0.865 0.499-1.464-0.177-0.899-0.532-0.899c-0.421 0-0.749 0.36-0.982 1.082-0.221 0.71-0.333 1.376-0.333 1.997zM71.923 20.161c0-1.387 0.416-2.479 1.248-3.278 0.843-0.81 1.797-1.215 2.862-1.215 0.655 0 1.192 0.161 1.614 0.483s0.632 0.755 0.632 1.298c0 0.532-0.139 0.982-0.416 1.348-0.256 0.355-0.585 0.641-0.967 0.841l-0.015 0.007c-0.788 0.388-1.508 0.632-2.163 0.732l-0.399 0.050c0.077 1.043 0.505 1.564 1.281 1.564 0.266 0 0.549-0.067 0.849-0.2s0.532-0.266 0.699-0.399l0.25-0.2 0.399 0.532c-0.089 0.122-0.266 0.283-0.532 0.483s-0.516 0.366-0.749 0.499c-0.598 0.335-1.313 0.533-2.073 0.533-0.014 0-0.028-0-0.042-0l0.002 0c-0.765 0-1.37-0.272-1.814-0.815s-0.666-1.298-0.666-2.263zM74.303 19.612c0.566-0.1 1.015-0.339 1.348-0.716s0.499-0.865 0.499-1.464-0.177-0.899-0.532-0.899c-0.422 0-0.749 0.36-0.982 1.082-0.222 0.71-0.333 1.376-0.333 1.997z"></path>
</symbol>
<symbol id="icon-logo_whie" viewBox="0 0 79 32">
<path fill="#d2372e" style="fill: var(--color3, #d2372e)" d="M17.28 23.36c0 4.772-3.868 8.64-8.64 8.64s-8.64-3.868-8.64-8.64c0-4.772 3.868-8.64 8.64-8.64s8.64 3.868 8.64 8.64z"></path>
<path fill="#ffc75f" style="fill: var(--color4, #ffc75f)" d="M36.48 16.96c0 8.306-6.734 15.040-15.040 15.040s-15.040-6.734-15.040-15.040c0-8.306 6.734-15.040 15.040-15.040s15.040 6.734 15.040 15.040z"></path>
<path fill="#6193cb" style="fill: var(--color5, #6193cb)" d="M17.28 5.76c0 3.181-2.579 5.76-5.76 5.76s-5.76-2.579-5.76-5.76c0-3.181 2.579-5.76 5.76-5.76s5.76 2.579 5.76 5.76z"></path>
<path fill="#fff" style="fill: var(--color2, #fff)" d="M22.388 23.24c-0.643 0-1.309-0.106-1.997-0.316-0.577 0.144-1.082 0.216-1.514 0.216-0.422 0-0.71-0.011-0.865-0.033 0.077-0.655 0.41-2.313 0.998-4.975 0.599-2.673 0.899-4.188 0.899-4.543 0-0.366-0.077-0.682-0.233-0.948-0.144-0.266-0.288-0.461-0.433-0.582l-0.233-0.183 0.050-0.25c0.288-0.077 0.877-0.161 1.764-0.25 0.899-0.1 1.681-0.15 2.346-0.15 1.542 0 2.707 0.344 3.494 1.032 0.799 0.676 1.198 1.78 1.198 3.311 0 1.254-0.211 2.458-0.632 3.611-0.41 1.142-1.043 2.108-1.897 2.895-0.854 0.776-1.836 1.165-2.945 1.165zM23.57 12.274c-0.288 0-0.616 0.033-0.982 0.1-0.111 1.176-0.427 2.895-0.948 5.158-0.51 2.252-0.81 3.688-0.899 4.31 0.266 0.133 0.632 0.2 1.098 0.2s0.904-0.183 1.315-0.549c0.423-0.384 0.766-0.849 1.004-1.371l0.011-0.026c0.255-0.555 0.477-1.176 0.666-1.864 0.322-1.231 0.483-2.352 0.483-3.361s-0.133-1.692-0.399-2.047c-0.266-0.366-0.716-0.549-1.348-0.549zM28.872 20.161c0-1.387 0.416-2.479 1.248-3.278 0.844-0.81 1.797-1.215 2.862-1.215 0.655 0 1.193 0.161 1.614 0.483s0.632 0.755 0.632 1.298c0 0.532-0.138 0.982-0.416 1.348-0.256 0.355-0.585 0.641-0.967 0.841l-0.015 0.007c-0.787 0.388-1.508 0.632-2.163 0.732l-0.399 0.050c0.078 1.043 0.505 1.564 1.281 1.564 0.266 0 0.549-0.067 0.849-0.2s0.532-0.266 0.699-0.399l0.25-0.2 0.399 0.532c-0.088 0.122-0.266 0.283-0.532 0.483s-0.516 0.366-0.749 0.499c-0.598 0.335-1.313 0.533-2.073 0.533-0.014 0-0.028-0-0.042-0l0.002 0c-0.765 0-1.37-0.272-1.814-0.815s-0.666-1.298-0.666-2.263zM31.251 19.612c0.566-0.1 1.015-0.339 1.348-0.716s0.499-0.865 0.499-1.464-0.177-0.899-0.532-0.899c-0.421 0-0.749 0.36-0.982 1.082-0.221 0.71-0.333 1.376-0.333 1.997zM41.388 20.86c0 0.699-0.31 1.27-0.932 1.714-0.61 0.444-1.309 0.666-2.097 0.666s-1.414-0.166-1.88-0.499c-0.454-0.333-0.682-0.627-0.682-0.882 0-0.156 0.194-0.405 0.582-0.749 0.388-0.355 0.716-0.572 0.982-0.649 0.555 0.41 1.009 1.059 1.364 1.947 0.41-0.033 0.616-0.227 0.616-0.582 0-0.51-0.449-1.231-1.348-2.163-0.899-0.943-1.348-1.692-1.348-2.246s0.25-0.982 0.749-1.281c0.499-0.31 1.098-0.466 1.797-0.466 0.71 0 1.242 0.128 1.597 0.383 0.355 0.244 0.532 0.582 0.532 1.015 0 0.422-0.339 1.009-1.015 1.764 0.077 0.077 0.177 0.183 0.3 0.316 0.122 0.122 0.283 0.36 0.483 0.716s0.3 0.688 0.3 0.998zM39.791 18.248c0.466-0.399 0.699-0.794 0.699-1.181s-0.266-0.582-0.799-0.582c-0.255 0-0.466 0.056-0.632 0.166-0.166 0.1-0.25 0.216-0.25 0.349 0 0.244 0.244 0.588 0.732 1.032l0.25 0.216zM46.105 16.7c0 0.466-0.15 1.27-0.449 2.413-0.3 1.132-0.449 1.875-0.449 2.23 0 0.344 0.050 0.516 0.15 0.516 0.067 0 0.322-0.106 0.765-0.316l0.2-0.1 0.283 0.582c-0.116 0.102-0.246 0.211-0.378 0.317l-0.021 0.016c-0.166 0.133-0.477 0.316-0.932 0.549-0.454 0.222-0.877 0.333-1.265 0.333s-0.693-0.116-0.915-0.349c-0.222-0.244-0.333-0.566-0.333-0.965 0-0.41 0.139-1.132 0.416-2.163 0.277-1.043 0.416-1.72 0.416-2.030 0-0.466-0.144-0.904-0.433-1.315l-0.15-0.2 0.017-0.216c0.588-0.166 1.542-0.25 2.862-0.25 0.144 0.166 0.216 0.483 0.216 0.948zM44.208 13.938c-0.222-0.222-0.333-0.516-0.333-0.882s0.15-0.688 0.449-0.965c0.31-0.277 0.666-0.416 1.065-0.416s0.71 0.111 0.932 0.333c0.222 0.222 0.333 0.516 0.333 0.882 0 0.355-0.161 0.671-0.483 0.948-0.31 0.277-0.66 0.416-1.048 0.416s-0.693-0.106-0.915-0.316zM49.79 24.837c-0.366 0.222-0.549 0.438-0.549 0.649s0.116 0.316 0.349 0.316c0.244 0 0.516-0.116 0.815-0.349 0.3-0.222 0.549-0.588 0.749-1.098-0.532 0.1-0.988 0.26-1.364 0.483zM54.732 15.785c0.045 0.045 0.067 0.144 0.067 0.3 0 0.144-0.011 0.305-0.033 0.483-0.022 0.166-0.061 0.549-0.116 1.148s-0.111 1.12-0.166 1.564c-0.566 4.992-2.086 7.488-4.559 7.488-0.005 0-0.010 0-0.015 0-0.402 0-0.776-0.118-1.091-0.321l0.008 0.005c-0.322-0.211-0.483-0.483-0.483-0.815 0-0.444 0.272-0.849 0.815-1.215s1.276-0.649 2.196-0.849c0-0.011 0.033-0.166 0.1-0.466s0.111-0.544 0.133-0.732c-0.666 0.488-1.293 0.732-1.88 0.732-0.577 0-1.054-0.227-1.431-0.682-0.366-0.454-0.549-1.181-0.549-2.18 0-1.309 0.294-2.396 0.882-3.261 0.588-0.877 1.364-1.315 2.33-1.315 0.544 0 1.082 0.133 1.614 0.399 0.532-0.19 1.145-0.3 1.784-0.3 0.016 0 0.032 0 0.049 0l-0.002-0 0.349 0.017zM51.687 16.65c-0.477 0-0.854 0.388-1.132 1.165-0.277 0.765-0.416 1.619-0.416 2.563 0 0.932 0.211 1.398 0.632 1.398 0.277 0 0.605-0.106 0.982-0.316 0.31-1.864 0.532-3.4 0.666-4.609-0.31-0.133-0.555-0.2-0.732-0.2zM56.344 23.090h-0.316c0-0.522 0.156-1.52 0.466-2.995 0.322-1.475 0.483-2.313 0.483-2.513 0-0.366-0.155-0.755-0.466-1.165l-0.15-0.2 0.017-0.216c0.599-0.166 1.559-0.25 2.879-0.25 0.145 0.189 0.222 0.532 0.233 1.032 0.965-0.743 1.78-1.115 2.446-1.115 0.399 0 0.716 0.139 0.948 0.416 0.244 0.277 0.366 0.627 0.366 1.048 0 0.41-0.128 1.126-0.383 2.147s-0.383 1.709-0.383 2.063c0 0.344 0.045 0.516 0.133 0.516 0.067 0 0.3-0.106 0.699-0.316l0.2-0.1 0.3 0.582c-0.116 0.102-0.246 0.211-0.378 0.317l-0.021 0.016c-0.166 0.133-0.477 0.316-0.932 0.549-0.444 0.222-0.843 0.333-1.198 0.333-0.81 0-1.215-0.461-1.215-1.381 0-0.388 0.122-1.104 0.366-2.147 0.255-1.043 0.383-1.714 0.383-2.013s-0.094-0.449-0.283-0.449c-0.321 0-0.716 0.139-1.181 0.416-0.033 0.189-0.144 0.688-0.333 1.498-0.388 1.741-0.582 2.973-0.582 3.694-0.388 0.156-1.087 0.233-2.097 0.233zM64.778 20.161c0-1.387 0.416-2.479 1.248-3.278 0.844-0.81 1.797-1.215 2.862-1.215 0.655 0 1.193 0.161 1.614 0.483s0.632 0.755 0.632 1.298c0 0.532-0.138 0.982-0.416 1.348-0.256 0.355-0.585 0.641-0.967 0.841l-0.015 0.007c-0.787 0.388-1.508 0.632-2.163 0.732l-0.399 0.050c0.078 1.043 0.505 1.564 1.281 1.564 0.266 0 0.549-0.067 0.849-0.2s0.532-0.266 0.699-0.399l0.25-0.2 0.399 0.532c-0.088 0.122-0.266 0.283-0.532 0.483s-0.516 0.366-0.749 0.499c-0.598 0.335-1.313 0.533-2.073 0.533-0.014 0-0.028-0-0.042-0l0.002 0c-0.765 0-1.37-0.272-1.814-0.815s-0.666-1.298-0.666-2.263zM67.157 19.612c0.566-0.1 1.015-0.339 1.348-0.716s0.499-0.865 0.499-1.464-0.177-0.899-0.532-0.899c-0.421 0-0.749 0.36-0.982 1.082-0.221 0.71-0.333 1.376-0.333 1.997zM71.923 20.161c0-1.387 0.416-2.479 1.248-3.278 0.843-0.81 1.797-1.215 2.862-1.215 0.655 0 1.192 0.161 1.614 0.483s0.632 0.755 0.632 1.298c0 0.532-0.139 0.982-0.416 1.348-0.256 0.355-0.585 0.641-0.967 0.841l-0.015 0.007c-0.788 0.388-1.508 0.632-2.163 0.732l-0.399 0.050c0.077 1.043 0.505 1.564 1.281 1.564 0.266 0 0.549-0.067 0.849-0.2s0.532-0.266 0.699-0.399l0.25-0.2 0.399 0.532c-0.089 0.122-0.266 0.283-0.532 0.483s-0.516 0.366-0.749 0.499c-0.598 0.335-1.313 0.533-2.073 0.533-0.014 0-0.028-0-0.042-0l0.002 0c-0.765 0-1.37-0.272-1.814-0.815s-0.666-1.298-0.666-2.263zM74.303 19.612c0.566-0.1 1.015-0.339 1.348-0.716s0.499-0.865 0.499-1.464-0.177-0.899-0.532-0.899c-0.422 0-0.749 0.36-0.982 1.082-0.222 0.71-0.333 1.376-0.333 1.997z"></path>
</symbol>
<symbol id="icon-linkedin_logo" viewBox="0 0 32 32">
<path fill="#fff" style="fill: var(--color2, #fff)" d="M31.992 32h0.008v-11.738c0-5.741-1.235-10.163-7.947-10.163-3.227 0-5.392 1.77-6.277 3.45h-0.093v-2.914h-6.365v21.363h6.627v-10.578c0-2.786 0.528-5.48 3.978-5.48 3.398 0 3.45 3.179 3.45 5.658v10.402h6.619zM0.528 10.635h6.635v21.365h-6.635v-21.365zM3.843 0c-2.123 0-3.843 1.721-3.843 3.843v0c0 2.12 1.722 3.878 3.843 3.878 2.12 0 3.842-1.757 3.842-3.878s-1.72-3.841-3.841-3.843h-0z"></path>
</symbol>
<symbol id="icon-ksc_logo" viewBox="0 0 63 32">
<path fill="#828282" style="fill: var(--color1, #828282)" opacity="0.7" d="M51.638 0.101c-2.32 0.254-4.518 1.169-6.384 2.662-1.246 1.001-2.406 2.432-3.086 3.802-0.21 0.422-0.41 0.832-0.45 0.915-0.154 0.299-0.472 1.393-0.695 2.394-0.123 0.553-0.154 0.986-0.162 2.192 0 1.479 0.086 2.256 0.349 3.078 0.046 0.146 0.117 0.392 0.147 0.538 0.093 0.43 0.548 1.576 0.774 1.923 0.038 0.061 0.101 0.184 0.138 0.27s0.162 0.284 0.271 0.447c0.108 0.161 0.202 0.306 0.202 0.332 0 0.078 0.804 1.086 1.16 1.453 2.213 2.294 4.86 3.586 7.909 3.895 1.634 0.16 3.358-0.038 4.976-0.561 2.306-0.754 4.626-2.539 6.105-4.702l0.309-0.446-0.21-0.168c-0.199-0.157-0.424-0.312-0.658-0.453l-0.030-0.017c-0.27-0.168-0.92-0.586-1.454-0.93-0.534-0.346-1.183-0.762-1.454-0.93-0.27-0.16-0.597-0.37-0.728-0.447l-0.233-0.146-0.184 0.224c-0.102 0.122-0.178 0.254-0.185 0.298 0 0.146-0.882 1.054-1.386 1.438-0.564 0.422-1.338 0.814-2.104 1.069-0.664 0.224-2.49 0.246-3.203 0.038-1.37-0.4-2.553-1.217-3.372-2.316-0.688-0.922-0.992-1.646-1.198-2.894-0.109-0.654-0.117-0.878-0.038-1.37 0.046-0.324 0.094-0.654 0.109-0.739 0.016-0.146-0.030-0.153-0.991-0.153h-1.006l-0.061 0.538c-0.078 0.717 0 2.208 0.146 2.693 0.386 1.315 0.713 2.016 1.307 2.846 0.702 0.993 1.686 1.916 2.482 2.346 0.162 0.093 0.45 0.246 0.627 0.347 0.458 0.246 1.57 0.616 2.268 0.739 1.066 0.201 2.467 0.108 3.519-0.216 1.292-0.4 2.677-1.162 3.466-1.909 0.202-0.194 0.24-0.202 0.45-0.116 0.124 0.053 0.364 0.194 0.518 0.299 0.154 0.116 0.349 0.232 0.424 0.262 0.248 0.093 0.132 0.339-0.394 0.84-0.92 0.87-2.275 1.677-3.537 2.099-1.045 0.362-1.487 0.43-3.009 0.478-1.626 0.046-2.073-0.015-3.413-0.455-1.555-0.515-2.746-1.27-4.022-2.554-1.934-1.946-2.926-4.508-2.794-7.24 0.060-1.462 0.169-2.048 0.548-3.164 0.744-2.177 2.902-4.522 5.168-5.602 1.393-0.661 2.576-0.962 4.093-1.023 1.57-0.070 3.118 0.269 4.664 1.016 0.969 0.47 2.438 1.501 2.438 1.707 0 0.070-1.099 0.945-1.19 0.945-0.022 0-0.256-0.146-0.526-0.331-0.744-0.486-0.751-0.493-1.37-0.784-1.13-0.546-2.64-0.916-3.496-0.87l-0.418 0.022-0.061 0.87c-0.038 0.478-0.046 0.923-0.023 0.986 0.030 0.078 0.17 0.108 0.48 0.108 0.906 0 2.377 0.463 3.196 1.008 0.612 0.4 1.16 0.901 1.525 1.378 0.162 0.216 0.357 0.384 0.432 0.384 0.185 0 4.472-3.2 4.472-3.338 0-0.168-0.836-1.176-1.392-1.692-2.152-1.963-4.51-3.065-7.166-3.348-0.912-0.093-1.486-0.086-2.591 0.038zM16.418 0.217l-1.292 0.038-0.326 0.306c-0.582 0.561-1.554 1.501-2.933 2.838-1.224 1.177-4.573 4.418-6.244 6.032-0.357 0.339-0.642 0.646-0.642 0.691 0 0.061 0.68 0.862 0.928 1.094 0.022 0.023 0.51 0.538 1.082 1.154 0.564 0.616 1.454 1.562 1.972 2.117 0.524 0.548 1.15 1.227 1.398 1.504 0.256 0.276 0.549 0.593 0.658 0.698 0.44 0.456 1.021 1.076 1.779 1.916 0.44 0.486 1.16 1.262 1.593 1.732 0.968 1.039 1.191 1.308 1.191 1.416 0 0.101-2.074 0.123-2.205 0.022-0.046-0.030-0.424-0.438-0.852-0.9-0.597-0.661-1.13-1.234-1.67-1.802l0.037 0.039c-0.038-0.046-0.44-0.486-0.882-0.97-0.369-0.411-0.695-0.765-1.026-1.115l0.027 0.028c-0.21-0.201-0.874-0.922-2.406-2.607-0.488-0.53-0.898-0.978-0.92-1-0.030-0.024-0.342-0.37-0.704-0.77-1.066-1.192-1.137-1.254-1.23-1.199-0.061 0.038-0.086 0.677-0.086 2.147 0 4.254-0.093 7.988-0.21 8.094-0.116 0.116-1.238 0.078-1.378-0.053-0.046-0.046-0.061-1.285-0.046-3.47 0.015-1.87 0.053-6.226 0.078-9.672l0.046-6.271 3.484-0.075 0.022-0.878c0.015-0.578-0.008-0.906-0.070-0.977-0.119-0.146-5.158-0.154-5.35-0.008-0.101 0.086-0.116 1.363-0.146 11.712l-0.022 11.618 0.349 0.046c0.634 0.093 4.859 0.086 5.029-0.008 0.154-0.078 0.154-0.153 0.154-3.656 0-2.131 0.030-3.584 0.071-3.614 0.046-0.023 0.556 0.485 1.145 1.123 0.59 0.646 1.224 1.33 1.416 1.524 0.184 0.194 0.688 0.732 1.115 1.199 0.417 0.462 1.122 1.224 1.554 1.692 0.432 0.462 0.906 0.986 1.052 1.154 0.139 0.168 0.364 0.4 0.488 0.515l0.232 0.216h3.621c3.297 0 3.621-0.008 3.621-0.123 0-0.13-0.071-0.216-1.16-1.416-0.327-0.362-0.782-0.862-1.007-1.116-0.596-0.661-0.935-1.030-1.168-1.262-0.109-0.108-0.712-0.77-1.347-1.471-0.634-0.698-1.168-1.285-1.191-1.307-0.204-0.22-0.431-0.47-0.655-0.724l-0.040-0.046c-0.427-0.478-0.793-0.879-1.164-1.277l0.041 0.044c-0.246-0.261-0.511-0.549-0.772-0.841l-0.039-0.044c-0.185-0.216-0.571-0.631-0.852-0.922-1.093-1.147-2.794-3.040-2.794-3.115 0-0.078 0.364-0.448 1.825-1.846 3.476-3.327 6.099-5.854 8.716-8.386l-0.662 0.637c0.27-0.254 0.316-0.378 0.162-0.415-0.053-0.015-0.68-0.015-1.393 0.008zM25.37 0.332c-0.664 0.116-0.928 0.209-1.633 0.554-1.277 0.623-2.376 1.808-2.87 3.1-0.44 1.131-0.541 2.539-0.256 3.6 0.526 1.962 1.998 3.548 3.869 4.171 0.826 0.269 1.486 0.314 5.686 0.384 4.364 0.071 4.558 0.086 5.231 0.43 1.269 0.639 2.128 1.662 2.561 3.018 0.24 0.746 0.24 2.147 0 2.909-0.564 1.77-2.035 3.107-3.722 3.386-0.712 0.116-5.718 0.138-9.215 0.038l-1.742-0.045v-1.617l8.277-0.075v-1.924l-4.99 0.016c-2.746 0.007-5.069 0.037-5.16 0.060l-0.177 0.038v2.64c0 1.946 0.022 2.662 0.094 2.73s1.61 0.093 6.444 0.093c6.654 0 6.986-0.015 7.931-0.346 1.896-0.677 3.482-2.309 4.070-4.194 0.225-0.716 0.432-2.109 0.394-2.624-0.218-2.656-1.648-4.848-3.846-5.894-1.231-0.586-1.656-0.63-6.5-0.716-4.363-0.070-4.426-0.078-5.276-0.501-1.107-0.553-1.934-1.778-2.035-3.016-0.139-1.67 0.582-3.056 1.972-3.81 0.968-0.523 1.066-0.53 6.576-0.508l4.912 0.022 0.022 0.724c0.016 0.463-0.008 0.754-0.070 0.822-0.071 0.086-0.48 0.108-2.167 0.108-1.972 0-2.080 0.008-2.158 0.146-0.109 0.216-0.102 1.57 0.015 1.685 0.070 0.070 0.89 0.093 3.21 0.093 3.001 0 3.118-0.008 3.196-0.146 0.116-0.224 0.109-5.254-0.016-5.378-0.134-0.134-11.862-0.111-12.628 0.027zM1.912 25.246c-0.853 0.354-1.37 0.878-1.742 1.755-0.139 0.347-0.17 0.568-0.17 1.3-0.008 1.27 0.21 1.893 0.92 2.632 0.635 0.639 1.664 0.978 2.67 0.87 0.45-0.053 1.16-0.307 1.254-0.456 0.094-0.13 0.071-1.8-0.015-1.855-0.046-0.030-0.255 0.061-0.472 0.194-0.526 0.34-1.214 0.4-1.717 0.162-0.766-0.37-1.082-1.225-0.789-2.1 0.146-0.422 0.5-0.769 0.981-0.945 0.44-0.162 0.672-0.131 1.355 0.208 0.394 0.194 0.51 0.224 0.563 0.138 0.071-0.115 0.008-1.523-0.078-1.684-0.207-0.395-1.994-0.534-2.76-0.219zM7.692 25.263c-1.191 0.27-2.028 1.038-2.407 2.208-0.341 1.068-0.070 2.293 0.72 3.17 0.62 0.698 1.618 1.123 2.686 1.123 0.774 0 1.355-0.153 1.919-0.522 1.454-0.93 1.911-2.756 1.082-4.362-0.086-0.168-0.349-0.5-0.589-0.732-0.902-0.87-2.104-1.186-3.41-0.885zM9.17 26.847c0.627 0.209 1.075 0.878 1.075 1.61 0 0.553-0.17 0.938-0.59 1.299-0.356 0.314-0.564 0.392-1.044 0.392-1.074 0-1.833-0.992-1.626-2.117 0.172-0.915 1.239-1.49 2.184-1.184zM25.95 25.301c-1.1 0.154-2.027 0.886-2.584 2.040-0.116 0.246-0.146 0.485-0.146 1.191 0 0.847 0.008 0.907 0.256 1.408 0.494 1.038 1.415 1.692 2.654 1.901 0.178 0.030 0.383 0.047 0.592 0.047 0.557 0 1.086-0.122 1.56-0.341l-0.023 0.010c0.511-0.224 1.33-1.008 1.525-1.454 0.826-1.901 0.053-3.917-1.78-4.631-0.45-0.178-1.441-0.264-2.053-0.171zM27.452 27.071c0.364 0.216 0.571 0.47 0.703 0.84 0.24 0.669 0.101 1.34-0.379 1.838-0.432 0.455-1.052 0.594-1.765 0.4-0.549-0.154-1.067-0.946-1.067-1.632 0-0.724 0.534-1.438 1.198-1.609 0.352-0.090 1.047-0.008 1.31 0.163zM12.589 25.394c-0.030 0.053-0.070 1.438-0.086 3.070-0.023 2.524-0.008 2.977 0.086 3.062 0.078 0.060 0.357 0.086 0.837 0.070l0.728-0.022 0.023-1.024c0.015-0.738 0.046-1.016 0.116-1.008 0.054 0 0.357 0.4 0.672 0.893 0.317 0.493 0.642 0.963 0.721 1.038 0.109 0.116 0.264 0.138 0.984 0.138 1.022 0 1.074-0.046 0.642-0.608s-1.284-1.7-1.378-1.831c-0.078-0.115-0.038-0.16 0.466-0.508 0.109-0.078 0.293-0.284 0.409-0.454 0.185-0.284 0.21-0.385 0.21-0.986-0.008-0.717-0.109-0.97-0.556-1.416s-0.721-0.508-2.336-0.508c-1.095 0-1.49 0.023-1.538 0.094zM15.205 26.908c0.294 0.291 0.302 0.616 0.016 0.93-0.177 0.183-0.286 0.231-0.582 0.246-0.202 0.008-0.394-0.007-0.424-0.038-0.079-0.078-0.132-0.93-0.072-1.169 0.046-0.176 0.086-0.194 0.44-0.194 0.334 0.002 0.428 0.040 0.622 0.224zM18.090 25.377c-0.117 0.115-0.038 6.094 0.078 6.17 0.146 0.101 1.4 0.070 1.502-0.030 0.061-0.060 0.094-0.4 0.094-1.030 0-0.784 0.022-0.946 0.124-0.986 0.070-0.022 0.448-0.046 0.852-0.046 0.766 0 0.976-0.060 1.469-0.43 0.131-0.101 0.326-0.325 0.424-0.508 0.147-0.284 0.178-0.448 0.178-1.102 0-0.87-0.116-1.192-0.589-1.624-0.473-0.438-0.744-0.493-2.483-0.493-0.976 0.002-1.6 0.033-1.648 0.078zM20.838 26.847c0.094 0.086 0.202 0.246 0.248 0.354 0.162 0.43-0.387 0.908-0.999 0.855l-0.286-0.022-0.022-0.677-0.023-0.669h0.458c0.344-0.002 0.486 0.035 0.625 0.158zM31.328 25.377l-0.619 0.038-0.046 1.076c-0.030 0.594-0.054 1.961-0.061 3.047-0.008 1.609 0.015 1.994 0.101 2.062 0.071 0.060 0.364 0.086 0.827 0.070l0.728-0.022 0.038-0.994c0.023-0.593 0.071-1.008 0.117-1.023s0.341 0.378 0.657 0.862c0.316 0.493 0.62 0.953 0.672 1.024 0.072 0.108 0.256 0.138 0.992 0.168 0.626 0.022 0.928 0.008 0.976-0.046 0.053-0.060-0.218-0.478-0.838-1.299l-0.904-1.218 0.232-0.153c0.199-0.153 0.375-0.309 0.54-0.477l0.001-0.001c0.278-0.27 0.334-0.37 0.379-0.754 0.154-1.224-0.308-2.040-1.33-2.316-0.48-0.128-0.998-0.136-2.462-0.045zM33.232 26.878c0.132 0.086 0.236 0.207 0.298 0.349l0.002 0.005c0.094 0.216 0.086 0.277-0.045 0.523-0.124 0.231-0.218 0.291-0.549 0.384-0.612 0.162-0.642 0.131-0.642-0.676 0-0.478 0.030-0.698 0.102-0.731 0.131-0.053 0.586 0.022 0.834 0.146zM46.982 25.369c-0.278 0.078-0.294 0.209-0.294 3.238 0 2.208 0.023 2.992 0.094 3.062 0.109 0.108 1.439 0.123 1.611 0.015 0.101-0.060 0.116-0.501 0.131-3.062 0.015-2.293 0-3.017-0.078-3.107-0.071-0.094-0.263-0.131-0.728-0.154-0.36-0.016-0.683-0.008-0.736 0.008zM51.399 25.485c-0.665 0.224-1.138 0.508-1.486 0.885-0.665 0.732-0.906 1.348-0.906 2.308 0 1.501 0.867 2.655 2.384 3.17 0.582 0.202 1.765 0.202 2.298 0.008 0.943-0.34 1.626-0.93 2.020-1.755 0.248-0.53 0.263-0.594 0.263-1.4 0-1.024-0.146-1.478-0.688-2.147-0.885-1.084-2.508-1.529-3.886-1.069zM53.134 27.064c0.364 0.168 0.672 0.462 0.859 0.832 0.162 0.332 0.162 1.176 0 1.508-0.424 0.832-1.33 1.184-2.128 0.822-0.736-0.332-1.037-0.784-1.030-1.576 0-0.602 0.132-0.915 0.504-1.248 0.54-0.487 1.198-0.608 1.794-0.338zM38.338 25.485c-0.078 0.093-0.316 0.724-0.472 1.24-0.038 0.122-0.195 0.578-0.35 1-0.053 0.116-0.172 0.448-0.285 0.782l-0.064 0.218c-0.030 0.124-0.184 0.579-0.349 1.002-0.080 0.195-0.197 0.527-0.304 0.863l-0.038 0.137c-0.041 0.154-0.090 0.287-0.152 0.413l0.006-0.013c-0.131 0.239-0.116 0.538 0.030 0.594 0.070 0.022 0.41 0.045 0.766 0.045 0.721 0 0.797-0.053 0.958-0.669 0.046-0.168 0.131-0.354 0.194-0.4 0.071-0.060 0.466-0.085 1.206-0.070l1.1 0.022 0.154 0.462c0.086 0.254 0.195 0.508 0.24 0.561 0.054 0.070 0.302 0.093 0.898 0.078 0.796-0.023 0.818-0.030 0.844-0.209 0.015-0.101-0.030-0.325-0.101-0.501-0.078-0.176-0.178-0.447-0.24-0.608-0.061-0.154-0.154-0.415-0.218-0.578-0.061-0.154-0.218-0.601-0.357-0.978-0.154-0.468-0.272-0.787-0.398-1.102l0.049 0.14c-0.116-0.278-0.314-0.853-0.499-1.434l-0.082-0.298c-0.057-0.207-0.12-0.38-0.194-0.548l0.010 0.026-0.125-0.284h-1.074c-0.798 0.002-1.084 0.027-1.155 0.11zM39.84 28.27c0.154 0.478 0.263 0.908 0.233 0.953-0.022 0.038-0.309 0.078-0.627 0.078-0.465 0-0.589-0.023-0.626-0.123-0.023-0.070 0.060-0.463 0.194-0.87 0.131-0.407 0.263-0.814 0.286-0.915 0.083-0.314 0.248-0.053 0.541 0.878zM42.082 25.454c-0.030 0.046-0.053 0.299-0.045 0.56 0 0.909-0.054 0.823 0.518 0.823 0.89 0 0.827-0.194 0.797 2.469-0.030 1.986-0.015 2.315 0.086 2.378 0.061 0.045 0.45 0.070 0.852 0.060l0.736-0.022 0.023-2.386c0.014-1.786 0.038-2.394 0.116-2.439 0.046-0.030 0.293-0.060 0.534-0.060 0.548 0 0.68-0.146 0.68-0.754 0-0.754 0.131-0.709-2.205-0.709-1.325 0.002-2.058 0.035-2.091 0.080zM56.638 25.555c-0.131 0.1-0.146 0.314-0.184 3.092-0.038 2.839-0.031 2.992 0.101 3.093 0.194 0.131 1.355 0.138 1.532 0 0.116-0.078 0.131-0.299 0.146-1.747 0.016-1.2 0.046-1.654 0.116-1.654 0.094 0 0.309 0.262 1.78 2.177 0.496 0.646 0.958 1.208 1.037 1.255 0.162 0.086 1.386 0.093 1.51 0.008 0.060-0.038 0.101-1.024 0.138-3.108 0.054-2.992 0.054-3.055-0.101-3.133-0.177-0.101-1.393-0.116-1.532-0.023-0.070 0.046-0.101 0.494-0.116 1.632-0.016 1.076-0.054 1.576-0.109 1.592-0.094 0.030-0.278-0.184-1.664-1.939-0.472-0.593-0.928-1.138-1.014-1.216-0.202-0.166-1.416-0.189-1.641-0.028z"></path>
</symbol>
<symbol id="icon-journees_logo" viewBox="0 0 237 32">
<path fill="#828282" style="fill: var(--color1, #828282)" opacity="0.7" d="M20.511 6.193l-3.413 5.371 8.724 0.005-9.861 12.066-0.528 0.631-0.38 0.457c-0.762 0.844-1.849 1.264-3.353 1.3h-7.157l-4.543 5.438h9.309c3.856 0 6.711-0.7 9.849-2.421 1.498-0.842 2.454-1.648 4.124-3.651l16.031-19.196h-18.801zM55.216 21.018l8.733-10.458c0.235-0.281 0.469-0.562 0.59-0.843 1.109-2.281-0.448-3.405-4.755-3.405h-10.434c-4.309 0-7.743 1.124-10.385 3.406-0.319 0.252-0.611 0.533-0.875 0.842l-8.733 10.459c-0.178 0.282-0.411 0.561-0.531 0.843-1.168 2.279 0.389 3.405 4.697 3.405h10.435c4.31 0 7.744-1.124 10.443-3.406 0.345-0.279 0.58-0.56 0.816-0.842zM48.044 19.894c-0.689 0.348-1.434 0.56-1.828 0.56h-6.863c-0.011 0-0.025 0.001-0.038 0.001-0.303 0-0.577-0.121-0.777-0.318l0 0c-0.218-0.278-0.182-0.596 0.142-0.981l5.626-6.738c0.323-0.386 0.813-0.702 1.501-0.983 0.517-0.21 1.003-0.317 1.342-0.317h6.862c0.282 0 0.592 0.106 0.757 0.317 0.275 0.281 0.237 0.597-0.085 0.983l-5.597 6.704c-0.234 0.283-0.638 0.562-1.041 0.772zM103.673 21.426c3.725-0.317 7.279-1.719 9.92-4.002 0.41-0.349 0.7-0.702 0.991-1.052l4.223-5.054c0.26-0.316 0.528-0.633 0.705-0.983 1.607-2.737-0.003-4.141-4.876-4.141h-23.121l-15.62 18.705-0.203 0.176c-0.641 0.631-1.698 0.949-3.742 0.949h-5.952c-2.043 0-2.571-0.318-2.158-1.020l0.146-0.176 0.499-0.595 15.061-18.039h-8.786l-15.854 18.987c-1.669 2-2.030 2.704-2.052 3.546 0.005 1.893 1.796 2.737 5.937 2.737h11.285c4.138 0 7.279-0.845 10.539-2.773 1.381-0.843 2.197-1.545 3.865-3.548l11.285-13.509h11.322c0.17 0 0.399 0 0.538 0.035 1.414 0.141 1.658 0.597 0.923 1.475l-1.931 2.315c-0.848 1.019-1.884 1.439-3.527 1.439h-3.572c-3.006 0-5.899 1.088-7.94 3.196-0.788 0.806-1.060 1.473-0.959 1.965l1.389 9.406h10.377l-1.63-10.003 1.335 0.033c0.503 0 1.045-0.033 1.584-0.067zM147.876 9.962c1.398-2.422 0.158-3.65-4.156-3.65h-10.773c-4.306 0-7.602 1.228-10.247 3.65-0.291 0.282-0.61 0.597-0.846 0.877l-12.046 14.427h7.769l10.931-13.091c0.786-0.738 1.73-1.054 3.377-1.054h4.819c1.646 0 2.062 0.316 1.616 1.054-0.027 0.105-0.119 0.209-0.176 0.281l-10.7 12.811h7.771l12.045-14.427c0.23-0.279 0.441-0.594 0.617-0.877zM151.004 19.124l0.265-0.318 21.008-4.107 3.167-3.79c0.236-0.282 0.469-0.562 0.615-0.806 1.362-2.176 0.487-3.371-2.791-3.721-0.422-0.035-0.845-0.071-1.302-0.071h-10.546c-4.254 0-7.547 1.159-10.331 3.474-0.351 0.292-0.664 0.602-0.95 0.936l-0.009 0.011-8.030 9.616c-1.85 2.211-1.881 3.475 0.077 4.388 0.757 0.385 1.661 0.527 4.154 0.527h17.069l4.015-4.811h-15.989c-0.964 0.001-1.063-0.559-0.42-1.33zM156.342 12.594c0.143-0.175 0.348-0.351 0.578-0.492 0.547-0.315 1.092-0.491 2.005-0.631 0.451-0.070 0.766-0.105 0.937-0.105h5.441c0.116 0 0.23 0 0.371 0.034 0.817 0.105 1.011 0.421 0.858 0.736l-0.057 0.071-0.092 0.106-11.65 2.21 1.609-1.93zM212.638 11.997c0.113-0.139 0.464-0.35 1.206-0.629l0.259-0.107c0.243-0.061 0.49-0.108 0.739-0.141h14.121l3.957-4.809h-15.653c-3.968 0-7.456 1.124-9.983 3.195-0.459 0.35-0.837 0.736-1.133 1.088l-2.961 3.543c-1.232 1.472-1.004 2.563 0.983 3.509 0.672 0.352 1.659 0.527 2.905 0.527h6.692c0.506 0.071 0.672 0.21 0.692 0.525-0.022 0.163-0.087 0.308-0.183 0.426l0.001-0.002-0.321 0.386c-0.064 0.084-0.142 0.154-0.23 0.208l-0.004 0.002c-0.549 0.455-1.151 0.631-2.145 0.736h-31.925c-0.966 0-1.060-0.56-0.415-1.331l0.259-0.317 21.013-4.107 3.162-3.79c0.225-0.254 0.432-0.524 0.619-0.806 1.364-2.176 0.486-3.37-2.791-3.721-0.426-0.035-0.85-0.071-1.302-0.071h-10.548c-4.252 0-7.545 1.159-10.334 3.474-0.346 0.288-0.666 0.605-0.957 0.947l-8.032 9.616c-1.844 2.211-1.875 3.475 0.081 4.388 0.757 0.386 1.66 0.527 4.156 0.527h35.152c2.893 0 4.749-0.459 7.678-1.932 1.328-0.702 2.42-1.474 3.095-2.281l3.015-3.475c0.675-0.805 0.902-1.824 0.446-2.773-0.537-0.981-1.689-1.437-3.676-1.437h-6.916c-0.85-0.068-1.1-0.175-1.182-0.35-0.077-0.245-0.015-0.457 0.073-0.562l0.386-0.459zM184.579 12.594c0.166-0.193 0.362-0.359 0.581-0.492 0.546-0.315 1.089-0.491 2.002-0.631 0.454-0.070 0.768-0.105 0.937-0.105h5.446c0.114 0 0.225 0 0.366 0.034 0.82 0.105 1.009 0.421 0.861 0.736l-0.060 0.071-0.089 0.106-11.657 2.21 1.612-1.93zM109.005 26.775h1.254v0.723c0.304-0.249 0.579-0.429 0.828-0.542 0.407-0.178 0.882-0.281 1.381-0.281 0.022 0 0.044 0 0.066 0.001l-0.003-0c0.609 0 1.1 0.095 1.473 0.294 0.209 0.113 0.399 0.276 0.572 0.494 0.287-0.269 0.625-0.466 1.014-0.596 0.388-0.13 0.826-0.192 1.31-0.192 1.038 0 1.743 0.243 2.117 0.732 0.204 0.267 0.302 0.619 0.302 1.061v3.357h-1.328v-3.5c0-0.339-0.131-0.572-0.389-0.699-0.26-0.117-0.564-0.185-0.884-0.185-0.022 0-0.043 0-0.065 0.001l0.003-0c-0.512 0-0.954 0.112-1.323 0.335-0.37 0.224-0.555 0.595-0.555 1.115v2.934h-1.28v-3.318c0-0.347-0.063-0.598-0.186-0.756-0.196-0.238-0.561-0.356-1.098-0.356-0.487 0-0.931 0.13-1.33 0.39-0.4 0.263-0.598 0.719-0.598 1.371v2.672h-1.28v-5.054h-0.001zM122.481 26.775v3.388c0 0.256 0.062 0.468 0.185 0.637 0.225 0.304 0.645 0.459 1.263 0.459 0.882 0 1.486-0.269 1.805-0.803 0.176-0.286 0.262-0.678 0.262-1.178v-2.502h1.278v5.051h-1.203l0.015-0.704c-0.174 0.192-0.381 0.352-0.612 0.47-0.482 0.254-1.069 0.384-1.758 0.384-1.074 0-1.808-0.241-2.195-0.725-0.212-0.258-0.317-0.604-0.317-1.034v-3.441h1.278v-0.003zM130.141 30.242c0.021 0.245 0.137 0.474 0.321 0.638 0.327 0.269 0.895 0.402 1.701 0.402 0.482 0 0.906-0.069 1.271-0.205 0.363-0.137 0.546-0.349 0.546-0.635 0-0.218-0.145-0.381-0.437-0.495-0.186-0.070-0.556-0.148-1.105-0.238l-1.024-0.169c-0.656-0.11-1.135-0.23-1.447-0.364-0.556-0.227-0.83-0.542-0.83-0.946 0-0.481 0.262-0.868 0.788-1.165 0.525-0.294 1.234-0.442 2.124-0.442 1.163 0 2.003 0.224 2.516 0.673 0.322 0.284 0.478 0.587 0.467 0.912h-1.229c-0.035-0.217-0.148-0.404-0.31-0.532l-0.002-0.001c-0.299-0.224-0.817-0.334-1.555-0.334-0.49 0-0.866 0.062-1.118 0.182-0.252 0.125-0.379 0.288-0.379 0.486 0 0.222 0.166 0.402 0.498 0.533 0.192 0.081 0.475 0.149 0.85 0.206l0.855 0.141c0.929 0.146 1.553 0.288 1.87 0.425 0.513 0.218 0.77 0.558 0.77 1.024 0 0.448-0.261 0.837-0.783 1.167-0.522 0.326-1.315 0.491-2.384 0.491-1.149 0-1.963-0.171-2.439-0.508-0.48-0.338-0.735-0.754-0.769-1.248h1.232zM136.724 25.885h1.28v-0.991h-1.28v0.991zM136.724 31.826h1.28v-5.051h-1.28v5.051zM145.054 27.041c0.544 0.277 0.87 0.757 0.978 1.443h-1.253c-0.080-0.334-0.267-0.615-0.524-0.811l-0.003-0.003c-0.269-0.218-0.707-0.324-1.307-0.324-0.823 0-1.411 0.268-1.766 0.805-0.227 0.351-0.341 0.785-0.341 1.299 0 0.512 0.161 0.949 0.484 1.301 0.327 0.352 0.836 0.531 1.536 0.531 0.534 0 0.959-0.107 1.27-0.32 0.314-0.214 0.529-0.505 0.651-0.867h1.253c-0.143 0.66-0.501 1.141-1.076 1.449-0.573 0.302-1.308 0.455-2.199 0.455-1.006 0-1.808-0.241-2.405-0.726-0.596-0.483-0.895-1.090-0.895-1.823 0-0.89 0.33-1.585 0.981-2.080 0.658-0.495 1.491-0.745 2.505-0.745 0.865 0 1.57 0.139 2.112 0.415zM147.596 30.811h1.507v1.015h-1.507v-1.015zM232.375 2.386c0-1.133 0.865-1.986 1.975-1.986 1.094 0 1.961 0.853 1.961 1.986 0 1.152-0.866 2.001-1.961 2.001-1.111 0-1.975-0.849-1.975-2.001zM234.35 4.786c1.323 0 2.45-1.014 2.45-2.4 0-1.373-1.127-2.386-2.45-2.386-1.335 0-2.465 1.013-2.465 2.386 0 1.386 1.131 2.4 2.465 2.4zM233.836 2.576h0.487l0.739 1.195h0.475l-0.797-1.214c0.411-0.051 0.724-0.267 0.724-0.759 0-0.544-0.326-0.785-0.986-0.785h-1.066v2.759h0.422v-2.404h0.578c0.294 0 0.608 0.064 0.608 0.405 0 0.422-0.322 0.448-0.679 0.448h-0.507v0.355z"></path>
</symbol>
<symbol id="icon-TESLA_LOGO" viewBox="0 0 248 32">
<path fill="#828282" style="fill: var(--color1, #828282)" opacity="0.7" d="M212.27 12.694v19.306h6.231v-12.87h22.787v12.87h6.231v-19.306h-35.249zM217.788 6.435h24.033c3.383-0.616 5.787-3.612 6.499-6.435h-37.029c0.712 2.821 3.204 5.731 6.497 6.436zM193.311 32c3.116-1.322 4.806-3.615 5.518-6.259h-28.038v-25.651h-6.321v31.91h28.841zM117.74 6.348h22.253c3.382-0.97 6.141-3.526 6.853-6.259h-35.249v18.865h28.84v6.611h-22.609c-3.561 0.97-6.587 3.35-8.1 6.436h36.94v-19.306h-28.84l-0.090-6.346zM62.907 6.436h24.033c3.383-0.618 5.875-3.615 6.5-6.436h-37.12c0.712 2.821 3.205 5.731 6.587 6.436zM62.907 19.041h24.033c3.383-0.617 5.875-3.615 6.499-6.436h-37.119c0.712 2.821 3.205 5.731 6.587 6.436zM62.907 32h24.033c3.383-0.617 5.875-3.615 6.499-6.435h-37.119c0.712 2.82 3.205 5.818 6.587 6.435zM0 0.090c0.717 2.829 3.226 5.658 6.543 6.364h10.217l0.538 0.177v25.37h6.364v-25.37l0.538-0.177h10.217c3.407-0.883 5.827-3.537 6.543-6.365v-0.088l-40.96 0.090z"></path>
</symbol>
</defs>
</svg>
