<!-- Generated by IcoMoon.io -->
<svg version="1.1" xmlns="http://www.w3.org/2000/svg" width="35" height="32" viewBox="0 0 35 32">
<title>amazon_logo</title>
<path fill="#828282" opacity="0.7" d="M0.064 24.832c0.106-0.171 0.277-0.181 0.511-0.032 5.322 3.093 11.111 4.64 17.369 4.64 4.172 0 8.291-0.779 12.357-2.336 0.106-0.043 0.261-0.107 0.463-0.192s0.346-0.149 0.431-0.192c0.319-0.128 0.569-0.064 0.75 0.192s0.122 0.491-0.176 0.704c-0.383 0.277-0.873 0.597-1.469 0.96-1.831 1.088-3.874 1.931-6.13 2.528s-4.459 0.896-6.609 0.896c-3.321 0-6.46-0.581-9.419-1.744s-5.609-2.8-7.95-4.912c-0.128-0.107-0.192-0.213-0.192-0.32 0-0.064 0.021-0.128 0.064-0.192zM9.675 15.712c0-1.472 0.362-2.731 1.086-3.776s1.713-1.835 2.969-2.368c1.149-0.491 2.565-0.843 4.247-1.056 0.575-0.064 1.511-0.149 2.81-0.256v-0.544c0-1.365-0.149-2.283-0.447-2.752-0.447-0.64-1.149-0.96-2.107-0.96h-0.255c-0.702 0.064-1.309 0.288-1.82 0.672s-0.841 0.917-0.99 1.6c-0.085 0.427-0.298 0.672-0.639 0.736l-3.672-0.448c-0.362-0.085-0.543-0.277-0.543-0.576 0-0.064 0.011-0.139 0.032-0.224 0.362-1.899 1.251-3.307 2.666-4.224s3.070-1.429 4.965-1.536h0.798c2.427 0 4.321 0.629 5.683 1.888 0.214 0.214 0.411 0.444 0.591 0.688 0.181 0.245 0.325 0.464 0.431 0.656s0.202 0.469 0.287 0.832 0.149 0.613 0.192 0.752c0.043 0.139 0.074 0.437 0.096 0.896s0.032 0.731 0.032 0.816v7.744c0 0.555 0.080 1.061 0.239 1.52s0.314 0.789 0.463 0.992 0.394 0.528 0.734 0.976c0.128 0.192 0.192 0.363 0.192 0.512 0 0.171-0.085 0.32-0.255 0.448-1.767 1.536-2.725 2.368-2.874 2.496-0.255 0.192-0.564 0.213-0.926 0.064-0.298-0.256-0.559-0.501-0.782-0.736s-0.383-0.405-0.479-0.512c-0.096-0.107-0.25-0.315-0.463-0.624s-0.362-0.517-0.447-0.624c-1.192 1.301-2.363 2.112-3.512 2.432-0.724 0.213-1.618 0.32-2.682 0.32-1.639 0-2.985-0.507-4.039-1.52s-1.581-2.448-1.581-4.304zM15.166 15.072c0 0.832 0.208 1.499 0.623 2s0.974 0.752 1.676 0.752c0.064 0 0.154-0.011 0.271-0.032s0.197-0.032 0.239-0.032c0.894-0.235 1.586-0.811 2.075-1.728 0.234-0.405 0.41-0.848 0.527-1.328s0.181-0.869 0.192-1.168c0.011-0.299 0.016-0.789 0.016-1.472v-0.8c-1.235 0-2.171 0.085-2.81 0.256-1.873 0.533-2.81 1.717-2.81 3.552zM28.576 25.376c0.043-0.085 0.106-0.171 0.192-0.256 0.532-0.363 1.043-0.608 1.533-0.736 0.809-0.213 1.596-0.331 2.363-0.352 0.213-0.021 0.415-0.011 0.607 0.032 0.958 0.085 1.533 0.245 1.724 0.48 0.085 0.128 0.128 0.32 0.128 0.576v0.224c0 0.747-0.202 1.627-0.607 2.64s-0.968 1.829-1.692 2.448c-0.106 0.085-0.202 0.128-0.287 0.128-0.043 0-0.085-0.011-0.128-0.032-0.128-0.064-0.16-0.181-0.096-0.352 0.788-1.856 1.181-3.147 1.181-3.872 0-0.235-0.043-0.405-0.128-0.512-0.213-0.256-0.809-0.384-1.788-0.384-0.362 0-0.788 0.021-1.277 0.064-0.532 0.064-1.022 0.128-1.469 0.192-0.128 0-0.213-0.021-0.255-0.064s-0.053-0.085-0.032-0.128c0-0.021 0.011-0.053 0.032-0.096z"></path>
</svg>
