<!-- Generated by IcoMoon.io -->
<svg version="1.1" xmlns="http://www.w3.org/2000/svg" width="110" height="32" viewBox="0 0 110 32">
<title>BRITOSH_LOGO</title>
<path fill="#828282" opacity="0.7" d="M37.403 14.448v-13.275h4.841c1.027 0 1.687 0.22 2.274 0.441 1.32 0.66 1.906 1.907 1.906 3.007 0 1.247-0.514 2.127-1.541 2.787 1.541 0.366 2.421 1.393 2.421 3.006 0 1.834-1.101 3.154-2.935 3.741-0.659 0.219-1.392 0.293-2.493 0.293l-4.473 0.001zM43.345 3.447c-0.367-0.146-0.733-0.22-1.247-0.22h-2.493v3.447h2.347c0.659 0 1.1-0.073 1.466-0.293 0.485-0.274 0.807-0.786 0.807-1.373 0-0.007-0-0.014-0-0.021v0.001c0-0.659-0.366-1.247-0.88-1.54zM44.005 8.947c-0.293-0.146-0.733-0.22-1.466-0.22h-2.934v3.666h2.714c0.88 0 1.321-0.146 1.687-0.293 0.66-0.293 0.954-0.88 0.954-1.614s-0.293-1.246-0.954-1.54zM60.507 14.448v-13.275h2.275v13.275h-2.275zM77.008 14.448v-13.275h2.274v13.275h-2.274zM86.544 1.099c1.466 0 2.933 0.368 3.739 0.734l-0.073 2.201c-1.174-0.587-2.273-0.954-3.666-0.954-1.247 0-2.347 0.366-2.347 1.393 0 2.714 6.821 1.613 6.821 6.086 0 2.494-2.053 4.034-5.134 4.034-2.053 0-3.447-0.586-4.474-1.173l0.954-1.834c0.807 0.514 2.128 1.027 3.593 1.027 1.393 0 2.64-0.513 2.64-1.687 0-2.861-6.747-1.613-6.747-6.087 0-2.419 1.906-3.739 4.694-3.739zM101.724 14.448v-5.72h-6.382v5.72h-2.273v-13.275h2.273v5.429h6.382v-5.428h2.273v13.275h-2.273zM42.391 16.722c1.393 0 2.494 0.293 3.666 0.806l-0.658 1.907c-0.661-0.294-1.541-0.66-2.788-0.66-2.493 0-4.034 2.127-4.034 4.694 0 2.64 1.467 4.767 4.034 4.767 1.246 0 2.127-0.367 2.787-0.66l0.66 1.906c-1.174 0.513-2.274 0.807-3.666 0.807-3.961 0-6.235-2.787-6.235-6.747 0-3.74 2.275-6.821 6.235-6.821zM91.97 16.722c1.466 0 2.567 0.293 3.666 0.806l-0.66 1.907c-0.66-0.294-1.541-0.66-2.786-0.66-2.494 0-4.034 2.127-4.034 4.694 0 2.64 1.466 4.767 4.034 4.767 1.246 0 2.126-0.367 2.786-0.66l0.66 1.906c-1.1 0.513-2.201 0.807-3.666 0.807-3.961 0-6.234-2.787-6.234-6.747 0-3.74 2.274-6.821 6.234-6.821zM58.965 23.47c0 3.96-2.492 6.821-6.233 6.821s-6.234-2.787-6.234-6.747 2.494-6.821 6.234-6.821c3.813 0 6.233 2.787 6.233 6.747zM56.619 23.47c0-2.862-1.686-4.695-3.887-4.695s-3.887 1.834-3.887 4.767c0 2.862 1.687 4.694 3.886 4.694 2.202 0 3.888-1.833 3.888-4.767zM60.506 25.082v-8.214h2.275v8.287c0 2.274 1.174 3.081 3.080 3.081s3.079-0.807 3.079-3.081v-8.287h2.273v8.214c0 3.594-2.053 5.208-5.352 5.208-3.301 0-5.355-1.614-5.355-5.208zM75.467 20.463h-0.073c0.073 0.439 0.073 1.173 0.073 1.76v7.847h-2.273v-13.202h2.494l6.086 9.021h0.073c-0.073-0.44-0.073-1.174-0.073-1.76v-7.261h2.274v13.201h-1.98l-6.601-9.607zM97.397 30.070v-13.202h2.273v13.201h-2.273zM101.723 30.070v-13.202h2.273v11.148h5.208v2.053h-7.481zM75.248 1.247h-10.708v2.053h4.254v11.148h2.274v-11.147h4.18v-2.054zM56.474 14.448c-1.908-4.034-2.421-5.134-3.227-5.134h-2.128v5.134h-2.273v-13.2h4.474c3.447 0 4.694 1.76 4.694 3.739 0 1.834-0.954 3.007-2.42 3.447 0.587 0.367 1.247 1.614 3.447 6.014h-2.566zM53.466 3.227h-2.348v4.034h2.273c1.614 0 2.347-0.806 2.347-2.053 0-1.1-0.659-1.98-2.273-1.98zM15.181 7.554c0 4.181-3.447 7.554-7.627 7.554-4.107 0-7.554-3.374-7.554-7.554s3.447-7.554 7.554-7.554c4.18 0 7.627 3.374 7.627 7.554zM31.316 7.554c0 0.004 0 0.008 0 0.012 0 4.165-3.377 7.542-7.542 7.542-0.004 0-0.008 0-0.013 0h0.001c-0.003 0-0.007 0-0.011 0-4.166 0-7.543-3.377-7.543-7.543 0-0.004 0-0.008 0-0.012v0.001c0-0.003 0-0.007 0-0.011 0-4.166 3.377-7.543 7.543-7.543 0.004 0 0.008 0 0.012 0h-0.001c0.003 0 0.007 0 0.011 0 4.166 0 7.543 3.377 7.543 7.543 0 0.004 0 0.008 0 0.012v-0.001zM15.181 23.762c0 4.18-3.447 7.554-7.627 7.554-4.107 0-7.554-3.374-7.554-7.554s3.447-7.554 7.554-7.554c4.18 0 7.627 3.373 7.627 7.554zM31.316 23.762c0 0.004 0 0.008 0 0.013 0 4.165-3.376 7.541-7.541 7.541-0.005 0-0.009 0-0.014 0h0.001c-0.003 0-0.006 0-0.009 0-4.167 0-7.545-3.378-7.545-7.545 0-0.003 0-0.006 0-0.010v0c0-0.004 0-0.008 0-0.012 0-4.165 3.377-7.542 7.542-7.542 0.004 0 0.008 0 0.013 0h-0.001c0.003 0 0.007 0 0.011 0 4.166 0 7.543 3.377 7.543 7.543 0 0.004 0 0.008 0 0.012v-0.001z"></path>
</svg>
