<!-- Generated by IcoMoon.io -->
<svg version="1.1" xmlns="http://www.w3.org/2000/svg" width="32" height="32" viewBox="0 0 32 32">
<title>call_icon</title>
<path fill="#828282" d="M29.428 4.874l-4.098-4.094c-0.479-0.482-1.143-0.781-1.877-0.781s-1.398 0.299-1.877 0.781l-0 0-4.414 4.406c-0.482 0.481-0.78 1.145-0.78 1.879s0.298 1.399 0.78 1.879l0 0 3.446 3.451c-0.828 1.902-1.949 3.526-3.323 4.896l-0 0c-1.369 1.376-2.991 2.499-4.791 3.291l-0.1 0.039-3.446-3.449c-0.479-0.482-1.143-0.781-1.877-0.781s-1.397 0.299-1.877 0.781l-0 0-4.414 4.404c-0.483 0.481-0.781 1.146-0.781 1.881s0.299 1.4 0.781 1.881l4.094 4.091c0.832 0.827 1.979 1.338 3.246 1.338 0.258 0 0.51-0.021 0.756-0.062l-0.027 0.004c5.095-0.837 10.146-3.55 14.228-7.626 4.076-4.086 6.784-9.137 7.631-14.235 0.038-0.221 0.059-0.476 0.059-0.736 0-1.265-0.512-2.409-1.34-3.239l0 0zM27.98 8.394c-0.751 4.534-3.188 9.058-6.86 12.729-3.673 3.673-8.192 6.112-12.726 6.863-0.087 0.015-0.187 0.023-0.288 0.023-0.501 0-0.954-0.204-1.282-0.533l-4.020-4.017 4.261-4.266 4.642 4.65 0.832-0.308c5.112-1.917 9.074-5.88 10.946-10.866l0.042-0.128 0.308-0.83-4.647-4.642 4.263-4.266 4.017 4.020c0.33 0.327 0.535 0.78 0.535 1.281 0 0.101-0.008 0.201-0.024 0.297l0.001-0.011z"></path>
</svg>
