<!-- Generated by IcoMoon.io -->
<svg version="1.1" xmlns="http://www.w3.org/2000/svg" width="237" height="32" viewBox="0 0 237 32">
<title>journees_logo</title>
<path fill="#828282" opacity="0.7" d="M20.511 6.193l-3.413 5.371 8.724 0.005-9.861 12.066-0.528 0.631-0.38 0.457c-0.762 0.844-1.849 1.264-3.353 1.3h-7.157l-4.543 5.438h9.309c3.856 0 6.711-0.7 9.849-2.421 1.498-0.842 2.454-1.648 4.124-3.651l16.031-19.196h-18.801zM55.216 21.018l8.733-10.458c0.235-0.281 0.469-0.562 0.59-0.843 1.109-2.281-0.448-3.405-4.755-3.405h-10.434c-4.309 0-7.743 1.124-10.385 3.406-0.319 0.252-0.611 0.533-0.875 0.842l-8.733 10.459c-0.178 0.282-0.411 0.561-0.531 0.843-1.168 2.279 0.389 3.405 4.697 3.405h10.435c4.31 0 7.744-1.124 10.443-3.406 0.345-0.279 0.58-0.56 0.816-0.842zM48.044 19.894c-0.689 0.348-1.434 0.56-1.828 0.56h-6.863c-0.011 0-0.025 0.001-0.038 0.001-0.303 0-0.577-0.121-0.777-0.318l0 0c-0.218-0.278-0.182-0.596 0.142-0.981l5.626-6.738c0.323-0.386 0.813-0.702 1.501-0.983 0.517-0.21 1.003-0.317 1.342-0.317h6.862c0.282 0 0.592 0.106 0.757 0.317 0.275 0.281 0.237 0.597-0.085 0.983l-5.597 6.704c-0.234 0.283-0.638 0.562-1.041 0.772zM103.673 21.426c3.725-0.317 7.279-1.719 9.92-4.002 0.41-0.349 0.7-0.702 0.991-1.052l4.223-5.054c0.26-0.316 0.528-0.633 0.705-0.983 1.607-2.737-0.003-4.141-4.876-4.141h-23.121l-15.62 18.705-0.203 0.176c-0.641 0.631-1.698 0.949-3.742 0.949h-5.952c-2.043 0-2.571-0.318-2.158-1.020l0.146-0.176 0.499-0.595 15.061-18.039h-8.786l-15.854 18.987c-1.669 2-2.030 2.704-2.052 3.546 0.005 1.893 1.796 2.737 5.937 2.737h11.285c4.138 0 7.279-0.845 10.539-2.773 1.381-0.843 2.197-1.545 3.865-3.548l11.285-13.509h11.322c0.17 0 0.399 0 0.538 0.035 1.414 0.141 1.658 0.597 0.923 1.475l-1.931 2.315c-0.848 1.019-1.884 1.439-3.527 1.439h-3.572c-3.006 0-5.899 1.088-7.94 3.196-0.788 0.806-1.060 1.473-0.959 1.965l1.389 9.406h10.377l-1.63-10.003 1.335 0.033c0.503 0 1.045-0.033 1.584-0.067zM147.876 9.962c1.398-2.422 0.158-3.65-4.156-3.65h-10.773c-4.306 0-7.602 1.228-10.247 3.65-0.291 0.282-0.61 0.597-0.846 0.877l-12.046 14.427h7.769l10.931-13.091c0.786-0.738 1.73-1.054 3.377-1.054h4.819c1.646 0 2.062 0.316 1.616 1.054-0.027 0.105-0.119 0.209-0.176 0.281l-10.7 12.811h7.771l12.045-14.427c0.23-0.279 0.441-0.594 0.617-0.877zM151.004 19.124l0.265-0.318 21.008-4.107 3.167-3.79c0.236-0.282 0.469-0.562 0.615-0.806 1.362-2.176 0.487-3.371-2.791-3.721-0.422-0.035-0.845-0.071-1.302-0.071h-10.546c-4.254 0-7.547 1.159-10.331 3.474-0.351 0.292-0.664 0.602-0.95 0.936l-0.009 0.011-8.030 9.616c-1.85 2.211-1.881 3.475 0.077 4.388 0.757 0.385 1.661 0.527 4.154 0.527h17.069l4.015-4.811h-15.989c-0.964 0.001-1.063-0.559-0.42-1.33zM156.342 12.594c0.143-0.175 0.348-0.351 0.578-0.492 0.547-0.315 1.092-0.491 2.005-0.631 0.451-0.070 0.766-0.105 0.937-0.105h5.441c0.116 0 0.23 0 0.371 0.034 0.817 0.105 1.011 0.421 0.858 0.736l-0.057 0.071-0.092 0.106-11.65 2.21 1.609-1.93zM212.638 11.997c0.113-0.139 0.464-0.35 1.206-0.629l0.259-0.107c0.243-0.061 0.49-0.108 0.739-0.141h14.121l3.957-4.809h-15.653c-3.968 0-7.456 1.124-9.983 3.195-0.459 0.35-0.837 0.736-1.133 1.088l-2.961 3.543c-1.232 1.472-1.004 2.563 0.983 3.509 0.672 0.352 1.659 0.527 2.905 0.527h6.692c0.506 0.071 0.672 0.21 0.692 0.525-0.022 0.163-0.087 0.308-0.183 0.426l0.001-0.002-0.321 0.386c-0.064 0.084-0.142 0.154-0.23 0.208l-0.004 0.002c-0.549 0.455-1.151 0.631-2.145 0.736h-31.925c-0.966 0-1.060-0.56-0.415-1.331l0.259-0.317 21.013-4.107 3.162-3.79c0.225-0.254 0.432-0.524 0.619-0.806 1.364-2.176 0.486-3.37-2.791-3.721-0.426-0.035-0.85-0.071-1.302-0.071h-10.548c-4.252 0-7.545 1.159-10.334 3.474-0.346 0.288-0.666 0.605-0.957 0.947l-8.032 9.616c-1.844 2.211-1.875 3.475 0.081 4.388 0.757 0.386 1.66 0.527 4.156 0.527h35.152c2.893 0 4.749-0.459 7.678-1.932 1.328-0.702 2.42-1.474 3.095-2.281l3.015-3.475c0.675-0.805 0.902-1.824 0.446-2.773-0.537-0.981-1.689-1.437-3.676-1.437h-6.916c-0.85-0.068-1.1-0.175-1.182-0.35-0.077-0.245-0.015-0.457 0.073-0.562l0.386-0.459zM184.579 12.594c0.166-0.193 0.362-0.359 0.581-0.492 0.546-0.315 1.089-0.491 2.002-0.631 0.454-0.070 0.768-0.105 0.937-0.105h5.446c0.114 0 0.225 0 0.366 0.034 0.82 0.105 1.009 0.421 0.861 0.736l-0.060 0.071-0.089 0.106-11.657 2.21 1.612-1.93zM109.005 26.775h1.254v0.723c0.304-0.249 0.579-0.429 0.828-0.542 0.407-0.178 0.882-0.281 1.381-0.281 0.022 0 0.044 0 0.066 0.001l-0.003-0c0.609 0 1.1 0.095 1.473 0.294 0.209 0.113 0.399 0.276 0.572 0.494 0.287-0.269 0.625-0.466 1.014-0.596 0.388-0.13 0.826-0.192 1.31-0.192 1.038 0 1.743 0.243 2.117 0.732 0.204 0.267 0.302 0.619 0.302 1.061v3.357h-1.328v-3.5c0-0.339-0.131-0.572-0.389-0.699-0.26-0.117-0.564-0.185-0.884-0.185-0.022 0-0.043 0-0.065 0.001l0.003-0c-0.512 0-0.954 0.112-1.323 0.335-0.37 0.224-0.555 0.595-0.555 1.115v2.934h-1.28v-3.318c0-0.347-0.063-0.598-0.186-0.756-0.196-0.238-0.561-0.356-1.098-0.356-0.487 0-0.931 0.13-1.33 0.39-0.4 0.263-0.598 0.719-0.598 1.371v2.672h-1.28v-5.054h-0.001zM122.481 26.775v3.388c0 0.256 0.062 0.468 0.185 0.637 0.225 0.304 0.645 0.459 1.263 0.459 0.882 0 1.486-0.269 1.805-0.803 0.176-0.286 0.262-0.678 0.262-1.178v-2.502h1.278v5.051h-1.203l0.015-0.704c-0.174 0.192-0.381 0.352-0.612 0.47-0.482 0.254-1.069 0.384-1.758 0.384-1.074 0-1.808-0.241-2.195-0.725-0.212-0.258-0.317-0.604-0.317-1.034v-3.441h1.278v-0.003zM130.141 30.242c0.021 0.245 0.137 0.474 0.321 0.638 0.327 0.269 0.895 0.402 1.701 0.402 0.482 0 0.906-0.069 1.271-0.205 0.363-0.137 0.546-0.349 0.546-0.635 0-0.218-0.145-0.381-0.437-0.495-0.186-0.070-0.556-0.148-1.105-0.238l-1.024-0.169c-0.656-0.11-1.135-0.23-1.447-0.364-0.556-0.227-0.83-0.542-0.83-0.946 0-0.481 0.262-0.868 0.788-1.165 0.525-0.294 1.234-0.442 2.124-0.442 1.163 0 2.003 0.224 2.516 0.673 0.322 0.284 0.478 0.587 0.467 0.912h-1.229c-0.035-0.217-0.148-0.404-0.31-0.532l-0.002-0.001c-0.299-0.224-0.817-0.334-1.555-0.334-0.49 0-0.866 0.062-1.118 0.182-0.252 0.125-0.379 0.288-0.379 0.486 0 0.222 0.166 0.402 0.498 0.533 0.192 0.081 0.475 0.149 0.85 0.206l0.855 0.141c0.929 0.146 1.553 0.288 1.87 0.425 0.513 0.218 0.77 0.558 0.77 1.024 0 0.448-0.261 0.837-0.783 1.167-0.522 0.326-1.315 0.491-2.384 0.491-1.149 0-1.963-0.171-2.439-0.508-0.48-0.338-0.735-0.754-0.769-1.248h1.232zM136.724 25.885h1.28v-0.991h-1.28v0.991zM136.724 31.826h1.28v-5.051h-1.28v5.051zM145.054 27.041c0.544 0.277 0.87 0.757 0.978 1.443h-1.253c-0.080-0.334-0.267-0.615-0.524-0.811l-0.003-0.003c-0.269-0.218-0.707-0.324-1.307-0.324-0.823 0-1.411 0.268-1.766 0.805-0.227 0.351-0.341 0.785-0.341 1.299 0 0.512 0.161 0.949 0.484 1.301 0.327 0.352 0.836 0.531 1.536 0.531 0.534 0 0.959-0.107 1.27-0.32 0.314-0.214 0.529-0.505 0.651-0.867h1.253c-0.143 0.66-0.501 1.141-1.076 1.449-0.573 0.302-1.308 0.455-2.199 0.455-1.006 0-1.808-0.241-2.405-0.726-0.596-0.483-0.895-1.090-0.895-1.823 0-0.89 0.33-1.585 0.981-2.080 0.658-0.495 1.491-0.745 2.505-0.745 0.865 0 1.57 0.139 2.112 0.415zM147.596 30.811h1.507v1.015h-1.507v-1.015zM232.375 2.386c0-1.133 0.865-1.986 1.975-1.986 1.094 0 1.961 0.853 1.961 1.986 0 1.152-0.866 2.001-1.961 2.001-1.111 0-1.975-0.849-1.975-2.001zM234.35 4.786c1.323 0 2.45-1.014 2.45-2.4 0-1.373-1.127-2.386-2.45-2.386-1.335 0-2.465 1.013-2.465 2.386 0 1.386 1.131 2.4 2.465 2.4zM233.836 2.576h0.487l0.739 1.195h0.475l-0.797-1.214c0.411-0.051 0.724-0.267 0.724-0.759 0-0.544-0.326-0.785-0.986-0.785h-1.066v2.759h0.422v-2.404h0.578c0.294 0 0.608 0.064 0.608 0.405 0 0.422-0.322 0.448-0.679 0.448h-0.507v0.355z"></path>
</svg>
