<!-- Generated by IcoMoon.io -->
<svg version="1.1" xmlns="http://www.w3.org/2000/svg" width="63" height="32" viewBox="0 0 63 32">
<title>ksc_logo</title>
<path fill="#828282" opacity="0.7" d="M51.638 0.101c-2.32 0.254-4.518 1.169-6.384 2.662-1.246 1.001-2.406 2.432-3.086 3.802-0.21 0.422-0.41 0.832-0.45 0.915-0.154 0.299-0.472 1.393-0.695 2.394-0.123 0.553-0.154 0.986-0.162 2.192 0 1.479 0.086 2.256 0.349 3.078 0.046 0.146 0.117 0.392 0.147 0.538 0.093 0.43 0.548 1.576 0.774 1.923 0.038 0.061 0.101 0.184 0.138 0.27s0.162 0.284 0.271 0.447c0.108 0.161 0.202 0.306 0.202 0.332 0 0.078 0.804 1.086 1.16 1.453 2.213 2.294 4.86 3.586 7.909 3.895 1.634 0.16 3.358-0.038 4.976-0.561 2.306-0.754 4.626-2.539 6.105-4.702l0.309-0.446-0.21-0.168c-0.199-0.157-0.424-0.312-0.658-0.453l-0.030-0.017c-0.27-0.168-0.92-0.586-1.454-0.93-0.534-0.346-1.183-0.762-1.454-0.93-0.27-0.16-0.597-0.37-0.728-0.447l-0.233-0.146-0.184 0.224c-0.102 0.122-0.178 0.254-0.185 0.298 0 0.146-0.882 1.054-1.386 1.438-0.564 0.422-1.338 0.814-2.104 1.069-0.664 0.224-2.49 0.246-3.203 0.038-1.37-0.4-2.553-1.217-3.372-2.316-0.688-0.922-0.992-1.646-1.198-2.894-0.109-0.654-0.117-0.878-0.038-1.37 0.046-0.324 0.094-0.654 0.109-0.739 0.016-0.146-0.030-0.153-0.991-0.153h-1.006l-0.061 0.538c-0.078 0.717 0 2.208 0.146 2.693 0.386 1.315 0.713 2.016 1.307 2.846 0.702 0.993 1.686 1.916 2.482 2.346 0.162 0.093 0.45 0.246 0.627 0.347 0.458 0.246 1.57 0.616 2.268 0.739 1.066 0.201 2.467 0.108 3.519-0.216 1.292-0.4 2.677-1.162 3.466-1.909 0.202-0.194 0.24-0.202 0.45-0.116 0.124 0.053 0.364 0.194 0.518 0.299 0.154 0.116 0.349 0.232 0.424 0.262 0.248 0.093 0.132 0.339-0.394 0.84-0.92 0.87-2.275 1.677-3.537 2.099-1.045 0.362-1.487 0.43-3.009 0.478-1.626 0.046-2.073-0.015-3.413-0.455-1.555-0.515-2.746-1.27-4.022-2.554-1.934-1.946-2.926-4.508-2.794-7.24 0.060-1.462 0.169-2.048 0.548-3.164 0.744-2.177 2.902-4.522 5.168-5.602 1.393-0.661 2.576-0.962 4.093-1.023 1.57-0.070 3.118 0.269 4.664 1.016 0.969 0.47 2.438 1.501 2.438 1.707 0 0.070-1.099 0.945-1.19 0.945-0.022 0-0.256-0.146-0.526-0.331-0.744-0.486-0.751-0.493-1.37-0.784-1.13-0.546-2.64-0.916-3.496-0.87l-0.418 0.022-0.061 0.87c-0.038 0.478-0.046 0.923-0.023 0.986 0.030 0.078 0.17 0.108 0.48 0.108 0.906 0 2.377 0.463 3.196 1.008 0.612 0.4 1.16 0.901 1.525 1.378 0.162 0.216 0.357 0.384 0.432 0.384 0.185 0 4.472-3.2 4.472-3.338 0-0.168-0.836-1.176-1.392-1.692-2.152-1.963-4.51-3.065-7.166-3.348-0.912-0.093-1.486-0.086-2.591 0.038zM16.418 0.217l-1.292 0.038-0.326 0.306c-0.582 0.561-1.554 1.501-2.933 2.838-1.224 1.177-4.573 4.418-6.244 6.032-0.357 0.339-0.642 0.646-0.642 0.691 0 0.061 0.68 0.862 0.928 1.094 0.022 0.023 0.51 0.538 1.082 1.154 0.564 0.616 1.454 1.562 1.972 2.117 0.524 0.548 1.15 1.227 1.398 1.504 0.256 0.276 0.549 0.593 0.658 0.698 0.44 0.456 1.021 1.076 1.779 1.916 0.44 0.486 1.16 1.262 1.593 1.732 0.968 1.039 1.191 1.308 1.191 1.416 0 0.101-2.074 0.123-2.205 0.022-0.046-0.030-0.424-0.438-0.852-0.9-0.597-0.661-1.13-1.234-1.67-1.802l0.037 0.039c-0.038-0.046-0.44-0.486-0.882-0.97-0.369-0.411-0.695-0.765-1.026-1.115l0.027 0.028c-0.21-0.201-0.874-0.922-2.406-2.607-0.488-0.53-0.898-0.978-0.92-1-0.030-0.024-0.342-0.37-0.704-0.77-1.066-1.192-1.137-1.254-1.23-1.199-0.061 0.038-0.086 0.677-0.086 2.147 0 4.254-0.093 7.988-0.21 8.094-0.116 0.116-1.238 0.078-1.378-0.053-0.046-0.046-0.061-1.285-0.046-3.47 0.015-1.87 0.053-6.226 0.078-9.672l0.046-6.271 3.484-0.075 0.022-0.878c0.015-0.578-0.008-0.906-0.070-0.977-0.119-0.146-5.158-0.154-5.35-0.008-0.101 0.086-0.116 1.363-0.146 11.712l-0.022 11.618 0.349 0.046c0.634 0.093 4.859 0.086 5.029-0.008 0.154-0.078 0.154-0.153 0.154-3.656 0-2.131 0.030-3.584 0.071-3.614 0.046-0.023 0.556 0.485 1.145 1.123 0.59 0.646 1.224 1.33 1.416 1.524 0.184 0.194 0.688 0.732 1.115 1.199 0.417 0.462 1.122 1.224 1.554 1.692 0.432 0.462 0.906 0.986 1.052 1.154 0.139 0.168 0.364 0.4 0.488 0.515l0.232 0.216h3.621c3.297 0 3.621-0.008 3.621-0.123 0-0.13-0.071-0.216-1.16-1.416-0.327-0.362-0.782-0.862-1.007-1.116-0.596-0.661-0.935-1.030-1.168-1.262-0.109-0.108-0.712-0.77-1.347-1.471-0.634-0.698-1.168-1.285-1.191-1.307-0.204-0.22-0.431-0.47-0.655-0.724l-0.040-0.046c-0.427-0.478-0.793-0.879-1.164-1.277l0.041 0.044c-0.246-0.261-0.511-0.549-0.772-0.841l-0.039-0.044c-0.185-0.216-0.571-0.631-0.852-0.922-1.093-1.147-2.794-3.040-2.794-3.115 0-0.078 0.364-0.448 1.825-1.846 3.476-3.327 6.099-5.854 8.716-8.386l-0.662 0.637c0.27-0.254 0.316-0.378 0.162-0.415-0.053-0.015-0.68-0.015-1.393 0.008zM25.37 0.332c-0.664 0.116-0.928 0.209-1.633 0.554-1.277 0.623-2.376 1.808-2.87 3.1-0.44 1.131-0.541 2.539-0.256 3.6 0.526 1.962 1.998 3.548 3.869 4.171 0.826 0.269 1.486 0.314 5.686 0.384 4.364 0.071 4.558 0.086 5.231 0.43 1.269 0.639 2.128 1.662 2.561 3.018 0.24 0.746 0.24 2.147 0 2.909-0.564 1.77-2.035 3.107-3.722 3.386-0.712 0.116-5.718 0.138-9.215 0.038l-1.742-0.045v-1.617l8.277-0.075v-1.924l-4.99 0.016c-2.746 0.007-5.069 0.037-5.16 0.060l-0.177 0.038v2.64c0 1.946 0.022 2.662 0.094 2.73s1.61 0.093 6.444 0.093c6.654 0 6.986-0.015 7.931-0.346 1.896-0.677 3.482-2.309 4.070-4.194 0.225-0.716 0.432-2.109 0.394-2.624-0.218-2.656-1.648-4.848-3.846-5.894-1.231-0.586-1.656-0.63-6.5-0.716-4.363-0.070-4.426-0.078-5.276-0.501-1.107-0.553-1.934-1.778-2.035-3.016-0.139-1.67 0.582-3.056 1.972-3.81 0.968-0.523 1.066-0.53 6.576-0.508l4.912 0.022 0.022 0.724c0.016 0.463-0.008 0.754-0.070 0.822-0.071 0.086-0.48 0.108-2.167 0.108-1.972 0-2.080 0.008-2.158 0.146-0.109 0.216-0.102 1.57 0.015 1.685 0.070 0.070 0.89 0.093 3.21 0.093 3.001 0 3.118-0.008 3.196-0.146 0.116-0.224 0.109-5.254-0.016-5.378-0.134-0.134-11.862-0.111-12.628 0.027zM1.912 25.246c-0.853 0.354-1.37 0.878-1.742 1.755-0.139 0.347-0.17 0.568-0.17 1.3-0.008 1.27 0.21 1.893 0.92 2.632 0.635 0.639 1.664 0.978 2.67 0.87 0.45-0.053 1.16-0.307 1.254-0.456 0.094-0.13 0.071-1.8-0.015-1.855-0.046-0.030-0.255 0.061-0.472 0.194-0.526 0.34-1.214 0.4-1.717 0.162-0.766-0.37-1.082-1.225-0.789-2.1 0.146-0.422 0.5-0.769 0.981-0.945 0.44-0.162 0.672-0.131 1.355 0.208 0.394 0.194 0.51 0.224 0.563 0.138 0.071-0.115 0.008-1.523-0.078-1.684-0.207-0.395-1.994-0.534-2.76-0.219zM7.692 25.263c-1.191 0.27-2.028 1.038-2.407 2.208-0.341 1.068-0.070 2.293 0.72 3.17 0.62 0.698 1.618 1.123 2.686 1.123 0.774 0 1.355-0.153 1.919-0.522 1.454-0.93 1.911-2.756 1.082-4.362-0.086-0.168-0.349-0.5-0.589-0.732-0.902-0.87-2.104-1.186-3.41-0.885zM9.17 26.847c0.627 0.209 1.075 0.878 1.075 1.61 0 0.553-0.17 0.938-0.59 1.299-0.356 0.314-0.564 0.392-1.044 0.392-1.074 0-1.833-0.992-1.626-2.117 0.172-0.915 1.239-1.49 2.184-1.184zM25.95 25.301c-1.1 0.154-2.027 0.886-2.584 2.040-0.116 0.246-0.146 0.485-0.146 1.191 0 0.847 0.008 0.907 0.256 1.408 0.494 1.038 1.415 1.692 2.654 1.901 0.178 0.030 0.383 0.047 0.592 0.047 0.557 0 1.086-0.122 1.56-0.341l-0.023 0.010c0.511-0.224 1.33-1.008 1.525-1.454 0.826-1.901 0.053-3.917-1.78-4.631-0.45-0.178-1.441-0.264-2.053-0.171zM27.452 27.071c0.364 0.216 0.571 0.47 0.703 0.84 0.24 0.669 0.101 1.34-0.379 1.838-0.432 0.455-1.052 0.594-1.765 0.4-0.549-0.154-1.067-0.946-1.067-1.632 0-0.724 0.534-1.438 1.198-1.609 0.352-0.090 1.047-0.008 1.31 0.163zM12.589 25.394c-0.030 0.053-0.070 1.438-0.086 3.070-0.023 2.524-0.008 2.977 0.086 3.062 0.078 0.060 0.357 0.086 0.837 0.070l0.728-0.022 0.023-1.024c0.015-0.738 0.046-1.016 0.116-1.008 0.054 0 0.357 0.4 0.672 0.893 0.317 0.493 0.642 0.963 0.721 1.038 0.109 0.116 0.264 0.138 0.984 0.138 1.022 0 1.074-0.046 0.642-0.608s-1.284-1.7-1.378-1.831c-0.078-0.115-0.038-0.16 0.466-0.508 0.109-0.078 0.293-0.284 0.409-0.454 0.185-0.284 0.21-0.385 0.21-0.986-0.008-0.717-0.109-0.97-0.556-1.416s-0.721-0.508-2.336-0.508c-1.095 0-1.49 0.023-1.538 0.094zM15.205 26.908c0.294 0.291 0.302 0.616 0.016 0.93-0.177 0.183-0.286 0.231-0.582 0.246-0.202 0.008-0.394-0.007-0.424-0.038-0.079-0.078-0.132-0.93-0.072-1.169 0.046-0.176 0.086-0.194 0.44-0.194 0.334 0.002 0.428 0.040 0.622 0.224zM18.090 25.377c-0.117 0.115-0.038 6.094 0.078 6.17 0.146 0.101 1.4 0.070 1.502-0.030 0.061-0.060 0.094-0.4 0.094-1.030 0-0.784 0.022-0.946 0.124-0.986 0.070-0.022 0.448-0.046 0.852-0.046 0.766 0 0.976-0.060 1.469-0.43 0.131-0.101 0.326-0.325 0.424-0.508 0.147-0.284 0.178-0.448 0.178-1.102 0-0.87-0.116-1.192-0.589-1.624-0.473-0.438-0.744-0.493-2.483-0.493-0.976 0.002-1.6 0.033-1.648 0.078zM20.838 26.847c0.094 0.086 0.202 0.246 0.248 0.354 0.162 0.43-0.387 0.908-0.999 0.855l-0.286-0.022-0.022-0.677-0.023-0.669h0.458c0.344-0.002 0.486 0.035 0.625 0.158zM31.328 25.377l-0.619 0.038-0.046 1.076c-0.030 0.594-0.054 1.961-0.061 3.047-0.008 1.609 0.015 1.994 0.101 2.062 0.071 0.060 0.364 0.086 0.827 0.070l0.728-0.022 0.038-0.994c0.023-0.593 0.071-1.008 0.117-1.023s0.341 0.378 0.657 0.862c0.316 0.493 0.62 0.953 0.672 1.024 0.072 0.108 0.256 0.138 0.992 0.168 0.626 0.022 0.928 0.008 0.976-0.046 0.053-0.060-0.218-0.478-0.838-1.299l-0.904-1.218 0.232-0.153c0.199-0.153 0.375-0.309 0.54-0.477l0.001-0.001c0.278-0.27 0.334-0.37 0.379-0.754 0.154-1.224-0.308-2.040-1.33-2.316-0.48-0.128-0.998-0.136-2.462-0.045zM33.232 26.878c0.132 0.086 0.236 0.207 0.298 0.349l0.002 0.005c0.094 0.216 0.086 0.277-0.045 0.523-0.124 0.231-0.218 0.291-0.549 0.384-0.612 0.162-0.642 0.131-0.642-0.676 0-0.478 0.030-0.698 0.102-0.731 0.131-0.053 0.586 0.022 0.834 0.146zM46.982 25.369c-0.278 0.078-0.294 0.209-0.294 3.238 0 2.208 0.023 2.992 0.094 3.062 0.109 0.108 1.439 0.123 1.611 0.015 0.101-0.060 0.116-0.501 0.131-3.062 0.015-2.293 0-3.017-0.078-3.107-0.071-0.094-0.263-0.131-0.728-0.154-0.36-0.016-0.683-0.008-0.736 0.008zM51.399 25.485c-0.665 0.224-1.138 0.508-1.486 0.885-0.665 0.732-0.906 1.348-0.906 2.308 0 1.501 0.867 2.655 2.384 3.17 0.582 0.202 1.765 0.202 2.298 0.008 0.943-0.34 1.626-0.93 2.020-1.755 0.248-0.53 0.263-0.594 0.263-1.4 0-1.024-0.146-1.478-0.688-2.147-0.885-1.084-2.508-1.529-3.886-1.069zM53.134 27.064c0.364 0.168 0.672 0.462 0.859 0.832 0.162 0.332 0.162 1.176 0 1.508-0.424 0.832-1.33 1.184-2.128 0.822-0.736-0.332-1.037-0.784-1.030-1.576 0-0.602 0.132-0.915 0.504-1.248 0.54-0.487 1.198-0.608 1.794-0.338zM38.338 25.485c-0.078 0.093-0.316 0.724-0.472 1.24-0.038 0.122-0.195 0.578-0.35 1-0.053 0.116-0.172 0.448-0.285 0.782l-0.064 0.218c-0.030 0.124-0.184 0.579-0.349 1.002-0.080 0.195-0.197 0.527-0.304 0.863l-0.038 0.137c-0.041 0.154-0.090 0.287-0.152 0.413l0.006-0.013c-0.131 0.239-0.116 0.538 0.030 0.594 0.070 0.022 0.41 0.045 0.766 0.045 0.721 0 0.797-0.053 0.958-0.669 0.046-0.168 0.131-0.354 0.194-0.4 0.071-0.060 0.466-0.085 1.206-0.070l1.1 0.022 0.154 0.462c0.086 0.254 0.195 0.508 0.24 0.561 0.054 0.070 0.302 0.093 0.898 0.078 0.796-0.023 0.818-0.030 0.844-0.209 0.015-0.101-0.030-0.325-0.101-0.501-0.078-0.176-0.178-0.447-0.24-0.608-0.061-0.154-0.154-0.415-0.218-0.578-0.061-0.154-0.218-0.601-0.357-0.978-0.154-0.468-0.272-0.787-0.398-1.102l0.049 0.14c-0.116-0.278-0.314-0.853-0.499-1.434l-0.082-0.298c-0.057-0.207-0.12-0.38-0.194-0.548l0.010 0.026-0.125-0.284h-1.074c-0.798 0.002-1.084 0.027-1.155 0.11zM39.84 28.27c0.154 0.478 0.263 0.908 0.233 0.953-0.022 0.038-0.309 0.078-0.627 0.078-0.465 0-0.589-0.023-0.626-0.123-0.023-0.070 0.060-0.463 0.194-0.87 0.131-0.407 0.263-0.814 0.286-0.915 0.083-0.314 0.248-0.053 0.541 0.878zM42.082 25.454c-0.030 0.046-0.053 0.299-0.045 0.56 0 0.909-0.054 0.823 0.518 0.823 0.89 0 0.827-0.194 0.797 2.469-0.030 1.986-0.015 2.315 0.086 2.378 0.061 0.045 0.45 0.070 0.852 0.060l0.736-0.022 0.023-2.386c0.014-1.786 0.038-2.394 0.116-2.439 0.046-0.030 0.293-0.060 0.534-0.060 0.548 0 0.68-0.146 0.68-0.754 0-0.754 0.131-0.709-2.205-0.709-1.325 0.002-2.058 0.035-2.091 0.080zM56.638 25.555c-0.131 0.1-0.146 0.314-0.184 3.092-0.038 2.839-0.031 2.992 0.101 3.093 0.194 0.131 1.355 0.138 1.532 0 0.116-0.078 0.131-0.299 0.146-1.747 0.016-1.2 0.046-1.654 0.116-1.654 0.094 0 0.309 0.262 1.78 2.177 0.496 0.646 0.958 1.208 1.037 1.255 0.162 0.086 1.386 0.093 1.51 0.008 0.060-0.038 0.101-1.024 0.138-3.108 0.054-2.992 0.054-3.055-0.101-3.133-0.177-0.101-1.393-0.116-1.532-0.023-0.070 0.046-0.101 0.494-0.116 1.632-0.016 1.076-0.054 1.576-0.109 1.592-0.094 0.030-0.278-0.184-1.664-1.939-0.472-0.593-0.928-1.138-1.014-1.216-0.202-0.166-1.416-0.189-1.641-0.028z"></path>
</svg>
