<!-- Generated by IcoMoon.io -->
<svg version="1.1" xmlns="http://www.w3.org/2000/svg" width="79" height="32" viewBox="0 0 79 32">
<title>logo_whie</title>
<path fill="#d2372e" d="M17.28 23.36c0 4.772-3.868 8.64-8.64 8.64s-8.64-3.868-8.64-8.64c0-4.772 3.868-8.64 8.64-8.64s8.64 3.868 8.64 8.64z"></path>
<path fill="#ffc75f" d="M36.48 16.96c0 8.306-6.734 15.040-15.040 15.040s-15.040-6.734-15.040-15.040c0-8.306 6.734-15.040 15.040-15.040s15.040 6.734 15.040 15.040z"></path>
<path fill="#6193cb" d="M17.28 5.76c0 3.181-2.579 5.76-5.76 5.76s-5.76-2.579-5.76-5.76c0-3.181 2.579-5.76 5.76-5.76s5.76 2.579 5.76 5.76z"></path>
<path fill="#fff" d="M22.388 23.24c-0.643 0-1.309-0.106-1.997-0.316-0.577 0.144-1.082 0.216-1.514 0.216-0.422 0-0.71-0.011-0.865-0.033 0.077-0.655 0.41-2.313 0.998-4.975 0.599-2.673 0.899-4.188 0.899-4.543 0-0.366-0.077-0.682-0.233-0.948-0.144-0.266-0.288-0.461-0.433-0.582l-0.233-0.183 0.050-0.25c0.288-0.077 0.877-0.161 1.764-0.25 0.899-0.1 1.681-0.15 2.346-0.15 1.542 0 2.707 0.344 3.494 1.032 0.799 0.676 1.198 1.78 1.198 3.311 0 1.254-0.211 2.458-0.632 3.611-0.41 1.142-1.043 2.108-1.897 2.895-0.854 0.776-1.836 1.165-2.945 1.165zM23.57 12.274c-0.288 0-0.616 0.033-0.982 0.1-0.111 1.176-0.427 2.895-0.948 5.158-0.51 2.252-0.81 3.688-0.899 4.31 0.266 0.133 0.632 0.2 1.098 0.2s0.904-0.183 1.315-0.549c0.423-0.384 0.766-0.849 1.004-1.371l0.011-0.026c0.255-0.555 0.477-1.176 0.666-1.864 0.322-1.231 0.483-2.352 0.483-3.361s-0.133-1.692-0.399-2.047c-0.266-0.366-0.716-0.549-1.348-0.549zM28.872 20.161c0-1.387 0.416-2.479 1.248-3.278 0.844-0.81 1.797-1.215 2.862-1.215 0.655 0 1.193 0.161 1.614 0.483s0.632 0.755 0.632 1.298c0 0.532-0.138 0.982-0.416 1.348-0.256 0.355-0.585 0.641-0.967 0.841l-0.015 0.007c-0.787 0.388-1.508 0.632-2.163 0.732l-0.399 0.050c0.078 1.043 0.505 1.564 1.281 1.564 0.266 0 0.549-0.067 0.849-0.2s0.532-0.266 0.699-0.399l0.25-0.2 0.399 0.532c-0.088 0.122-0.266 0.283-0.532 0.483s-0.516 0.366-0.749 0.499c-0.598 0.335-1.313 0.533-2.073 0.533-0.014 0-0.028-0-0.042-0l0.002 0c-0.765 0-1.37-0.272-1.814-0.815s-0.666-1.298-0.666-2.263zM31.251 19.612c0.566-0.1 1.015-0.339 1.348-0.716s0.499-0.865 0.499-1.464-0.177-0.899-0.532-0.899c-0.421 0-0.749 0.36-0.982 1.082-0.221 0.71-0.333 1.376-0.333 1.997zM41.388 20.86c0 0.699-0.31 1.27-0.932 1.714-0.61 0.444-1.309 0.666-2.097 0.666s-1.414-0.166-1.88-0.499c-0.454-0.333-0.682-0.627-0.682-0.882 0-0.156 0.194-0.405 0.582-0.749 0.388-0.355 0.716-0.572 0.982-0.649 0.555 0.41 1.009 1.059 1.364 1.947 0.41-0.033 0.616-0.227 0.616-0.582 0-0.51-0.449-1.231-1.348-2.163-0.899-0.943-1.348-1.692-1.348-2.246s0.25-0.982 0.749-1.281c0.499-0.31 1.098-0.466 1.797-0.466 0.71 0 1.242 0.128 1.597 0.383 0.355 0.244 0.532 0.582 0.532 1.015 0 0.422-0.339 1.009-1.015 1.764 0.077 0.077 0.177 0.183 0.3 0.316 0.122 0.122 0.283 0.36 0.483 0.716s0.3 0.688 0.3 0.998zM39.791 18.248c0.466-0.399 0.699-0.794 0.699-1.181s-0.266-0.582-0.799-0.582c-0.255 0-0.466 0.056-0.632 0.166-0.166 0.1-0.25 0.216-0.25 0.349 0 0.244 0.244 0.588 0.732 1.032l0.25 0.216zM46.105 16.7c0 0.466-0.15 1.27-0.449 2.413-0.3 1.132-0.449 1.875-0.449 2.23 0 0.344 0.050 0.516 0.15 0.516 0.067 0 0.322-0.106 0.765-0.316l0.2-0.1 0.283 0.582c-0.116 0.102-0.246 0.211-0.378 0.317l-0.021 0.016c-0.166 0.133-0.477 0.316-0.932 0.549-0.454 0.222-0.877 0.333-1.265 0.333s-0.693-0.116-0.915-0.349c-0.222-0.244-0.333-0.566-0.333-0.965 0-0.41 0.139-1.132 0.416-2.163 0.277-1.043 0.416-1.72 0.416-2.030 0-0.466-0.144-0.904-0.433-1.315l-0.15-0.2 0.017-0.216c0.588-0.166 1.542-0.25 2.862-0.25 0.144 0.166 0.216 0.483 0.216 0.948zM44.208 13.938c-0.222-0.222-0.333-0.516-0.333-0.882s0.15-0.688 0.449-0.965c0.31-0.277 0.666-0.416 1.065-0.416s0.71 0.111 0.932 0.333c0.222 0.222 0.333 0.516 0.333 0.882 0 0.355-0.161 0.671-0.483 0.948-0.31 0.277-0.66 0.416-1.048 0.416s-0.693-0.106-0.915-0.316zM49.79 24.837c-0.366 0.222-0.549 0.438-0.549 0.649s0.116 0.316 0.349 0.316c0.244 0 0.516-0.116 0.815-0.349 0.3-0.222 0.549-0.588 0.749-1.098-0.532 0.1-0.988 0.26-1.364 0.483zM54.732 15.785c0.045 0.045 0.067 0.144 0.067 0.3 0 0.144-0.011 0.305-0.033 0.483-0.022 0.166-0.061 0.549-0.116 1.148s-0.111 1.12-0.166 1.564c-0.566 4.992-2.086 7.488-4.559 7.488-0.005 0-0.010 0-0.015 0-0.402 0-0.776-0.118-1.091-0.321l0.008 0.005c-0.322-0.211-0.483-0.483-0.483-0.815 0-0.444 0.272-0.849 0.815-1.215s1.276-0.649 2.196-0.849c0-0.011 0.033-0.166 0.1-0.466s0.111-0.544 0.133-0.732c-0.666 0.488-1.293 0.732-1.88 0.732-0.577 0-1.054-0.227-1.431-0.682-0.366-0.454-0.549-1.181-0.549-2.18 0-1.309 0.294-2.396 0.882-3.261 0.588-0.877 1.364-1.315 2.33-1.315 0.544 0 1.082 0.133 1.614 0.399 0.532-0.19 1.145-0.3 1.784-0.3 0.016 0 0.032 0 0.049 0l-0.002-0 0.349 0.017zM51.687 16.65c-0.477 0-0.854 0.388-1.132 1.165-0.277 0.765-0.416 1.619-0.416 2.563 0 0.932 0.211 1.398 0.632 1.398 0.277 0 0.605-0.106 0.982-0.316 0.31-1.864 0.532-3.4 0.666-4.609-0.31-0.133-0.555-0.2-0.732-0.2zM56.344 23.090h-0.316c0-0.522 0.156-1.52 0.466-2.995 0.322-1.475 0.483-2.313 0.483-2.513 0-0.366-0.155-0.755-0.466-1.165l-0.15-0.2 0.017-0.216c0.599-0.166 1.559-0.25 2.879-0.25 0.145 0.189 0.222 0.532 0.233 1.032 0.965-0.743 1.78-1.115 2.446-1.115 0.399 0 0.716 0.139 0.948 0.416 0.244 0.277 0.366 0.627 0.366 1.048 0 0.41-0.128 1.126-0.383 2.147s-0.383 1.709-0.383 2.063c0 0.344 0.045 0.516 0.133 0.516 0.067 0 0.3-0.106 0.699-0.316l0.2-0.1 0.3 0.582c-0.116 0.102-0.246 0.211-0.378 0.317l-0.021 0.016c-0.166 0.133-0.477 0.316-0.932 0.549-0.444 0.222-0.843 0.333-1.198 0.333-0.81 0-1.215-0.461-1.215-1.381 0-0.388 0.122-1.104 0.366-2.147 0.255-1.043 0.383-1.714 0.383-2.013s-0.094-0.449-0.283-0.449c-0.321 0-0.716 0.139-1.181 0.416-0.033 0.189-0.144 0.688-0.333 1.498-0.388 1.741-0.582 2.973-0.582 3.694-0.388 0.156-1.087 0.233-2.097 0.233zM64.778 20.161c0-1.387 0.416-2.479 1.248-3.278 0.844-0.81 1.797-1.215 2.862-1.215 0.655 0 1.193 0.161 1.614 0.483s0.632 0.755 0.632 1.298c0 0.532-0.138 0.982-0.416 1.348-0.256 0.355-0.585 0.641-0.967 0.841l-0.015 0.007c-0.787 0.388-1.508 0.632-2.163 0.732l-0.399 0.050c0.078 1.043 0.505 1.564 1.281 1.564 0.266 0 0.549-0.067 0.849-0.2s0.532-0.266 0.699-0.399l0.25-0.2 0.399 0.532c-0.088 0.122-0.266 0.283-0.532 0.483s-0.516 0.366-0.749 0.499c-0.598 0.335-1.313 0.533-2.073 0.533-0.014 0-0.028-0-0.042-0l0.002 0c-0.765 0-1.37-0.272-1.814-0.815s-0.666-1.298-0.666-2.263zM67.157 19.612c0.566-0.1 1.015-0.339 1.348-0.716s0.499-0.865 0.499-1.464-0.177-0.899-0.532-0.899c-0.421 0-0.749 0.36-0.982 1.082-0.221 0.71-0.333 1.376-0.333 1.997zM71.923 20.161c0-1.387 0.416-2.479 1.248-3.278 0.843-0.81 1.797-1.215 2.862-1.215 0.655 0 1.192 0.161 1.614 0.483s0.632 0.755 0.632 1.298c0 0.532-0.139 0.982-0.416 1.348-0.256 0.355-0.585 0.641-0.967 0.841l-0.015 0.007c-0.788 0.388-1.508 0.632-2.163 0.732l-0.399 0.050c0.077 1.043 0.505 1.564 1.281 1.564 0.266 0 0.549-0.067 0.849-0.2s0.532-0.266 0.699-0.399l0.25-0.2 0.399 0.532c-0.089 0.122-0.266 0.283-0.532 0.483s-0.516 0.366-0.749 0.499c-0.598 0.335-1.313 0.533-2.073 0.533-0.014 0-0.028-0-0.042-0l0.002 0c-0.765 0-1.37-0.272-1.814-0.815s-0.666-1.298-0.666-2.263zM74.303 19.612c0.566-0.1 1.015-0.339 1.348-0.716s0.499-0.865 0.499-1.464-0.177-0.899-0.532-0.899c-0.422 0-0.749 0.36-0.982 1.082-0.222 0.71-0.333 1.376-0.333 1.997z"></path>
</svg>
