<!-- Generated by IcoMoon.io -->
<svg version="1.1" xmlns="http://www.w3.org/2000/svg" width="248" height="32" viewBox="0 0 248 32">
<title>TESLA_LOGO</title>
<path fill="#828282" opacity="0.7" d="M212.27 12.694v19.306h6.231v-12.87h22.787v12.87h6.231v-19.306h-35.249zM217.788 6.435h24.033c3.383-0.616 5.787-3.612 6.499-6.435h-37.029c0.712 2.821 3.204 5.731 6.497 6.436zM193.311 32c3.116-1.322 4.806-3.615 5.518-6.259h-28.038v-25.651h-6.321v31.91h28.841zM117.74 6.348h22.253c3.382-0.97 6.141-3.526 6.853-6.259h-35.249v18.865h28.84v6.611h-22.609c-3.561 0.97-6.587 3.35-8.1 6.436h36.94v-19.306h-28.84l-0.090-6.346zM62.907 6.436h24.033c3.383-0.618 5.875-3.615 6.5-6.436h-37.12c0.712 2.821 3.205 5.731 6.587 6.436zM62.907 19.041h24.033c3.383-0.617 5.875-3.615 6.499-6.436h-37.119c0.712 2.821 3.205 5.731 6.587 6.436zM62.907 32h24.033c3.383-0.617 5.875-3.615 6.499-6.435h-37.119c0.712 2.82 3.205 5.818 6.587 6.435zM0 0.090c0.717 2.829 3.226 5.658 6.543 6.364h10.217l0.538 0.177v25.37h6.364v-25.37l0.538-0.177h10.217c3.407-0.883 5.827-3.537 6.543-6.365v-0.088l-40.96 0.090z"></path>
</svg>
